<?xml version="1.0" standalone="no"?>
<!DOCTYPE svg PUBLIC "-//W3C//DTD SVG 1.1//EN" "http://www.w3.org/Graphics/SVG/1.1/DTD/svg11.dtd" >
<svg xmlns="http://www.w3.org/2000/svg">
<metadata></metadata>
<defs>
<font id="db_ozone_xultrali" horiz-adv-x="727" >
<font-face units-per-em="2048" ascent="1638" descent="-410" />
<missing-glyph horiz-adv-x="428" />
<glyph unicode="&#x2b;&#x2d;" horiz-adv-x="846" d="M104 10v54h640v-54h-640zM104 444v56h294v292h56v-292h290v-56h-290v-292h-56v292h-294z" />
<glyph unicode="&#x2e;&#x2e;&#x2e;" horiz-adv-x="1147" d="M142 51q0 13 4.5 24t13 19.5t19.5 13t24 4.5t24 -4.5t19 -13t13 -19.5t5 -24t-5 -24t-13 -19t-19 -13t-24 -5t-24 5t-19.5 13t-13 19t-4.5 24zM512 51q0 13 5 24t13 19.5t19 13t25 4.5q13 0 24 -4.5t19.5 -13t13 -19.5t4.5 -24t-4.5 -24t-13 -19t-20 -13t-23.5 -5 q-13 0 -24.5 5t-19.5 13t-13 19t-5 24zM882 51q0 13 5 24t13 19.5t19.5 13t24.5 4.5t24.5 -4.5t19.5 -13t13 -19.5t5 -24t-5 -24t-13 -19t-19.5 -13t-24.5 -5t-24.5 5t-19.5 13t-13 19t-5 24z" />
<glyph horiz-adv-x="0" />
<glyph unicode="&#xd;" horiz-adv-x="485" />
<glyph unicode=" "  horiz-adv-x="428" />
<glyph unicode="&#x09;" horiz-adv-x="428" />
<glyph unicode="&#xa0;" horiz-adv-x="428" />
<glyph unicode="!" horiz-adv-x="471" d="M205 47q0 11 4.5 21t11.5 17t17 11t20 4t20 -4t17.5 -11t12 -17t4.5 -21q0 -12 -4.5 -21.5t-12 -17.5t-17.5 -12t-20 -4t-20 4t-17 12t-11.5 17.5t-4.5 21.5zM223 1034h72l-6 -725h-59z" />
<glyph unicode="&#x22;" horiz-adv-x="637" d="M152 811v231h84v-231h-84zM402 811v231h84v-231h-84z" />
<glyph unicode="#" horiz-adv-x="1009" d="M125 352v50h155q10 58 20 118t20 119h-148v53h156l57 336h63l-57 -336h283l53 336h61l-53 -336h145v-53h-153l-39 -237h148v-50h-154l-58 -352h-65l59 352h-282l-56 -352h-63l57 352h-149zM344 402h280l40 237h-279z" />
<glyph unicode="$" horiz-adv-x="825" d="M74 121l49 53q32 -32 62.5 -54t61.5 -36.5t65 -22t73 -10.5v443q-66 12 -119.5 34.5t-91.5 56t-59 77.5t-21 100q0 63 20.5 113.5t58 86.5t91.5 57t121 23v140h55v-140q39 -2 73.5 -8.5t66.5 -19.5t61 -31.5t57 -44.5l-42 -47q-23 19 -46.5 35t-48.5 28.5t-55 20 t-66 10.5v-434q79 -13 138 -34.5t98 -54.5t58.5 -79.5t19.5 -108.5t-22 -112t-63 -87t-99 -59t-130 -26v-158h-55v156q-49 2 -92 11.5t-81 26t-72 40.5t-66 55zM162 766q0 -30 10 -56.5t26.5 -48t39 -39t47 -30t50.5 -21.5t50 -12v428q-52 -3 -93 -20t-70 -46t-44.5 -68 t-15.5 -87zM436 47q58 2 105 18t79.5 44.5t50 69.5t17.5 93q0 54 -17.5 91t-50 62.5t-79.5 41t-105 25.5v-445z" />
<glyph unicode="%" horiz-adv-x="1196" d="M80 692v156q0 43 14 78t39 60t61 38.5t78 13.5q43 0 78.5 -13.5t61 -38.5t39.5 -60t14 -78v-156q0 -40 -14 -75t-39.5 -60t-60.5 -39t-79 -14q-43 0 -78.5 14t-60.5 39t-39 60t-14 75zM137 694q0 -62 34.5 -97.5t100.5 -35.5t100 35q34 34 34 98v154q0 30 -9 55t-25 43 t-41 27.5t-59 9.5q-33 0 -58 -9.5t-42.5 -27.5t-26 -43t-8.5 -55v-154zM318 0l499 1034h63l-499 -1034h-63zM731 182v154q0 44 14 79.5t39.5 60.5t60.5 38.5t79 13.5t79 -13.5t60 -38.5t39 -60.5t14 -79.5v-154q0 -41 -14 -75.5t-39 -59.5t-60 -39t-79 -14q-43 0 -78.5 14 t-61 39t-39.5 60t-14 75zM784 186q0 -66 36 -102.5t104 -36.5t103.5 35.5t35.5 103.5v150q0 68 -35.5 104.5t-103.5 36.5t-104 -36.5t-36 -104.5v-150z" />
<glyph unicode="&#x26;" horiz-adv-x="1075" d="M100 280q0 59 22 105.5t57 84.5t81 70t94 62q-23 26 -45.5 54t-39.5 57.5t-28 60t-11 62.5q0 42 16 78.5t45 64t68 42.5t83 15q45 0 84.5 -16t68.5 -43t46 -64t17 -79q0 -30 -10.5 -57t-28 -49t-39.5 -41t-46 -33q-18 -12 -34 -24q-14 -10 -29 -19.5t-25 -16.5 q82 -92 163 -186t163 -185q17 26 30 52.5t21.5 57.5t13.5 68t5 85h66q-1 -46 -7 -89.5t-17.5 -83t-29.5 -74t-43 -63.5q36 -43 75 -88q38 -46 74 -88h-88l-104 123q-12 -10 -29 -24t-40 -28.5t-51 -29.5t-62 -26t-72 -18t-82 -7q-74 0 -135 21t-105 59t-68 92 q-24 52 -24 118zM166 284q0 -53 19.5 -96.5t54 -74.5t83.5 -48.5t107 -17.5q32 0 66.5 5.5t71.5 19.5t77.5 37t83.5 59l-336 393q-40 -26 -80.5 -52.5t-73 -59.5t-53 -73t-20.5 -92zM297 840q0 -20 6 -40t19.5 -44t34.5 -53t53 -66q11 8 22.5 15.5t21.5 14.5q12 8 23 15 q21 14 41.5 30t37 34t26.5 40t10 48q0 30 -11.5 57t-32 47t-47.5 31.5t-59 11.5q-30 0 -56 -10.5t-46 -30t-31.5 -45t-11.5 -55.5z" />
<glyph unicode="'" horiz-adv-x="389" d="M152 811v231h84v-231h-84z" />
<glyph unicode="(" horiz-adv-x="436" d="M156 116v914q-1 40 6 76t22.5 69t39.5 62t58 57l42 -40q-20 -20 -36 -38t-27.5 -33.5t-19 -31.5t-12.5 -34t-7 -39.5t-3 -47.5v-914q0 -34 5.5 -62t17.5 -55t32 -53q20 -24 50 -52l-40 -42q-36 29 -60 60.5t-39 64.5t-22 68t-7 71z" />
<glyph unicode=")" horiz-adv-x="436" d="M112 -106q28 28 48 53t32 52t17.5 55t5.5 62v914q0 26 -2.5 47.5t-7.5 39.5t-12 34t-18.5 31.5t-26.5 33.5q-16 18 -36 38l40 40q34 -28 58 -57t39.5 -62t22.5 -69q6 -36 6 -76v-914q0 -37 -7 -71.5t-22 -67.5t-40 -64t-59 -61z" />
<glyph unicode="*" horiz-adv-x="733" d="M116 666l202 114q-23 13 -48.5 27.5t-51.5 29l-52 29t-50 27.5q10 14 16 25q6 10 12 24l198 -123q0 56 -2 117q-2 60 -2 116h58l-5 -233l199 123l26 -49l-200 -113q23 -13 48.5 -27.5t51 -29.5l51 -30t49.5 -27l-26 -46l-199 122q0 -56 2.5 -116.5t2.5 -117.5h-58l4 234 l-198 -122z" />
<glyph unicode="+" horiz-adv-x="827" d="M94 398v54h293v292h57v-292h289v-54h-289v-292h-57v292h-293z" />
<glyph unicode="," horiz-adv-x="397" d="M152 100h90v-204l-90 -90v294z" />
<glyph unicode="-" horiz-adv-x="667" d="M133 398v56h401v-56h-401z" />
<glyph unicode="." horiz-adv-x="405" d="M142 49q0 13 4.5 24.5t13 20t19.5 13.5t24 5t24 -5t19 -13.5t13 -20t5 -24.5q0 -12 -5 -23.5t-13 -19.5t-19 -13t-24 -5t-24 5t-19.5 13t-13 19.5t-4.5 23.5z" />
<glyph unicode="/" horiz-adv-x="526" d="M0 -119l459 1387h67l-460 -1387h-66z" />
<glyph unicode="0" d="M82 268v502q0 62 20.5 112t58 86t89.5 55t114 19t114 -19t89 -55t57.5 -86t20.5 -112v-502q0 -61 -20.5 -111.5t-57.5 -87t-89 -57t-114 -20.5q-63 0 -114.5 20.5t-89 57t-58 87.5t-20.5 111zM148 272q0 -46 14 -86t41 -70t68 -47.5t93 -17.5t92 17.5t67 47.5t41 70 t14 86v492q0 48 -14 88t-41 70t-67 46q-40 17 -92 17q-53 0 -93.5 -16.5t-67.5 -46.5t-41 -70t-14 -88v-492z" />
<glyph unicode="1" d="M176 796v78l205 168h71v-1042h-67v973z" />
<glyph unicode="2" d="M84 0v58l438 548q31 42 46.5 83t15.5 85q0 48 -15.5 87t-43.5 67t-67.5 42.5t-89.5 14.5q-40 0 -78 -11.5t-69 -35.5t-51 -63q-18 -39 -20 -95h-66q2 58 22 106t56.5 83t88.5 54q51 19 117 19q64 0 117 -18t90.5 -53t58 -84.5t20.5 -112.5q0 -28 -5 -53.5t-15 -49.5 t-24 -47.5t-32 -47.5l-416 -520h492v-56h-570z" />
<glyph unicode="3" d="M35 242h69q6 -54 29 -92t55 -61t72 -33.5t82 -10.5q50 0 93 15.5t75 44.5t51 71t19 96t-14 97t-44 72.5t-76 45t-110 15.5h-12v57h12q115 0 170 55t55 158q0 54 -17 94t-46.5 67t-70 40.5t-87.5 13.5q-48 0 -87 -12.5t-67 -37t-45 -59.5q-17 -36 -22 -80h-70 q8 60 33.5 106t63.5 76.5t87.5 46t106.5 15.5q64 0 117 -18t90 -53t57 -85t20 -114q0 -36 -6 -69.5t-22 -64t-44 -57.5q-26 -27 -68 -47q45 -16 76 -42t50.5 -59.5t28 -74.5t8.5 -86q0 -70 -23 -123t-63.5 -90t-96.5 -55t-122 -18q-62 0 -116 16t-94.5 48t-66 80t-30.5 112z " />
<glyph unicode="4" d="M35 172v56l401 806h72l-404 -804h365v331h67v-331h150v-58h-150v-172h-67v172h-434z" />
<glyph unicode="5" d="M88 219h66q6 -40 22 -72.5t43 -54.5t64 -33.5t85 -11.5q63 0 105.5 23.5t68.5 63.5t37 92t11 110q0 33 -3 67.5t-12 66t-23.5 59.5t-37 48.5t-54 32.5t-73.5 12q-36 0 -70.5 -8t-63.5 -23t-51 -35t-34 -44h-52v522h515v-55h-451v-375q42 38 92 54t115 16q52 0 92 -13 t70 -36t50.5 -54t33.5 -69t19 -80t6 -86q-1 -78 -17.5 -142t-50.5 -110t-89 -71t-133 -25q-57 0 -105.5 15t-85 44t-60 72.5t-29.5 99.5z" />
<glyph unicode="6" d="M68 293q0 100 61 229l271 512h67l-246 -466q20 10 38 17t36 11t36.5 6t36.5 2q69 0 123.5 -23.5t91 -64t56 -95.5t19.5 -118q0 -64 -20 -121t-57.5 -99t-92.5 -67q-56 -24 -126 -24t-124.5 22.5t-92.5 63t-57.5 95.5t-19.5 120zM133 297q0 -56 16.5 -101.5t46.5 -78.5 t72 -51.5t94 -18.5q50 0 93 18.5t73 51.5t47 79.5t17 100.5q-1 52 -15.5 97.5t-42 80.5t-69 55.5t-97.5 20.5q-50 0 -93 -18t-75 -51.5t-49.5 -80.5t-17.5 -104z" />
<glyph unicode="7" d="M106 817v217h566v-57l-390 -977h-67l387 979h-428v-162h-68z" />
<glyph unicode="8" d="M56 276q0 44 12 83.5t34 72.5t54 60q34 26 74 46q-77 42 -113.5 102t-36.5 138q0 58 20.5 107t58 84t89.5 54t116 19q63 0 115.5 -19t89.5 -54t57.5 -84t20.5 -107q0 -77 -37.5 -137.5t-109.5 -102.5q40 -18 71.5 -44t54 -59.5t34.5 -74t12 -84.5q0 -62 -23.5 -114 t-64.5 -89.5t-97.5 -59t-122.5 -21.5t-122 21.5t-98 59t-65 89.5t-23 114zM125 276q0 -48 18.5 -89.5t51.5 -72.5t76 -49t93 -18t93.5 18t75.5 49t50.5 72.5t18.5 89.5q0 49 -18.5 92t-50.5 74.5t-75.5 49.5t-93.5 18t-93 -18t-76 -49.5t-51.5 -74t-18.5 -92.5zM146 778 q0 -46 16 -85t45 -67t69 -43t88 -15t87.5 15t68 43t44.5 67t16 85t-16 85t-44.5 67t-68 43.5t-87.5 15.5t-88 -15.5t-69 -43.5t-45 -67t-16 -85z" />
<glyph unicode="9" d="M68 731q0 64 20 121t58 99.5t93 66.5t125 24t125 -22.5t92 -63t57 -95.5t20 -119q0 -51 -15.5 -108.5t-46.5 -121.5l-268 -512h-70l246 465q-20 -11 -38 -18t-36 -10.5t-36 -4.5q-18 -2 -36 -2q-69 0 -123 23t-91.5 63.5t-56.5 95.5t-19 119zM135 738q0 -52 14.5 -99 t42 -81t69 -54t97.5 -20q50 0 93 18t74.5 51t49 80t17.5 105q0 54 -16 100t-46 79t-72 51.5t-94 18.5t-94 -18.5t-72.5 -51.5t-47 -79t-15.5 -100z" />
<glyph unicode=":" horiz-adv-x="452" d="M186 51q0 13 5 24t13 19.5t19.5 13t24.5 4.5t24 -4.5t19.5 -13t13 -19.5t4.5 -24t-4.5 -24t-13 -19t-19.5 -13t-24 -5t-24.5 5t-19.5 13t-13 19t-5 24zM186 600q0 13 5 24.5t13 19.5t19.5 13t24.5 5t24 -5t19.5 -13t13 -19.5t4.5 -24.5t-4.5 -24.5t-13 -19.5t-19.5 -13 t-24 -5t-24.5 5t-19.5 13t-13 19.5t-5 24.5z" />
<glyph unicode=";" horiz-adv-x="452" d="M188 600q0 12 5 23t13 19t19 13t23 5t23 -5t19 -13t12.5 -19t4.5 -23t-4.5 -23t-12.5 -19t-19 -13t-23 -5t-23 5t-19 13t-13 19t-5 23zM203 100h90v-204l-90 -90v294z" />
<glyph unicode="&#x3c;" horiz-adv-x="825" d="M94 442v60l639 252v-64l-579 -217l579 -217v-62z" />
<glyph unicode="=" horiz-adv-x="827" d="M94 272v58h639v-58h-639zM94 520v56h639v-56h-639z" />
<glyph unicode="&#x3e;" horiz-adv-x="825" d="M94 194v62l580 217l-580 217v64l639 -252v-60z" />
<glyph unicode="?" horiz-adv-x="700" d="M86 803q0 50 20 94.5t55.5 77t84.5 51.5q48 18 108 18q57 0 105.5 -19t84.5 -52t56 -79t20 -100q0 -26 -5.5 -47.5t-15 -42t-21.5 -40.5t-25 -40l-129 -184q-8 -10 -14 -22t-9 -23.5t-4 -22.5q-1 -12 -1 -20v-80h-64v76q0 20 3 36t8 31t13 30l16 30l140 199q9 14 17.5 27 t15 27.5t10.5 31t4 34.5q0 42 -16.5 79t-44 63.5t-65 42t-79.5 15.5q-44 0 -82 -15t-66 -41t-44 -60.5t-16 -74.5h-60zM307 45q0 10 4.5 20t12.5 17.5t18 11.5t20 4t20 -4t17.5 -11.5t12 -17t4.5 -20.5q0 -10 -4.5 -20.5t-12 -18t-17.5 -12.5q-10 -4 -20 -4t-20 4.5t-18 12 t-12.5 18t-4.5 20.5z" />
<glyph unicode="@" horiz-adv-x="1286" d="M104 524q4 74 27.5 144t61 130.5t88 110t111 85.5t128.5 56q68 19 140 19q78 0 147 -17.5t128 -50.5t106 -80t79 -105t48 -126.5t14 -144.5q-2 -68 -22.5 -127.5t-56.5 -104.5t-86.5 -70.5t-113.5 -25.5q-28 0 -49.5 8.5t-37.5 23.5t-26 35t-14 42q-28 -33 -56 -54.5 t-55 -33.5t-54 -16.5t-54 -4.5q-44 0 -76 13.5t-54.5 35.5t-36.5 52.5t-20 64.5t-6 69q0 36 6 70q12 66 35.5 122t59.5 98t85.5 66t113.5 24q27 0 52.5 -6t47.5 -19t40 -34t28 -52q4 24 10.5 48.5t9.5 47.5h56l-74 -407q-6 -31 -6 -60q0 -18 4 -33t13 -26.5t25 -18t40 -6.5 q34 0 62.5 11.5t52 31t41.5 46.5t31 58t20 65t7 67q2 66 -12 126.5t-43 112.5t-71 94.5t-94 72.5t-114 46.5t-130 16.5q-65 0 -126.5 -19t-115.5 -52t-99 -79t-78 -100t-53 -115t-24 -125q-4 -68 11 -130t46 -116.5t75 -99t98 -76.5t114.5 -49.5t124.5 -17.5q39 0 80.5 7 t82 20t77.5 31.5t69 41.5l35 -47q-36 -27 -76.5 -47t-84.5 -33.5t-90.5 -19.5t-92.5 -6q-72 0 -140.5 19t-129.5 54t-110.5 85t-84 110t-51.5 130q-17 68 -13 144zM424 409q2 -29 10 -55.5t25 -46t45 -31.5t68 -12q52 0 91 22t66 58.5t44 83t25 94.5q4 25 6 54.5t-1 58.5 t-11 56.5t-24 49t-42 33.5q-24 12 -62 12q-37 0 -67 -10.5t-53.5 -29t-41.5 -44t-32 -55t-23 -60.5t-15 -63q-4 -27 -7 -56.5t-1 -58.5z" />
<glyph unicode="A" horiz-adv-x="854" d="M4 0l394 1034h61l391 -1034h-72l-94 252h-514l-94 -252h-72zM188 312h476l-236 638z" />
<glyph unicode="B" horiz-adv-x="942" d="M144 0v1034h374q65 0 121 -18t97 -51.5t64.5 -83t23.5 -113.5q0 -37 -9 -72.5t-29 -66.5t-51 -56t-75 -43q49 -16 83.5 -40t56.5 -57t32 -72t10 -83q0 -69 -22 -121t-63 -87t-99 -52.5t-130 -17.5h-384zM211 58h309q58 0 105 15t81 43.5t52 69t18 92.5t-18 92.5t-52 69 t-81 43.5t-105 15h-309v-440zM211 561h297q50 0 96 11.5t80 36.5t54 64t20 95q0 54 -20.5 93t-54 65t-76.5 38.5t-89 12.5h-307v-416z" />
<glyph unicode="C" horiz-adv-x="893" d="M102 516q0 72 2 134t12 115t31 98t60 83q50 48 111.5 72t129.5 24t126 -19t102 -56.5t73 -92t41 -122.5h-65q-12 53 -37 96.5t-60.5 74t-80.5 47.5t-99 17q-58 0 -108 -21.5t-92 -60.5q-19 -20 -32.5 -40.5t-22.5 -45t-14.5 -53.5t-8 -65.5t-3.5 -82t-1 -102.5 q0 -56 1 -102t3.5 -82t8 -65t14.5 -54t22.5 -45.5t32.5 -40.5q42 -37 92 -59q50 -23 108 -23q53 0 99 17t82 48t61 75q26 43 39 97h61q-12 -70 -42 -124.5t-74 -92t-102 -57.5t-124 -20t-129 23t-112 69q-40 42 -61.5 89.5t-31.5 102t-11 115.5t-1 129z" />
<glyph unicode="D" horiz-adv-x="973" d="M144 0v1034h358q79 0 137.5 -19t99.5 -52.5t67 -80.5t41 -102.5t20 -119.5t5 -130q0 -67 -4 -132.5t-18 -124.5t-39 -109t-66 -86t-100.5 -57t-142.5 -21h-358zM211 60h291q70 0 120 18t83.5 50.5t53 77t29.5 96.5t12.5 110t2.5 118t-3.5 116t-14.5 106t-32 91t-54 71 t-81.5 46.5t-115.5 16.5h-291v-917z" />
<glyph unicode="E" horiz-adv-x="846" d="M144 0v1034h644v-57h-577v-424h493v-59h-493v-434h577v-60h-644z" />
<glyph unicode="F" horiz-adv-x="790" d="M144 0v1034h626v-57h-559v-445h475v-57h-475v-475h-67z" />
<glyph unicode="G" horiz-adv-x="893" d="M100 411v68v39q0 59 1 106.5t3.5 86.5t8.5 71t16.5 59t26.5 50.5t38 46.5q51 52 116.5 79t135.5 27q66 0 124 -20t103 -58t75 -92t42 -120h-63q-13 53 -39 96.5t-62 74t-81 47.5t-99 17t-108 -23t-100 -71q-26 -28 -40.5 -60.5t-22 -76t-9.5 -102t-2 -138.5q0 -82 3 -142 t12 -105t25.5 -78t43.5 -62q40 -38 90 -61t108 -23q30 0 61 7.5t60 21t54 33t45 43.5q35 44 51 96q16 50 16 118v99h-279v59h342v-168q0 -79 -21 -139.5t-63 -108.5q-24 -27 -54 -48.5t-64 -37t-71 -24t-77 -8.5q-66 0 -128 24t-111 70q-27 28 -46 58.5t-31 63.5t-18 67.5 t-9 68.5t-3 69z" />
<glyph unicode="H" horiz-adv-x="1005" d="M144 0v1034h67v-481h581v481h68v-1034h-68v494h-581v-494h-67z" />
<glyph unicode="I" horiz-adv-x="375" d="M154 0v1034h67v-1034h-67z" />
<glyph unicode="J" horiz-adv-x="688" d="M14 78l46 45q17 -16 33.5 -29.5t37.5 -23.5t47 -15.5t62 -5.5q58 0 104 18.5t78 52.5t50 84t18 112v718h69v-718q0 -77 -22.5 -137.5t-64.5 -102.5t-101 -64t-131 -22q-70 0 -125 21t-101 67z" />
<glyph unicode="K" horiz-adv-x="917" d="M144 0v1034h67v-659l561 659h82l-326 -395l384 -639h-76l-354 594l-271 -314v-280h-67z" />
<glyph unicode="L" horiz-adv-x="780" d="M144 0v1034h67v-972h551v-62h-618z" />
<glyph unicode="M" horiz-adv-x="1179" d="M142 0v1030h54l398 -790l381 790h61v-1030h-68v774l3 115l-35 -82l-318 -649h-50l-332 659l-31 76l4 -119v-774h-67z" />
<glyph unicode="N" horiz-adv-x="1065" d="M144 0v1034h61l647 -922v922h68v-1034h-60l-649 922v-922h-67z" />
<glyph unicode="O" horiz-adv-x="895" d="M100 518q0 59 1 106.5t3.5 86.5t8.5 71t16.5 59t26.5 50.5t38 46.5q51 52 116.5 79t135.5 27q72 0 138 -27t116 -79q23 -23 39.5 -46.5t26.5 -50.5t16 -59t9 -71t3 -86.5v-106.5v-106.5t-3 -86.5t-9 -71t-16 -59t-26 -51t-40 -48q-50 -52 -116 -79t-138 -27 q-71 0 -136 28q-64 26 -116 78q-23 24 -38.5 48t-26 51t-16.5 59t-8.5 71t-3.5 86.5t-1 106.5zM166 518q0 -84 2 -144t10 -104t25 -76t45 -61q42 -38 92 -61t106 -23t107.5 22.5t91.5 61.5q29 30 46 62.5t25 76.5t10.5 103t2.5 143q0 56 -0.5 101t-3.5 81t-8.5 65t-15 54 t-23.5 45.5t-33 40.5q-40 39 -91.5 60.5t-107.5 21.5t-106 -21.5t-92 -60.5q-19 -20 -32.5 -40.5t-22.5 -45t-14.5 -53t-8 -65.5t-3.5 -82t-1 -101z" />
<glyph unicode="P" horiz-adv-x="876" d="M144 0v1034h372q69 0 127.5 -19t101.5 -56t67 -92t24 -127q0 -70 -24 -125t-67 -92t-101.5 -57t-127.5 -20h-305v-446h-67zM211 504h305q54 0 100.5 14.5t80 44t52.5 73.5t19 104t-19 105t-53 75t-80 44.5t-100 14.5h-305v-475z" />
<glyph unicode="Q" horiz-adv-x="895" d="M100 516q0 60 1 107.5t3.5 86.5t8.5 70.5t16.5 58.5t26.5 50.5t38 46.5q51 52 116.5 79t135.5 27q72 0 138 -27t116 -79q23 -23 39.5 -46.5t26.5 -50.5t16 -58.5t9 -70.5t3 -86.5v-107.5q0 -76 -1 -134.5t-8 -104t-19 -81.5t-35 -67l147 -139l-24 -23q-3 -6 -8.5 -11.5 t-11.5 -8.5l-146 135q-24 -22 -52 -40t-59 -30t-64 -18t-67 -6q-71 0 -135.5 27.5t-116.5 78.5q-23 24 -38.5 48t-26 51t-16.5 59t-8.5 71t-3.5 86.5t-1 106.5zM166 516q0 -84 2 -144t10 -104t25 -76t45 -61q42 -38 92 -61t106 -23q26 0 52.5 6t51.5 16.5t48 25.5t43 32 l-133 131l20 20q4 6 11.5 13t13.5 12l129 -127q16 26 25.5 57t14 71t6 92t1.5 120q0 56 -0.5 101t-3.5 81t-8.5 65t-15 54t-23.5 45.5t-33 40.5q-40 39 -91.5 60.5t-107.5 21.5t-106 -21.5t-92 -60.5q-19 -20 -32.5 -40.5t-22.5 -45t-14.5 -53t-8 -65.5t-3.5 -82t-1 -101z " />
<glyph unicode="R" horiz-adv-x="940" d="M144 0v1034h407q64 0 119.5 -17.5t95.5 -52t63 -85.5t23 -119q0 -54 -18 -100t-51.5 -82t-80 -60t-102.5 -34l262 -484h-78l-260 484h-313v-484h-67zM211 538h329q48 0 92.5 16t79 45t54.5 69.5t20 91.5q0 53 -18 93.5t-50 68.5t-75.5 42.5t-93.5 14.5h-338v-441z" />
<glyph unicode="S" horiz-adv-x="788" d="M49 121l49 53q35 -36 68.5 -59t69 -37.5t74 -20.5t83.5 -6q62 0 111 14.5t83.5 43t53.5 70t19 93.5q0 50 -17 87t-46 61t-67 39t-78 23l-118 16q-57 10 -105.5 31t-83.5 53.5t-55 77t-20 102.5q0 66 22 118.5t62.5 89t99 55.5t131.5 19q46 0 84.5 -6t73.5 -19t67 -33 t64 -48l-43 -47q-26 22 -52 39.5t-56 30t-65.5 19.5t-78.5 7q-56 0 -100.5 -15.5t-76.5 -44.5t-48.5 -70t-16.5 -91q0 -44 17.5 -78.5t47 -60t67 -42.5t77.5 -24l113 -19q63 -10 113 -29.5t85 -52t53.5 -78.5t18.5 -108q0 -66 -23.5 -118.5t-67.5 -90t-107.5 -57.5 t-143.5 -20q-56 0 -102 8t-86.5 25t-77.5 42t-72 58z" />
<glyph unicode="T" horiz-adv-x="747" d="M14 977v57h717v-57h-327v-977h-68v977h-322z" />
<glyph unicode="U" horiz-adv-x="950" d="M129 356v678h67v-678q0 -67 20 -122.5t56 -96.5t87.5 -63.5t115.5 -22.5q68 0 119.5 22.5t87 62.5t54.5 96q18 56 18 124v678h67v-678q0 -79 -23.5 -146t-68.5 -116t-109 -76.5t-145 -27.5q-80 0 -144 27.5t-109 76.5t-69 116.5t-24 145.5z" />
<glyph unicode="V" horiz-adv-x="858" d="M47 1034h69l314 -928l312 928h69l-350 -1034h-61z" />
<glyph unicode="W" horiz-adv-x="1294" d="M47 1034h67l228 -901l278 901h56l274 -903l228 903h69l-266 -1034h-53l-281 912l-279 -912h-54z" />
<glyph unicode="X" horiz-adv-x="780" d="M24 0l326 528l-303 506h78l264 -440l265 440h75l-299 -506l324 -528h-80l-285 467l-289 -467h-76z" />
<glyph unicode="Y" horiz-adv-x="798" d="M47 1034h76l279 -538l274 538h76l-320 -606v-428h-66v428z" />
<glyph unicode="Z" horiz-adv-x="821" d="M88 0v58l570 921h-548v55h625v-49l-569 -929h569v-56h-647z" />
<glyph unicode="[" horiz-adv-x="448" d="M156 -119v1387h219v-56h-156v-1278h156v-53h-219z" />
<glyph unicode="\" horiz-adv-x="526" d="M0 1268h66l460 -1387h-67z" />
<glyph unicode="]" horiz-adv-x="448" d="M76 -66h156v1278h-156v56h219v-1387h-219v53z" />
<glyph unicode="^" horiz-adv-x="811" d="M127 576l243 458h68l244 -458h-64l-214 399l-212 -399h-65z" />
<glyph unicode="_" horiz-adv-x="829" d="M0 -205h830v-43h-830v43z" />
<glyph unicode="`" horiz-adv-x="786" d="M221 1063h84l145 -217h-69q-39 56 -80 108.5t-80 108.5z" />
<glyph unicode="a" horiz-adv-x="760" d="M58 209q0 52 17 93t51 70t82 44q50 16 112 16h260v96q0 49 -13 87t-40 63.5t-71 39t-106 13.5q-38 0 -69 -5.5t-56.5 -16.5t-48 -28.5t-43.5 -41.5l-47 37q29 32 58.5 53t60.5 34t67 18t78 5q76 0 131 -16t91 -48.5t54 -79.5q17 -48 17 -108v-534h-63v96 q-23 -30 -49.5 -50t-57.5 -32t-65.5 -18t-73.5 -6q-61 0 -111.5 11.5t-87.5 37t-57 67.5t-20 103zM119 209q0 -83 52.5 -123.5t162.5 -40.5q50 0 94.5 13.5t78 40.5t53.5 69t20 100v107h-252q-105 0 -157 -40.5t-52 -125.5z" />
<glyph unicode="b" horiz-adv-x="807" d="M123 0v1128h63v-476q26 43 57 69.5t63 40.5t65 19t63 5q58 0 102 -15.5t77 -43t55 -65.5t36 -82t19.5 -93.5t5.5 -99.5t-6 -98.5t-19.5 -92.5t-35.5 -82t-55 -65.5t-77 -43t-102 -15.5q-32 0 -65 5.5t-65 20.5t-62 41.5t-56 67.5v-125h-63zM186 387q0 -41 5 -82t15 -79 t28 -70.5t45 -57t64.5 -38t86.5 -13.5q47 0 82.5 14t61.5 38.5t43 57.5t27.5 70.5t15 78.5t4.5 81q0 43 -4.5 85t-15 80t-28 70.5t-44.5 56t-64 37t-86 13.5q-47 0 -82.5 -13.5t-62 -38t-44 -57t-28 -70.5t-15 -80t-4.5 -83z" />
<glyph unicode="c" horiz-adv-x="702" d="M78 387q0 93 23 167t65 126t104 79t138 27q37 0 67.5 -5t59.5 -18t56 -34t56 -51q-6 -7 -11.5 -12t-10.5 -9.5l-10 -9t-11 -10.5q-24 28 -46.5 46t-45.5 28.5t-48.5 15t-55.5 4.5q-73 0 -124.5 -27t-83.5 -73.5t-46 -109.5t-14 -134q0 -70 14 -132.5t46 -108.5t83 -73.5 t125 -27.5q30 0 55 4t48 15t46 29.5t47 48.5l43 -40q-30 -33 -57 -54.5t-55 -34.5t-59 -18q-30 -5 -68 -5q-76 0 -138 28t-104 79.5t-65 125t-23 164.5z" />
<glyph unicode="d" horiz-adv-x="807" d="M78 387q0 50 6 99.5t19 93.5t35 82t55 65.5t77 42.5q42 16 100 16q32 0 65 -5t66 -19t63 -41t56 -69v476h64v-1128h-64v125q-26 -42 -55.5 -68t-62 -41t-66.5 -20.5t-66 -5.5q-57 0 -100.5 15.5t-75.5 43t-54.5 65.5t-36 82t-19.5 92.5t-6 98.5zM142 387q0 -40 4 -81 t14.5 -78.5t28 -70.5t43.5 -57.5t62 -38.5t83 -14q49 0 86 13.5t64 38t45 57t29 70.5t15 79t4 82q0 42 -4 83.5t-14.5 79.5t-28 70.5t-43.5 57t-62 38t-83 13.5q-49 0 -86 -13.5t-64 -37t-45 -56t-29 -70.5t-15 -80t-4 -85z" />
<glyph unicode="e" horiz-adv-x="766" d="M82 387q0 94 20 168t59 125.5t95 78.5t127 27q72 0 128.5 -25.5t95.5 -74t60 -119.5t21 -159v-29h-542q0 -80 16.5 -141.5t49.5 -104t82 -64.5q50 -22 114 -22q36 0 65 5.5t55.5 17t50 29t47.5 41.5q11 -11 22 -20q12 -8 22 -18q-28 -30 -55.5 -50.5t-59 -34.5 t-68.5 -20.5t-83 -6.5q-79 0 -139.5 26t-101 76t-61 124t-20.5 171zM146 430h476v20q0 30 -4 58q-6 38 -20 71t-34 61t-47 48t-61 31.5t-73 11.5q-40 0 -72.5 -12.5t-59 -33.5t-46 -50t-33 -63t-20 -70t-6.5 -72z" />
<glyph unicode="f" horiz-adv-x="405" d="M43 731v47h105v156q0 42 11 78t33 62t55 40t77 14h63v-53h-47q-68 0 -99.5 -36.5t-31.5 -102.5v-158h178v-47h-178v-731h-61v731h-105z" />
<glyph unicode="g" horiz-adv-x="801" d="M80 387q0 51 5 101t18 94t34.5 81.5t53.5 65t75.5 42.5t101.5 15q32 0 65 -5t65 -19t62 -40t54 -68v124h64v-840q0 -73 -21 -134.5t-61.5 -106t-99 -70t-134.5 -25.5q-43 0 -76.5 6.5t-63 18.5t-56 30t-54.5 42l44 41q22 -20 43 -35t46 -25.5t53 -15.5q28 -6 64 -6 q65 0 113 22.5t78.5 61t45.5 89.5t15 107v176q-30 -42 -60.5 -66.5t-62 -37t-62.5 -16.5t-61 -4q-58 0 -101 15.5t-75 43t-53.5 65t-34.5 81.5t-18.5 93t-5.5 99zM144 387q0 -42 3 -83.5t12 -79.5t25 -71t41 -57t61 -38q34 -13 82 -13q50 0 88 13.5t65 37.5t45 57t29 71 t15 79.5t4 83.5q0 43 -4.5 85t-15.5 81t-29.5 72t-45.5 57t-65 38q-38 13 -86 13q-46 0 -80 -13.5t-59 -37.5t-42 -57t-26 -71t-13 -81t-4 -86z" />
<glyph unicode="h" horiz-adv-x="817" d="M123 0v1128h63v-472q50 68 110 99t130 31q64 0 115 -19.5t87 -56.5t55 -90.5t19 -119.5v-500h-63v500q0 56 -15.5 98.5t-43 72t-67 45t-87.5 15.5q-49 0 -92.5 -19t-76.5 -52.5t-52 -79.5q-19 -44 -19 -98v-482h-63z" />
<glyph unicode="i" horiz-adv-x="362" d="M125 1075q0 12 4.5 22t11.5 17.5t17 11.5t20 4q11 0 21 -4t17.5 -11.5t12.5 -18t5 -21.5q0 -10 -5 -20t-12.5 -17.5t-17.5 -11.5t-21 -4q-10 0 -20 4t-17 11.5t-11.5 17.5t-4.5 20zM148 0v778h63v-778h-63z" />
<glyph unicode="j" horiz-adv-x="362" d="M-24 -318h44q38 0 63 9t40 27t21 44t6 62v954h63v-956q0 -44 -10.5 -79t-32.5 -60t-55 -38t-78 -13h-61v50zM127 1075q0 12 4.5 22t11.5 17.5t17 11.5t20 4q11 0 21 -4t17.5 -11.5t12.5 -18t5 -21.5q0 -10 -5 -20t-12.5 -17.5t-17.5 -11.5t-21 -4q-10 0 -20 4t-17 11.5 t-11.5 17.5t-4.5 20z" />
<glyph unicode="k" horiz-adv-x="766" d="M123 0v1128h63v-814l398 464h80l-244 -286l305 -492h-78l-272 444l-189 -221v-223h-63z" />
<glyph unicode="l" horiz-adv-x="377" d="M123 198v930h63v-928q0 -36 6 -62.5t21 -45t40 -27.5t63 -9h46v-56h-59q-46 0 -80 14t-56.5 40t-33 63t-10.5 81z" />
<glyph unicode="m" horiz-adv-x="1329" d="M123 0v778h63v-118q20 32 47 55t58 39t66 24t71 8q82 0 146 -40t104 -115q20 39 48 68t62 48.5t73 29t81 9.5q64 0 115 -20t86 -59t54 -95t19 -128v-484h-61v484q0 60 -14.5 106t-43.5 77t-70 47.5t-95 16.5q-51 0 -93 -18.5t-72.5 -51.5t-47.5 -79q-17 -44 -17 -98v-484 h-63v484q0 120 -57.5 183.5t-167.5 63.5q-50 0 -92 -18.5t-72 -51.5t-47 -79q-17 -44 -17 -98v-484h-63z" />
<glyph unicode="n" horiz-adv-x="817" d="M123 0v778h63v-118q22 32 50 56t58.5 39.5t64 23t67.5 7.5q64 0 115 -20t87 -58t55 -92t19 -120v-496h-63v496q0 58 -14.5 101.5t-42.5 73t-68.5 45t-93.5 15.5q-48 0 -90 -18.5t-74 -51.5t-51 -79q-19 -44 -19 -98v-484h-63z" />
<glyph unicode="o" horiz-adv-x="784" d="M80 387q0 50 7 99.5t21.5 93.5t38.5 82t58.5 65.5t79.5 43t104 15.5q58 0 104 -15.5t81 -43t59.5 -65.5t39.5 -82t22 -93.5t7 -99.5t-7 -98.5t-22.5 -92.5t-40 -82t-59.5 -65.5t-80.5 -43t-103.5 -15.5t-103.5 15.5t-79.5 43t-58 65.5t-39 82t-22 93t-7 98zM142 387 q0 -40 5 -81.5t16 -79.5t30 -71t46.5 -57.5t64.5 -38.5t85 -14q50 0 87.5 14t65.5 38.5t46 57.5t29 71t15.5 79t4.5 82t-4.5 82.5t-15.5 80t-29 71.5t-45.5 57.5t-65.5 38.5t-88 14q-49 0 -86.5 -14t-65 -38.5t-46 -57.5t-29.5 -71.5t-15.5 -80t-4.5 -82.5z" />
<glyph unicode="p" horiz-adv-x="807" d="M123 -350v1128h63v-124q26 42 56 67.5t62 40t65 19.5t65 5q58 0 102 -15t77 -42.5t55 -65t35.5 -81.5t19.5 -92.5t6 -98.5t-5.5 -99t-19.5 -93.5t-36 -82.5t-55 -65t-77 -43t-102 -16q-30 0 -63 5t-65 19.5t-63 41t-57 69.5v-477h-63zM186 391q0 -42 4.5 -83.5t15 -79.5 t28 -71t44 -57.5t62 -38.5t82.5 -14q49 0 86 13.5t64 37.5t44.5 56.5t28 71t15 80.5t4.5 85q0 40 -4.5 81t-15 78.5t-27.5 70.5t-43 57t-61.5 37.5t-82.5 13.5q-49 0 -86.5 -13.5t-64.5 -37.5t-45 -56.5t-28 -70t-15 -78.5t-5 -82z" />
<glyph unicode="q" horiz-adv-x="807" d="M78 391q0 50 6 98.5t19.5 92.5t36 81.5t54.5 65t76 42.5t100 15q32 0 66 -5t66.5 -19.5t62.5 -40.5q29 -25 55 -67v124h64v-1128h-64v477q-26 -43 -56 -69.5t-63 -41t-66 -19.5t-65 -5q-58 0 -101 16t-76 43t-55 65t-35 82.5t-19 93.5t-6 99zM142 391q0 -43 4 -85 t15 -80.5t29 -71t45 -56.5t64 -37.5t86 -13.5q47 0 83 14t62 38.5t43.5 57.5t28 71t14.5 80t4 83t-4 82t-15 78.5t-29 70t-45 56.5t-64 37.5t-86 13.5q-47 0 -83 -13.5t-62 -37.5t-43.5 -57t-28 -70.5t-14.5 -78.5t-4 -81z" />
<glyph unicode="r" horiz-adv-x="516" d="M123 0v778h63v-131q20 33 47.5 59t59 44t65 27t66.5 9q31 0 60.5 -5t53.5 -17l-38 -52q-18 11 -39 15t-43 4q-50 0 -92.5 -21.5t-73 -56.5t-48.5 -80t-18 -94v-479h-63z" />
<glyph unicode="s" horiz-adv-x="671" d="M49 90q7 7 12 13.5t10 12.5l10 12t11 14q88 -94 238 -95q54 0 95.5 11t70.5 32.5t44 53.5t15 73q0 64 -36 98q-35 33 -111 43l-119 12q-102 12 -156.5 62t-54.5 136q0 50 18 90.5t51 69t80 43.5t105 15q71 0 133.5 -18t110.5 -58l-46 -42q-44 32 -93 47.5t-105 15.5 q-46 0 -82 -11.5t-60.5 -32.5t-37.5 -51q-12 -30 -12 -68q0 -62 38.5 -96t114.5 -42l117 -14q42 -6 79 -17t65.5 -33t45 -57.5t16.5 -91.5q0 -53 -20 -95.5t-57 -72t-89.5 -45.5t-117.5 -16q-90 0 -159 24t-124 78z" />
<glyph unicode="t" horiz-adv-x="438" d="M37 731v47h107v248h63v-248h174v-47h-174v-533q0 -66 28 -104q29 -38 87 -38h59v-56h-59q-44 0 -77 15t-56 41.5t-34 63.5q-11 36 -11 80v531h-107z" />
<glyph unicode="u" horiz-adv-x="817" d="M112 282v496h64v-496q0 -58 15 -101.5t43 -73t69 -45t95 -15.5q48 0 89.5 18.5t73 51.5t49.5 78t18 100v483h64v-778h-64v116q-44 -63 -105.5 -93.5t-131.5 -30.5q-64 0 -115.5 20t-88 58t-56 92t-19.5 120z" />
<glyph unicode="v" d="M49 778h70l243 -714l244 714h70l-280 -778h-66z" />
<glyph unicode="w" horiz-adv-x="1181" d="M47 778h72l209 -712l231 712h65l232 -712l207 712h71l-245 -778h-68l-229 688l-230 -688h-67z" />
<glyph unicode="x" horiz-adv-x="655" d="M39 0l258 398l-246 380h76l203 -328l198 328h78l-246 -380l254 -398h-74l-210 342l-214 -342h-77z" />
<glyph unicode="y" d="M49 778h70l243 -714l244 714h70l-356 -991q-23 -66 -72.5 -101.5t-120.5 -35.5h-29v55h18q34 0 59 6.5t42.5 20.5t30 35.5t22.5 52.5l64 170z" />
<glyph unicode="z" horiz-adv-x="690" d="M76 0v66l481 655h-455v57h512v-68l-479 -654h479v-56h-538z" />
<glyph unicode="{" horiz-adv-x="491" d="M80 549v49h20q30 4 51 14t34 27t19 41q5 26 5 58v342q0 56 9 92t30.5 57t57.5 30q38 9 92 9h12v-56h-10q-44 0 -69.5 -4.5t-38 -19t-16.5 -41t-4 -70.5v-342q0 -28 -5.5 -51.5t-18 -43.5t-32.5 -37t-48 -31q28 -14 48 -30t32.5 -36t18 -43t5.5 -51v-342q0 -44 3 -71 t16 -41t39 -19t70 -5h10v-53h-12q-54 0 -91 8.5t-58.5 29.5t-30.5 57t-9 92v342q0 33 -5.5 57t-18.5 40.5t-34 26.5t-51 15h-20z" />
<glyph unicode="|" horiz-adv-x="491" d="M213 -119v1387h63v-1387h-63z" />
<glyph unicode="}" horiz-adv-x="491" d="M80 -66h10q44 0 70 5t38.5 19t15.5 41t3 71v342q0 28 5.5 51t17.5 43t32 36t50 30q-30 14 -50 31t-32 37t-17.5 43t-5.5 52v342q0 44 -3.5 70.5t-16.5 41t-38 19t-69 4.5h-10v56h12q54 0 90.5 -9t58 -30t30.5 -57t9 -92v-342q0 -32 6 -57t18 -42t33 -27t52 -14h21v-49 h-21q-31 -4 -52 -14.5t-33 -27t-18 -41t-6 -56.5v-342q0 -56 -9 -92t-30.5 -57t-58 -29.5t-90.5 -8.5h-12v53z" />
<glyph unicode="~" horiz-adv-x="811" d="M88 410q30 30 54 48t44 27t38 12t40 3q32 0 70 -13t78 -31q20 -9 38 -17t35 -14.5t33 -9.5t33 -3q16 0 30.5 2t29.5 10t32 22t39 36l37 -36q-31 -30 -54 -47t-43 -27t-37.5 -13t-37.5 -3q-17 0 -37 5t-41 12.5t-43 16.5q-21 10 -41 18q-37 17 -66 26.5t-59 9.5 q-18 0 -33 -2t-30 -10t-32 -21.5t-40 -35.5z" />
<glyph unicode="&#xa2;" horiz-adv-x="803" d="M112 534q0 74 19.5 136t55.5 108t87 74t115 37v111h49v-113q32 -1 61 -6.5t56.5 -17t53.5 -29.5q27 -18 51 -44q-11 -11 -20.5 -18.5t-21.5 -17.5q-22 22 -42 37t-42 25.5t-45 16t-51 7.5v-606q50 3 95 23.5t87 62.5l46 -42l-4 8q-24 -28 -50 -47.5t-53 -32t-57 -18.5 t-64 -8v-137h-49v139q-64 8 -115 36.5t-87 74t-55.5 106.5t-19.5 135zM176 534q0 -34 4.5 -66.5t15 -64t26.5 -58.5t40 -49.5t55 -38t72 -21.5v600q-58 -10 -98.5 -38t-65.5 -69t-37 -91t-12 -104z" />
<glyph unicode="&#xa3;" horiz-adv-x="772" d="M60 504v41h100v186q0 72 22 129.5t62.5 97.5t98.5 62t130 22q71 0 126 -20t101 -60l-44 -46q-17 14 -35 28t-39.5 24t-47.5 16.5t-61 6.5q-59 0 -105 -18.5t-78 -53.5t-48 -85t-16 -115v-174h239v-41h-239v-451h478v-53h-544v504h-100z" />
<glyph unicode="&#xa5;" horiz-adv-x="817" d="M60 1034h73l279 -538q68 132 137 268t139 270h70l-236 -450h168v-42h-190l-58 -114v-72h248v-40h-248v-316h-67v316h-250v40h250v72l-61 114h-189v42h170z" />
<glyph unicode="&#xa9;" horiz-adv-x="1315" d="M112 532q0 76 20 146t55.5 130.5t85.5 110t110.5 84.5t130.5 55q70 19 144 19q76 0 145.5 -19.5t130 -54.5t110 -84.5t85 -110t54.5 -130.5t19 -146q0 -75 -19 -144t-54.5 -129.5t-85 -110.5t-110 -86t-130.5 -55q-69 -19 -145 -19q-75 0 -144.5 19t-130 55t-110.5 86 t-85.5 110.5t-55.5 130t-20 143.5zM172 532q0 -66 17.5 -128t49.5 -116.5t76.5 -100t98.5 -78t116 -50.5t128 -18t128 18t116.5 50.5t99.5 78t77.5 100t50 116.5t17.5 128t-17.5 129t-50 118t-77.5 100t-99.5 78t-116.5 51t-128 18t-128 -18t-116 -51t-98.5 -78t-76.5 -100 t-49 -117q-18 -64 -18 -130zM402 532q0 63 15 119.5t47 98.5t82 67t118 25q30 0 55 -4.5t47 -13.5t43 -23t45 -33l-10 -10l-8 -8t-8.5 -9t-10.5 -10q-20 20 -38.5 31.5t-36.5 18.5t-37 9t-41 2q-60 0 -100 -21t-64 -56.5t-34 -83t-10 -99.5t10 -98.5t34 -82.5t64 -57.5 t100 -21.5q22 0 41 2.5t36.5 9t36 18.5t39.5 32l37 -37q-22 -18 -43.5 -31.5t-44 -22.5t-47.5 -13t-55 -4q-46 0 -83 11t-66 31t-50.5 48.5t-35.5 62.5t-21 73q-6 38 -6 80z" />
<glyph unicode="&#xab;" horiz-adv-x="850" d="M82 428l293 291v-78l-217 -213l217 -217v-74zM418 428l290 291v-78l-214 -213l214 -217v-74z" />
<glyph unicode="&#xad;" horiz-adv-x="667" d="M133 398v56h401v-56h-401z" />
<glyph unicode="&#xae;" horiz-adv-x="1315" d="M112 532q0 76 20 146t55.5 130.5t85.5 110t110.5 84.5t130.5 55q70 19 144 19q76 0 145.5 -19.5t130 -54.5t110 -84.5t85 -110t54.5 -130.5t19 -146q0 -75 -19 -144t-54.5 -129.5t-85 -110.5t-110 -86t-130.5 -55q-69 -19 -145 -19q-75 0 -144.5 19t-130 55t-110.5 86 t-85.5 110.5t-55.5 130t-20 143.5zM170 532q0 -66 17.5 -128t49.5 -117t76.5 -100.5t99 -78t116.5 -50.5q63 -19 129 -19q67 0 129 18.5t116.5 51t99.5 78t77 100.5t49.5 117t17.5 128q0 67 -17.5 130t-49.5 117.5t-77 100.5t-99.5 78t-117 50t-128.5 18t-128.5 -18 t-117 -50t-99 -78t-76.5 -100.5t-49.5 -117t-17.5 -130.5zM494 238v594h186q36 0 69 -13t58 -36.5t39 -55.5q14 -31 14 -69q0 -31 -10.5 -56.5t-29 -45.5t-44 -35t-55.5 -25l149 -258h-63l-149 252h-113v-252h-51zM545 536h127q29 0 54 9.5t43.5 25.5t29 38.5t10.5 48.5 q0 28 -10.5 51t-29 40.5t-44 27t-53.5 9.5h-127v-250z" />
<glyph unicode="&#xbb;" horiz-adv-x="850" d="M144 137v74l214 217l-214 213v78l288 -291zM475 137v74l217 217l-217 213v78l293 -291z" />
<glyph unicode="&#xbc;" horiz-adv-x="1167" d="M82 882v54l112 98h60v-614h-51v569zM272 0l498 1034h64l-498 -1034h-64zM698 98v48l232 472h57l-235 -478h206v178h52v-178h80v-42h-80v-98h-52v98h-260z" />
<glyph unicode="&#xbd;" horiz-adv-x="1167" d="M82 882v54l112 98h60v-614h-51v569zM250 0l498 1034h61l-495 -1034h-64zM740 0v47l256 315q20 23 28 45.5t8 46.5q0 28 -8 51t-23.5 39t-37.5 25q-21 9 -49 9q-23 0 -44.5 -6t-38.5 -19t-27 -35q-12 -22 -12 -55h-52q2 35 15 64.5t35.5 50.5t53.5 32q32 12 70 12 q39 0 70.5 -11.5t54 -33.5t35.5 -53q12 -32 12 -70q0 -31 -13 -62.5t-39 -61.5l-238 -287h290v-43h-346z" />
<glyph unicode="&#xbe;" horiz-adv-x="1167" d="M68 565h55q4 -30 17 -50.5t31.5 -32.5t40 -17.5t42.5 -5.5q28 0 52 8.5t42 24.5t27.5 41t9.5 57q0 28 -8 51t-24.5 39t-42 25.5t-60.5 9.5h-4v41h4q32 0 56 8t39 24t23 38q7 22 7 50q0 29 -10 51.5t-27 37.5t-39.5 23t-46.5 8q-22 0 -43 -7t-38 -19.5t-28 -31t-14 -43.5 h-51q5 32 20.5 59.5t38.5 46.5t52.5 30t62.5 11q39 0 71.5 -11t55.5 -32.5t36 -52t13 -68.5q0 -20 -4 -40t-13 -38.5t-25 -35t-42 -29.5q28 -10 46.5 -25.5t29 -34.5t14.5 -41t4 -44q0 -46 -14 -79t-39 -54t-58.5 -31t-72.5 -10q-36 0 -67.5 9t-56.5 28t-41.5 47t-20.5 65z M383 0q64 130 125.5 259l123 258l123 258t125.5 259h62l-498 -1034h-61zM733 144q58 119 117 238q58 118 114 236h58l-232 -478h206v178h52v-178h76v-42h-76v-98h-52v98h-261v48z" />
<glyph unicode="&#xd7;" horiz-adv-x="829" d="M127 176l250 250l-250 250l39 36l248 -247l250 247l38 -36l-250 -250l250 -250l-38 -39l-250 250l-248 -250q-12 10 -20 19.5t-19 19.5z" />
<glyph unicode="&#xf7;" horiz-adv-x="811" d="M84 398v56h639v-56h-639zM342 158q0 13 5 24t13 19.5t19 13t25 4.5q13 0 24 -4.5t19.5 -13t13 -20t4.5 -23.5q0 -13 -4.5 -24.5t-13 -19.5t-20 -13t-23.5 -5q-13 0 -24.5 5t-19.5 13t-13 19.5t-5 24.5zM342 690q0 13 5 24.5t13 20.5t19 14t25 5q13 0 24 -5t19.5 -14 t13 -20.5t4.5 -24.5q0 -12 -4.5 -23t-13 -20t-20 -14t-23.5 -5q-13 0 -24.5 5t-19.5 14t-13 20t-5 23z" />
<glyph unicode="&#x2000;" horiz-adv-x="682" />
<glyph unicode="&#x2001;" horiz-adv-x="1365" />
<glyph unicode="&#x2002;" horiz-adv-x="682" />
<glyph unicode="&#x2003;" horiz-adv-x="1365" />
<glyph unicode="&#x2004;" horiz-adv-x="455" />
<glyph unicode="&#x2005;" horiz-adv-x="341" />
<glyph unicode="&#x2006;" horiz-adv-x="227" />
<glyph unicode="&#x2007;" horiz-adv-x="227" />
<glyph unicode="&#x2008;" horiz-adv-x="170" />
<glyph unicode="&#x2009;" horiz-adv-x="273" />
<glyph unicode="&#x200a;" horiz-adv-x="75" />
<glyph unicode="&#x2010;" horiz-adv-x="667" d="M133 398v56h401v-56h-401z" />
<glyph unicode="&#x2011;" horiz-adv-x="667" d="M133 398v56h401v-56h-401z" />
<glyph unicode="&#x2012;" horiz-adv-x="667" d="M133 398v56h401v-56h-401z" />
<glyph unicode="&#x2013;" horiz-adv-x="829" d="M84 398v54h660v-54h-660z" />
<glyph unicode="&#x2014;" horiz-adv-x="1405" d="M133 398v54h1141v-54h-1141z" />
<glyph unicode="&#x2018;" horiz-adv-x="420" d="M162 946v113l94 84v-197h-94z" />
<glyph unicode="&#x2019;" horiz-adv-x="420" d="M162 884v198h94v-111z" />
<glyph unicode="&#x201c;" horiz-adv-x="671" d="M162 946v113l94 84v-197h-94zM414 946v113l94 84v-197h-94z" />
<glyph unicode="&#x201d;" horiz-adv-x="671" d="M162 884v198h94v-111zM414 884v198h94v-111z" />
<glyph unicode="&#x2022;" horiz-adv-x="899" d="M274 418q0 36 14 68t38 56t56 38t68 14t68 -14t56 -38t38 -56t14 -68t-14 -68t-38 -56t-56 -38t-68 -14t-68 14t-56 38t-38 56t-14 68z" />
<glyph unicode="&#x202f;" horiz-adv-x="273" />
<glyph unicode="&#x205f;" horiz-adv-x="341" />
<glyph unicode="&#x20ac;" horiz-adv-x="925" d="M33 404v57h109v186h-109v55h111q3 42 8.5 75t16.5 61t27 52.5t40 47.5q50 52 115 79t137 27q66 0 122 -19t100 -56t74 -91t44 -124h-64q-12 54 -37 98t-61 74t-81 46.5t-97 16.5q-58 0 -110 -21q-52 -22 -92 -58q-18 -20 -31 -41t-22.5 -45.5t-15 -54t-8.5 -67.5h283v-55 h-287v-186h287v-57h-287q0 -54 4.5 -95t14 -73t25 -57.5t37.5 -49.5q40 -42 92 -63t110 -21q53 0 98.5 17t81.5 48t62 75q26 43 38 97h60q-14 -68 -45 -122t-75 -92t-100 -58t-120 -20q-73 0 -139 28q-65 26 -115 78q-28 27 -46 56.5t-28 65.5t-14 81t-4 105h-109z" />
<glyph unicode="&#x2122;" horiz-adv-x="1245" d="M60 989v45h428v-45h-187v-561h-57v561h-184zM618 428v606h56l208 -401l208 401h55v-606h-55v504l-15 -33l-163 -311h-60l-164 311l-14 33v-504h-56z" />
<glyph unicode="&#x25fc;" horiz-adv-x="777" d="M0 0v778h778v-778h-778z" />
</font>
</defs>
</svg>
