<?xml version="1.0" standalone="no"?>
<!DOCTYPE svg PUBLIC "-//W3C//DTD SVG 1.1//EN" "http://www.w3.org/Graphics/SVG/1.1/DTD/svg11.dtd" >
<svg>
<metadata>
Created by FontForge 20120731 at Tue Mar 15 11:24:57 2016
 By ,,,
Copyright (c) 2015, Cadson Demak (info@cadsondemak.com)
</metadata>
<defs>
<font id="Kanit-Regular" horiz-adv-x="0" >
  <font-face 
    font-family="Kanit"
    font-weight="400"
    font-stretch="normal"
    units-per-em="1000"
    panose-1="0 0 5 0 0 0 0 0 0 0"
    ascent="750"
    descent="-250"
    x-height="474"
    cap-height="644"
    bbox="-594 -351 1157 1061"
    underline-thickness="50"
    underline-position="-50"
    unicode-range="U+000D-FB02"
  />
<missing-glyph horiz-adv-x="487" 
d="M37 0v714h411v-714h-411zM88 51h309v612h-309v-612z" />
    <glyph glyph-name="fi" unicode="fi" horiz-adv-x="530" 
d="M92 0v389h-69v85h69v49q0 74 52 120.5t137 46.5q75 0 117 -17v-81q-27 12 -85 12t-85.5 -20t-27.5 -63v-47h267v-474h-109v389h-158v-389h-108z" />
    <glyph glyph-name="fl" unicode="fl" horiz-adv-x="530" 
d="M92 0v389h-69v85h69v51q0 70 46 115.5t124 49.5q64 2 115 -15h90v-675h-109v389h-158v-389h-108zM200 474h158v123q-27 9 -62 9q-96 0 -96 -84v-48z" />
    <glyph glyph-name="ru_lakkhangyaothai" unicode="&#xe24;&#xe45;" horiz-adv-x="881" 
d="M612 550q108 0 156.5 -47t48.5 -149v-514h-109v500q0 65 -23.5 93.5t-93.5 28.5q-36 0 -68 -7q26 -47 26 -120v-495h-109v498q0 69 -32 96.5t-110 27.5q-105 0 -161 -51v-18l114 -29v-72q-39 -10 -55 -32t-16 -66v-65q0 -23 10 -33t32 -10h55v-86h-108q-45 0 -71 28
t-26 73v94q0 100 79 124l-108 27v112q104 92 259 92q96 0 153 -30q71 30 157 30z" />
    <glyph glyph-name="lu_lakkhangyaothai" unicode="&#xe26;&#xe45;" horiz-adv-x="919" 
d="M650 550q108 0 156.5 -47t48.5 -149v-514h-109v500q0 65 -23.5 93.5t-93.5 28.5q-28 0 -72 -7q26 -49 26 -120v-495h-108v498q0 68 -31 96t-105 28q-107 0 -161 -51v-18l117 -29v-72q-37 -11 -49.5 -31.5t-12.5 -66.5v-72q0 -122 -118 -122h-67v86h37q21 0 29.5 9.5
t8.5 32.5v67q0 48 15 78.5t56 45.5l-110 27v112q102 92 258 92q92 0 150 -31v1q71 30 158 30z" />
    <glyph glyph-name=".notdef" horiz-adv-x="487" 
d="M37 0v714h411v-714h-411zM88 51h309v612h-309v-612z" />
    <glyph glyph-name=".null" horiz-adv-x="500" 
 />
    <glyph glyph-name="nonmarkingreturn" horiz-adv-x="333" 
 />
    <glyph glyph-name="CR" unicode="&#xd;" horiz-adv-x="400" 
 />
    <glyph glyph-name="space" unicode=" " horiz-adv-x="370" 
 />
    <glyph glyph-name="exclam" unicode="!" horiz-adv-x="203" 
d="M53 161l-6 322v161h109v-161l-6 -322h-97zM43 0v82h116v-82h-116z" />
    <glyph glyph-name="quotedbl" unicode="&#x22;" horiz-adv-x="341" 
d="M43 455v189h94l-13 -189h-81zM203 455v189h94l-13 -189h-81z" />
    <glyph glyph-name="numbersign" unicode="#" horiz-adv-x="702" 
d="M73 0l54 172h-84v73h107l48 153h-109v74h132l54 172h94l-54 -172h169l54 172h95l-54 -172h80v-74h-104l-48 -153h106v-73h-129l-54 -172h-94l54 172h-170l-54 -172h-93zM243 245h170l48 153h-170z" />
    <glyph glyph-name="dollar" unicode="$" horiz-adv-x="555" 
d="M239 -86v76q-116 3 -182 32v96q89 -35 182 -36v206q-4 0 -8 2q-104 27 -146 68.5t-42 114.5q0 76 50 122t146 56v79h82v-77q90 -4 152 -25v-96q-70 26 -152 29v-198q107 -29 149 -74.5t42 -116.5q0 -75 -48.5 -121t-142.5 -57v-80h-82zM239 386v170q-86 -16 -86 -83
q0 -34 18.5 -52.5t67.5 -34.5zM321 87q81 13 81 85q0 35 -18 55t-63 37v-177z" />
    <glyph glyph-name="percent" unicode="%" horiz-adv-x="727" 
d="M185 360q-69 0 -105.5 38t-36.5 102q0 73 36 113.5t106 40.5q69 0 105 -40.5t36 -113.5q0 -64 -36.5 -102t-104.5 -38zM141 0l341 644h102l-341 -644h-102zM185 426q73 0 73 76q0 44 -17.5 64.5t-55.5 20.5t-55.5 -20.5t-17.5 -64.5q0 -76 73 -76zM543 -10
q-69 0 -105.5 38t-36.5 102q0 73 36 113.5t106 40.5q69 0 105 -40.5t36 -113.5q0 -64 -36.5 -102t-104.5 -38zM543 56q73 0 73 76q0 44 -17.5 64.5t-55.5 20.5t-55.5 -20.5t-17.5 -64.5q0 -76 73 -76z" />
    <glyph glyph-name="ampersand" unicode="&#x26;" horiz-adv-x="668" 
d="M273 -10q-105 0 -167.5 45.5t-62.5 121.5q0 65 38 112t113 88q-44 39 -65 72.5t-21 76.5q0 65 45.5 106.5t123.5 41.5q77 0 122 -40.5t45 -107.5q0 -51 -24.5 -88t-80.5 -74l148 -151q16 34 16 80v17h83v-19q0 -80 -37 -138l81 -82l-66 -60l-72 72q-70 -73 -219 -73z
M271 391q48 31 66.5 52.5t18.5 57.5q0 76 -79 76q-41 0 -61 -21t-20 -55q0 -30 17.5 -54t57.5 -56zM273 66q100 0 153 57l-167 169q-57 -24 -84 -55.5t-27 -77.5q0 -45 34.5 -69t90.5 -24z" />
    <glyph glyph-name="quotesingle" unicode="'" horiz-adv-x="181" 
d="M43 455v189h94l-13 -189h-81z" />
    <glyph glyph-name="parenleft" unicode="(" horiz-adv-x="325" 
d="M178 -72q-70 61 -102.5 161.5t-32.5 213.5t32.5 213t102.5 162h123q-148 -128 -148 -375t148 -375h-123z" />
    <glyph glyph-name="parenright" unicode=")" horiz-adv-x="325" 
d="M23 -72q148 127 148 375t-148 375h124q69 -62 101.5 -162.5t32.5 -212.5q0 -113 -32.5 -213.5t-101.5 -161.5h-124z" />
    <glyph glyph-name="asterisk" unicode="*" horiz-adv-x="432" 
d="M134 323l-64 47l89 97l-116 48l34 68l102 -50l-5 111h84l-5 -111l102 50l33 -68l-116 -48l89 -97l-64 -47l-81 107z" />
    <glyph glyph-name="plus" unicode="+" horiz-adv-x="473" 
d="M193 86v141h-147v85h147v146h87v-146h147v-85h-147v-141h-87z" />
    <glyph glyph-name="comma" unicode="," horiz-adv-x="211" 
d="M43 -120l30 189h95l-46 -189h-79z" />
    <glyph glyph-name="hyphen" unicode="-" horiz-adv-x="468" 
d="M43 227v85h382v-85h-382z" />
    <glyph glyph-name="period" unicode="." horiz-adv-x="179" 
d="M43 0v85h92v-85h-92z" />
    <glyph glyph-name="slash" unicode="/" horiz-adv-x="431" 
d="M43 0l234 662h111l-234 -662h-111z" />
    <glyph glyph-name="zero" unicode="0" horiz-adv-x="651" 
d="M326 -18q-148 0 -215.5 85t-67.5 247q0 168 66 254t217 86q150 0 216 -86t66 -254q0 -162 -67.5 -247t-214.5 -85zM326 75q92 0 132 61t40 178q0 125 -39 186t-133 61q-95 0 -134 -61t-39 -186q0 -118 40 -178.5t133 -60.5z" />
    <glyph glyph-name="one" unicode="1" horiz-adv-x="319" 
d="M147 0v548l-104 -18v91l212 33v-654h-108z" />
    <glyph glyph-name="two" unicode="2" horiz-adv-x="509" 
d="M43 0v54q39 91 172 205q86 75 110.5 108t24.5 88q0 53 -31 79.5t-99 26.5q-73 0 -153 -30v96q79 27 174 27q106 0 162 -52.5t56 -145.5q0 -44 -17.5 -82.5t-41 -65.5t-66.5 -65q-3 -3 -22 -19t-23.5 -20t-20 -18.5t-21.5 -20.5t-18 -18.5t-18.5 -21t-14.5 -19.5t-14 -22
h284v-84h-423z" />
    <glyph glyph-name="three" unicode="3" horiz-adv-x="519" 
d="M226 -10q-111 0 -183 29v95q75 -31 168 -31q80 0 117 23.5t37 80.5q0 98 -133 98h-97l9 81h81q127 0 127 100q0 49 -34 72t-107 23q-84 0 -156 -30v93q75 30 173 30q114 0 173.5 -48.5t59.5 -129.5q0 -51 -24.5 -92t-72.5 -58q111 -29 111 -146q0 -94 -66.5 -142
t-182.5 -48z" />
    <glyph glyph-name="four" unicode="4" horiz-adv-x="543" 
d="M345 0v141h-322v77l335 426h95v-415h66v-88h-66v-141h-108zM129 226h233v294z" />
    <glyph glyph-name="five" unicode="5" horiz-adv-x="515" 
d="M225 -10q-114 0 -179 29v95q73 -31 165 -31q78 0 114 27t36 87q0 58 -27.5 84t-100.5 26h-190v66l17 271h366l-9 -84h-265l-11 -169h109q114 0 167.5 -48.5t53.5 -147.5q0 -97 -63 -151t-183 -54z" />
    <glyph glyph-name="six" unicode="6" horiz-adv-x="573" 
d="M287 -10q-122 0 -183 60.5t-61 188.5v145q0 121 74 195.5t198 74.5q89 0 153 -23v-93q-63 23 -146 23q-88 0 -132 -41.5t-44 -114.5v-40q70 51 163 51q221 0 221 -211q0 -100 -61 -157.5t-182 -57.5zM288 72q71 0 107.5 34t36.5 95q0 66 -31 98.5t-108 32.5
q-79 0 -147 -49v-69q0 -142 142 -142z" />
    <glyph glyph-name="seven" unicode="7" horiz-adv-x="498" 
d="M110 0l237 560h-314v84h431v-70l-243 -574h-111z" />
    <glyph glyph-name="eight" unicode="8" horiz-adv-x="590" 
d="M295 -10q-252 0 -252 184q0 56 30 98.5t84 60.5q-48 18 -72 54.5t-24 82.5q0 86 59 135t175 49q118 0 176 -48.5t58 -135.5q0 -108 -101 -146q118 -35 118 -150q0 -184 -251 -184zM322 358q56 14 81 38.5t25 71.5q0 100 -133 100t-133 -100q0 -79 89 -96zM295 75
q150 0 150 101q0 45 -25 67t-83 34l-82 17q-55 -12 -83 -38.5t-28 -77.5q0 -103 151 -103z" />
    <glyph glyph-name="nine" unicode="9" horiz-adv-x="573" 
d="M258 -10q-87 0 -153 22v94q62 -24 146 -24q88 0 132 41.5t44 115.5v40q-71 -51 -163 -51q-221 0 -221 211q0 99 61 157t182 58q244 0 244 -249v-145q0 -121 -74 -195.5t-198 -74.5zM280 311q77 0 147 49v70q0 141 -142 141q-71 0 -107.5 -34t-36.5 -95q0 -65 31 -98
t108 -33z" />
    <glyph glyph-name="colon" unicode=":" horiz-adv-x="179" 
d="M43 326v86h92v-86h-92zM43 25v86h92v-86h-92z" />
    <glyph glyph-name="semicolon" unicode=";" horiz-adv-x="212" 
d="M76 326v86h91v-86h-91zM43 -112l30 189h95l-46 -189h-79z" />
    <glyph glyph-name="less" unicode="&#x3c;" horiz-adv-x="544" 
d="M501 46l-458 209v89l458 208v-101l-343 -151l343 -152v-102z" />
    <glyph glyph-name="equal" unicode="=" horiz-adv-x="473" 
d="M43 308v77h386v-77h-386zM43 154v78h386v-78h-386z" />
    <glyph glyph-name="greater" unicode="&#x3e;" horiz-adv-x="544" 
d="M43 46v102l344 152l-344 151v101l458 -208v-89z" />
    <glyph glyph-name="question" unicode="?" horiz-adv-x="495" 
d="M154 162v22q0 28 8.5 51.5t29.5 46.5t32 33t41 34q38 31 57 56t19 58q0 53 -31.5 75.5t-108.5 22.5q-82 0 -158 -36v92q76 37 186 37q108 0 165 -48t57 -135q0 -52 -23 -85.5t-74 -75.5q-4 -3 -17.5 -14.5t-16.5 -14t-13.5 -12t-13.5 -13.5t-10 -12.5t-9 -14t-5.5 -14.5
t-4.5 -17.5t-1 -18.5v-17h-109zM150 0v82h116v-82h-116z" />
    <glyph glyph-name="at" unicode="@" horiz-adv-x="764" 
d="M390 -132q-160 0 -253.5 76.5t-93.5 243.5q0 171 93 254t265 83q155 0 237 -70.5t82 -201.5q0 -99 -46 -154t-139 -55h-31q-55 -53 -151 -53q-63 0 -101.5 31t-38.5 88q0 58 36 92t113 34h120v22q0 46 -21 63t-81 17q-63 0 -121 -20v56q51 22 139 22q80 0 117.5 -34
t37.5 -108v-147q45 0 65.5 34.5t20.5 108.5q0 103 -58 153t-180 50q-140 0 -208 -63t-68 -203q0 -134 69 -191t194 -57q110 0 173 19v-72q-76 -18 -171 -18zM371 47q73 0 111 48v87h-105q-49 0 -68.5 -18t-19.5 -54q0 -34 20 -48.5t62 -14.5z" />
    <glyph glyph-name="A" unicode="A" horiz-adv-x="700" 
d="M44 0l246 644h122l244 -644h-112l-64 166h-259l-64 -166h-113zM238 250h224l-112 295z" />
    <glyph glyph-name="B" unicode="B" horiz-adv-x="631" 
d="M63 0v644h312q188 0 188 -172q0 -102 -77 -141q102 -30 102 -145q0 -186 -199 -186h-326zM172 369h188q102 0 102 94q0 52 -25 75.5t-89 23.5h-176v-193zM172 80h194q59 0 85.5 25t26.5 85q0 51 -27.5 75t-95.5 24h-183v-209z" />
    <glyph glyph-name="C" unicode="C" horiz-adv-x="597" 
d="M365 -10q-156 0 -239 85.5t-83 236.5q0 163 80 252.5t241 89.5q101 0 189 -31v-95q-85 33 -181 33q-117 0 -168 -62t-51 -187q0 -230 221 -230q99 0 180 31v-96q-86 -27 -189 -27z" />
    <glyph glyph-name="D" unicode="D" horiz-adv-x="649" 
d="M63 0v644h261q145 0 213 -77t68 -249q0 -165 -68 -241.5t-213 -76.5h-261zM172 84h135q50 0 83 10t58 35.5t36.5 71.5t11.5 117q0 138 -42.5 189.5t-146.5 51.5h-135v-475z" />
    <glyph glyph-name="E" unicode="E" horiz-adv-x="550" 
d="M63 0v644h449v-85h-340v-195h303v-84h-303v-196h340v-84h-449z" />
    <glyph glyph-name="F" unicode="F" horiz-adv-x="524" 
d="M63 0v644h438v-85h-329v-195h292v-84h-292v-280h-109z" />
    <glyph glyph-name="G" unicode="G" horiz-adv-x="641" 
d="M363 -10q-156 0 -238 84.5t-82 234.5q0 163 81 254t242 91q107 0 191 -29v-94q-82 30 -182 30q-119 0 -170.5 -62.5t-51.5 -189.5q0 -227 213 -227q86 0 139 20v180h-161v71h254v-310q-82 -53 -235 -53z" />
    <glyph glyph-name="H" unicode="H" horiz-adv-x="654" 
d="M63 0v644h109v-280h310v280h109v-644h-109v280h-310v-280h-109z" />
    <glyph glyph-name="I" unicode="I" horiz-adv-x="235" 
d="M63 0v644h109v-644h-109z" />
    <glyph glyph-name="J" unicode="J" horiz-adv-x="431" 
d="M163 -10q-82 0 -140 23v92q53 -23 121 -23q66 0 93 27t27 89v446h109v-464q0 -93 -53 -141.5t-157 -48.5z" />
    <glyph glyph-name="K" unicode="K" horiz-adv-x="625" 
d="M63 0v644h109v-296l274 296h126l-237 -260l247 -384h-116l-199 315l-95 -102v-213h-109z" />
    <glyph glyph-name="L" unicode="L" horiz-adv-x="525" 
d="M63 0v644h109v-560h330v-84h-439z" />
    <glyph glyph-name="M" unicode="M" horiz-adv-x="757" 
d="M63 0v644h112l204 -417l203 417h112v-644h-108v467l-174 -356h-66l-175 356v-467h-108z" />
    <glyph glyph-name="N" unicode="N" horiz-adv-x="667" 
d="M63 0v644h96l336 -474v474h108v-644h-96l-335 473v-473h-109z" />
    <glyph glyph-name="O" unicode="O" horiz-adv-x="697" 
d="M348 -10q-154 0 -229.5 80.5t-75.5 249.5q0 174 75 254t230 80t230 -80t75 -254q0 -169 -75.5 -249.5t-229.5 -80.5zM348 82q102 0 149 56t47 182q0 131 -46.5 186t-149.5 55q-102 0 -148.5 -55t-46.5 -186q0 -125 47 -181.5t148 -56.5z" />
    <glyph glyph-name="P" unicode="P" horiz-adv-x="590" 
d="M63 0v644h287q107 0 161.5 -59t54.5 -156q0 -96 -59.5 -154t-160.5 -58h-174v-217h-109zM172 303h154q63 0 97 33.5t34 92.5q0 62 -32 96t-94 34h-159v-256z" />
    <glyph glyph-name="Q" unicode="Q" horiz-adv-x="697" 
d="M441 -172q-145 0 -148 165q-126 14 -188 94t-62 233q0 174 75 254t230 80t230 -80t75 -254q0 -157 -65 -237t-198 -91q1 -46 17.5 -63.5t56.5 -17.5q36 0 71 10v-81q-38 -12 -94 -12zM348 82q102 0 149 56t47 182q0 131 -46.5 186t-149.5 55q-102 0 -148.5 -55
t-46.5 -186q0 -125 47 -181.5t148 -56.5z" />
    <glyph glyph-name="R" unicode="R" horiz-adv-x="610" 
d="M63 0v644h296q105 0 156 -54t51 -152q0 -69 -34.5 -116.5t-97.5 -66.5q27 -19 48 -68l81 -187h-112l-79 180q-12 27 -28 37.5t-51 10.5h-121v-228h-109zM172 316h158q127 0 127 122q0 121 -117 121h-168v-243z" />
    <glyph glyph-name="S" unicode="S" horiz-adv-x="555" 
d="M258 -10q-125 0 -201 32v96q93 -36 191 -36q81 0 117.5 19t36.5 71q0 47 -34.5 69.5t-136.5 48.5q-104 27 -146 68.5t-42 114.5q0 86 63 133.5t184 47.5q107 0 183 -26v-96q-76 29 -168 29q-76 0 -114 -20t-38 -68q0 -42 31.5 -62.5t126.5 -44.5q113 -29 157 -75t44 -119
q0 -86 -64.5 -134t-189.5 -48z" />
    <glyph glyph-name="T" unicode="T" horiz-adv-x="568" 
d="M230 0v559h-206v85h520v-85h-205v-559h-109z" />
    <glyph glyph-name="U" unicode="U" horiz-adv-x="674" 
d="M338 -10q-134 0 -207 64t-73 185v405h109v-401q0 -80 44 -120.5t127 -40.5q82 0 126 40.5t44 120.5v401h108v-405q0 -121 -72.5 -185t-205.5 -64z" />
    <glyph glyph-name="V" unicode="V" horiz-adv-x="700" 
d="M290 0l-246 644h113l193 -527l193 527h113l-244 -644h-122z" />
    <glyph glyph-name="W" unicode="W" horiz-adv-x="869" 
d="M194 0l-150 644h107l109 -483l122 405v78h89l137 -483l111 483h106l-149 -644h-107l-129 451l-137 -451h-109z" />
    <glyph glyph-name="X" unicode="X" horiz-adv-x="677" 
d="M43 0l230 321l-225 323h126l164 -239l164 239h127l-226 -323l230 -321h-128l-167 236l-167 -236h-128z" />
    <glyph glyph-name="Y" unicode="Y" horiz-adv-x="656" 
d="M274 0v239l-231 405h113l172 -313l172 313h113l-231 -405v-239h-108z" />
    <glyph glyph-name="Z" unicode="Z" horiz-adv-x="575" 
d="M43 0v58l346 497h-329v89h469v-67l-343 -493h348v-84h-491z" />
    <glyph glyph-name="bracketleft" unicode="[" horiz-adv-x="351" 
d="M43 -99v805h271l3 -85h-165v-636h166l-4 -84h-271z" />
    <glyph glyph-name="backslash" unicode="\" horiz-adv-x="451" 
d="M296 -54l-253 716h112l252 -716h-111z" />
    <glyph glyph-name="bracketright" unicode="]" horiz-adv-x="351" 
d="M37 -99l-4 84h166v636h-165l3 85h271v-805h-271z" />
    <glyph glyph-name="asciicircum" unicode="^" horiz-adv-x="476" 
d="M43 387l153 237h79l157 -237h-101l-93 158l-93 -158h-102z" />
    <glyph glyph-name="underscore" unicode="_" horiz-adv-x="541" 
d="M43 -77v77h454v-77h-454z" />
    <glyph glyph-name="grave" unicode="`" horiz-adv-x="261" 
d="M128 522l-84 177h96l75 -177h-87z" />
    <glyph glyph-name="a" unicode="a" horiz-adv-x="547" 
d="M211 -10q-72 0 -120 37.5t-48 107.5t47.5 110.5t142.5 40.5h152v21q0 52 -26 72t-103 20q-84 0 -157 -25v81q73 29 177 29q213 0 213 -179v-305h-93l-7 48q-60 -58 -178 -58zM240 68q94 0 145 61v83h-150q-48 0 -69.5 -18t-21.5 -57q0 -69 96 -69z" />
    <glyph glyph-name="b" unicode="b" horiz-adv-x="582" 
d="M323 -10q-97 0 -160 57l-6 -47h-94v674h109v-231q62 41 149 41q218 0 218 -243q0 -126 -56.5 -188.5t-159.5 -62.5zM294 72q72 0 103.5 41t31.5 128t-32.5 123.5t-104.5 36.5q-74 0 -120 -41v-238q47 -50 122 -50z" />
    <glyph glyph-name="c" unicode="c" horiz-adv-x="493" 
d="M296 -10q-125 0 -189 63t-64 184q0 122 69 184.5t190 62.5q86 0 147 -29v-81q-52 26 -126 26q-85 0 -127.5 -38t-42.5 -125q0 -86 39.5 -125t128.5 -39q71 0 129 27v-83q-66 -27 -154 -27z" />
    <glyph glyph-name="d" unicode="d" horiz-adv-x="582" 
d="M259 -10q-216 0 -216 232q0 124 62.5 193t163.5 69q81 0 141 -41v231h109v-674h-93l-7 47q-63 -57 -160 -57zM288 72q73 0 122 50v237q-47 42 -118 42q-139 0 -139 -180q0 -83 31.5 -116t103.5 -33z" />
    <glyph glyph-name="e" unicode="e" horiz-adv-x="537" 
d="M303 -10q-126 0 -193 62t-67 186q0 117 59 181.5t175 64.5q105 0 161 -55t56 -147v-88h-347q8 -68 49 -94.5t129 -26.5q77 0 140 25v-80q-63 -28 -162 -28zM147 265h251v33q0 104 -118 104q-74 0 -103.5 -32t-29.5 -105z" />
    <glyph glyph-name="f" unicode="f" horiz-adv-x="350" 
d="M92 0v389h-69v85h69v58q0 72 40.5 115t116.5 43q51 0 97 -17v-78q-31 11 -63 11q-47 0 -65 -16.5t-18 -58.5v-57h124l-5 -85h-119v-389h-108z" />
    <glyph glyph-name="g" unicode="g" horiz-adv-x="554" 
d="M255 -176q-121 0 -196 26v84q79 -27 191 -27q76 0 107 8.5t31 35.5q0 21 -16.5 29.5t-60.5 8.5h-128q-129 0 -129 91q0 67 71 92q-80 39 -80 139q0 90 54 131.5t164 41.5q39 0 87 -10h174l-3 -71h-80q37 -33 37 -92q0 -78 -46.5 -120.5t-138.5 -42.5q-24 0 -59 5
q-32 -3 -55 -16.5t-23 -34.5q0 -28 52 -28h133q71 0 109.5 -30.5t38.5 -88.5q0 -69 -58.5 -100t-175.5 -31zM263 217q65 0 90.5 21.5t25.5 75.5t-26 77.5t-90 23.5q-62 0 -89.5 -23.5t-27.5 -77.5q0 -52 26.5 -74.5t90.5 -22.5z" />
    <glyph glyph-name="h" unicode="h" horiz-adv-x="578" 
d="M63 0v674h109v-246q70 56 171 56q90 0 133 -43t43 -134v-307h-108v302q0 55 -23.5 77t-81.5 22q-36 0 -73 -15.5t-61 -40.5v-345h-109z" />
    <glyph glyph-name="i" unicode="i" horiz-adv-x="308" 
d="M126 573v90h119v-90h-119zM135 0v391h-72l10 83h171v-474h-109z" />
    <glyph glyph-name="j" unicode="j" horiz-adv-x="306" 
d="M124 573v90h119v-90h-119zM89 -234q-58 0 -99 16v79q31 -10 61 -10q47 0 65.5 16.5t18.5 56.5v467h-72l10 83h170v-560q0 -69 -39.5 -108.5t-114.5 -39.5z" />
    <glyph glyph-name="k" unicode="k" horiz-adv-x="550" 
d="M63 0v674h109v-390l199 190h125l-193 -191l204 -283h-115l-157 225l-63 -60v-165h-109z" />
    <glyph glyph-name="l" unicode="l" horiz-adv-x="280" 
d="M181 -10q-60 0 -89 29t-29 94v561h109v-551q0 -27 9.5 -37.5t30.5 -10.5q24 0 46 6v-79q-33 -12 -77 -12z" />
    <glyph glyph-name="m" unicode="m" horiz-adv-x="856" 
d="M63 0v474h100l5 -50q76 60 167 60t123 -62q76 62 179 62q82 0 121 -42t39 -129v-313h-107v302q0 54 -23 76.5t-75 22.5q-74 0 -117 -48q5 -19 5 -49v-304h-101v301q0 54 -18.5 77t-67.5 23q-63 0 -123 -56v-345h-107z" />
    <glyph glyph-name="n" unicode="n" horiz-adv-x="578" 
d="M63 0v474h100l5 -50q76 60 175 60q92 0 134 -43t42 -134v-307h-108v302q0 55 -23 77t-84 22q-78 0 -132 -54v-347h-109z" />
    <glyph glyph-name="o" unicode="o" horiz-adv-x="581" 
d="M290 -10q-247 0 -247 247t247 247q248 0 248 -247t-248 -247zM290 82q75 0 106.5 36t31.5 119q0 82 -31.5 118t-106.5 36q-74 0 -105.5 -36t-31.5 -118q0 -83 31.5 -119t105.5 -36z" />
    <glyph glyph-name="p" unicode="p" horiz-adv-x="582" 
d="M63 -216v690h94l6 -47q65 57 160 57q216 0 216 -239q0 -126 -58 -190.5t-162 -64.5q-86 0 -147 40v-246h-109zM291 72q138 0 138 174q0 84 -31 119.5t-104 35.5t-122 -50v-237q48 -42 119 -42z" />
    <glyph glyph-name="q" unicode="q" horiz-adv-x="631" 
d="M537 -242q-127 0 -127 132v140q-61 -40 -147 -40q-220 0 -220 239q0 126 57 190.5t160 64.5q94 0 159 -57l7 47h93v-576q0 -32 10.5 -43.5t40.5 -11.5q18 0 42 6v-79q-34 -12 -75 -12zM291 72q71 0 119 42v237q-49 50 -121 50q-71 0 -103.5 -42.5t-32.5 -128.5t33 -122
t105 -36z" />
    <glyph glyph-name="r" unicode="r" horiz-adv-x="367" 
d="M63 0v474h100l6 -55q76 49 174 65v-83q-106 -19 -171 -59v-342h-109z" />
    <glyph glyph-name="s" unicode="s" horiz-adv-x="464" 
d="M221 -10q-102 0 -167 24v92q67 -27 153 -27q58 0 81 10t23 39q0 7 -1.5 13t-5.5 11t-7.5 8.5t-11.5 8t-14 7.5t-18 7t-20 7t-24.5 8t-27.5 9q-72 24 -105 53.5t-33 87.5q0 136 198 136q80 0 141 -21v-91q-57 23 -124 23q-55 0 -80 -9.5t-25 -35.5q0 -24 19 -35t75 -29
q14 -4 22 -7q85 -26 118 -57.5t33 -92.5q0 -139 -199 -139z" />
    <glyph glyph-name="t" unicode="t" horiz-adv-x="363" 
d="M244 -10q-75 0 -113 39.5t-38 111.5v248h-70v85h70v109l108 33v-142h126l-7 -85h-119v-242q0 -41 18.5 -57.5t62.5 -16.5q27 0 57 10v-77q-39 -16 -95 -16z" />
    <glyph glyph-name="u" unicode="u" horiz-adv-x="578" 
d="M234 -10q-85 0 -130.5 47.5t-45.5 137.5v299h109v-299q0 -53 26 -78t80 -25q78 0 133 55v347h108v-474h-99l-5 49q-75 -59 -176 -59z" />
    <glyph glyph-name="v" unicode="v" horiz-adv-x="578" 
d="M230 0l-187 474h113l133 -368l133 368h112l-186 -474h-118z" />
    <glyph glyph-name="w" unicode="w" horiz-adv-x="746" 
d="M168 0l-125 474h109l82 -345l93 287v58h83l103 -345l82 345h108l-124 -474h-103l-101 310l-103 -310h-104z" />
    <glyph glyph-name="x" unicode="x" horiz-adv-x="567" 
d="M43 0l181 241l-174 233h117l116 -158l116 158h117l-173 -233l180 -241h-118l-122 165l-122 -165h-118z" />
    <glyph glyph-name="y" unicode="y" horiz-adv-x="598" 
d="M170 -176q-54 0 -92 14v81q28 -10 61 -10q43 0 65 20.5t50 76.5l-211 468h113l152 -352l154 352h112l-193 -447q-43 -102 -89.5 -152.5t-121.5 -50.5z" />
    <glyph glyph-name="z" unicode="z" horiz-adv-x="487" 
d="M43 0v57l259 328h-247v89h381v-67l-254 -323h261v-84h-400z" />
    <glyph glyph-name="braceleft" unicode="{" horiz-adv-x="304" 
d="M195 -104q-58 0 -82.5 28t-24.5 88v160q0 45 -14 66.5t-51 25.5v68q40 5 52.5 27.5t12.5 73.5v157q0 60 25 85t91 25h66v-84h-29q-26 0 -35.5 -11t-9.5 -40v-174q0 -72 -55 -93q55 -22 55 -93v-174q0 -29 9.5 -40t35.5 -11h29v-84h-75z" />
    <glyph glyph-name="bar" unicode="|" horiz-adv-x="196" 
d="M43 -120v855h109v-855h-109z" />
    <glyph glyph-name="braceright" unicode="}" horiz-adv-x="304" 
d="M33 -104v84h29q26 0 35.5 11t9.5 40v174q0 71 55 93q-55 21 -55 93v174q0 29 -9.5 40t-35.5 11h-29v84h66q66 0 91 -25t25 -85v-157q0 -51 12.5 -73.5t52.5 -27.5v-68q-37 -4 -51 -25.5t-14 -66.5v-160q0 -60 -24.5 -88t-82.5 -28h-75z" />
    <glyph glyph-name="asciitilde" unicode="~" horiz-adv-x="562" 
d="M401 217q-42 0 -120 35t-119 35q-72 0 -119 -60v108q39 52 119 52q47 0 123 -35t116 -35q71 0 117 59v-108q-37 -51 -117 -51z" />
    <glyph glyph-name="uni00A0" unicode="&#xa0;" horiz-adv-x="370" 
 />
    <glyph glyph-name="exclamdown" unicode="&#xa1;" horiz-adv-x="203" 
d="M43 526v82h116v-82h-116zM47 -36v161l6 322h97l6 -322v-161h-109z" />
    <glyph glyph-name="cent" unicode="&#xa2;" horiz-adv-x="493" 
d="M260 -86v78q-107 8 -162 71t-55 174q0 110 57.5 172t159.5 73v78h80v-77q60 -4 109 -28v-81q-44 22 -109 25v-326q59 3 110 27v-83q-48 -20 -110 -25v-78h-80zM260 78v316q-107 -24 -107 -157q0 -70 25.5 -108.5t81.5 -50.5z" />
    <glyph glyph-name="sterling" unicode="&#xa3;" horiz-adv-x="498" 
d="M43 0v84h25q56 0 56 65v150h-68v84h68v106q0 76 48.5 120.5t126.5 44.5q70 0 117 -21v-78q-28 15 -84 15q-51 0 -75.5 -20.5t-24.5 -66.5v-100h182l-4 -84h-178v-145q0 -50 -25 -70h247v-84h-411z" />
    <glyph glyph-name="currency" unicode="&#xa4;" horiz-adv-x="572" 
d="M92 54l-49 60l82 60q-29 41 -29 95q0 53 29 93l-81 62l48 59l83 -65q50 38 110 38q62 0 111 -39l84 66l48 -59l-82 -62q30 -43 30 -93t-30 -95l82 -61l-48 -59l-84 64q-48 -37 -110 -37t-110 37zM285 159q46 0 78 32t32 78t-32.5 78t-77.5 32q-46 0 -77 -32t-31 -78
t31.5 -78t76.5 -32z" />
    <glyph glyph-name="yen" unicode="&#xa5;" horiz-adv-x="656" 
d="M274 0v90h-151v68h151v54h-151v68h127l-207 364h113l172 -313l172 313h113l-208 -364h128v-68h-151v-54h151v-68h-151v-90h-108z" />
    <glyph glyph-name="brokenbar" unicode="&#xa6;" horiz-adv-x="196" 
d="M43 414v321h109v-321h-109zM43 -120v320h109v-320h-109z" />
    <glyph glyph-name="section" unicode="&#xa7;" horiz-adv-x="555" 
d="M258 -10q-125 0 -201 32v96q93 -36 191 -36q79 0 116.5 19.5t37.5 70.5q0 46 -37.5 68.5t-134.5 47.5q-104 29 -145.5 64.5t-41.5 99.5q0 40 19 67q-18 31 -18 72q0 83 61.5 128.5t184.5 45.5q101 0 183 -26v-96q-81 29 -170 29q-150 0 -150 -88q0 -42 33 -64t125 -44
q119 -29 160 -63.5t41 -98.5q0 -40 -19 -74q19 -32 19 -71q0 -88 -65 -133.5t-189 -45.5zM414 301q5 12 5 25q0 24 -30 39t-118 37q-95 25 -122 52q-4 -12 -4 -21q0 -24 27 -37t110 -35q103 -27 132 -60z" />
    <glyph glyph-name="dieresis" unicode="&#xa8;" horiz-adv-x="365" 
d="M43 559v86h92v-86h-92zM229 559v86h92v-86h-92z" />
    <glyph glyph-name="copyright" unicode="&#xa9;" horiz-adv-x="751" 
d="M375 -10q-137 0 -234.5 97.5t-97.5 234.5t97.5 234.5t234.5 97.5t234.5 -97.5t97.5 -234.5t-97.5 -234.5t-234.5 -97.5zM375 57q113 0 187.5 75t74.5 190q0 114 -74.5 189t-187.5 75q-112 0 -186 -75t-74 -189q0 -115 74 -190t186 -75zM375 99q-101 0 -158.5 59.5
t-57.5 162.5q0 106 62.5 164t159.5 58q75 0 128 -33v-61q-50 27 -111 27q-74 0 -117.5 -37.5t-43.5 -117.5q0 -83 39 -119.5t118 -36.5q65 0 116 30v-64q-58 -32 -135 -32z" />
    <glyph glyph-name="ordfeminine" unicode="&#xaa;" horiz-adv-x="343" 
d="M138 380q-42 0 -68.5 19.5t-26.5 59.5q0 87 107 87h82v9q0 26 -14 36t-56 10q-43 0 -85 -14v51q44 16 99 16q123 0 123 -100v-168h-60l-4 26q-36 -32 -97 -32zM158 427q49 0 74 35v39h-70q-30 0 -42.5 -8.5t-12.5 -30.5q0 -35 51 -35z" />
    <glyph glyph-name="guillemotleft" unicode="&#xab;" horiz-adv-x="620" 
d="M301 73l-258 190v46l258 190l43 -62l-204 -152l204 -151zM534 73l-258 190v46l258 190l42 -62l-203 -152l203 -151z" />
    <glyph glyph-name="logicalnot" unicode="&#xac;" horiz-adv-x="524" 
d="M393 141v145h-350v85h437v-230h-87z" />
    <glyph glyph-name="uni00AD" unicode="&#xad;" horiz-adv-x="468" 
d="M43 227v85h382v-85h-382z" />
    <glyph glyph-name="registered" unicode="&#xae;" horiz-adv-x="751" 
d="M375 -10q-137 0 -234.5 97.5t-97.5 234.5t97.5 234.5t234.5 97.5t234.5 -97.5t97.5 -234.5t-97.5 -234.5t-234.5 -97.5zM375 57q113 0 187.5 75t74.5 190q0 114 -74.5 189t-187.5 75q-112 0 -186 -75t-74 -189q0 -115 74 -190t186 -75zM226 120v407h187q65 0 100 -34
t35 -93q0 -46 -24 -77t-67 -41q18 -12 32 -45l48 -117h-67l-49 121q-8 17 -19.5 22.5t-41.5 5.5h-65v-149h-69zM295 324h81q54 0 78.5 14.5t24.5 61.5q0 40 -18 56t-60 16h-106v-148z" />
    <glyph glyph-name="macron" unicode="&#xaf;" horiz-adv-x="365" 
d="M33 563v71h298v-71h-298z" />
    <glyph glyph-name="degree" unicode="&#xb0;" horiz-adv-x="312" 
d="M155 500q-47 0 -80 31.5t-33 80.5q0 48 33 79.5t80 31.5q48 0 81 -31t33 -80t-33 -80.5t-81 -31.5zM155 562q22 0 36.5 14t14.5 36q0 21 -14.5 35.5t-36.5 14.5q-21 0 -35 -14.5t-14 -35.5q0 -22 14 -36t35 -14z" />
    <glyph glyph-name="plusminus" unicode="&#xb1;" horiz-adv-x="473" 
d="M193 126v141h-147v85h147v146h87v-146h147v-85h-147v-141h-87zM46 0v85h381v-85h-381z" />
    <glyph glyph-name="uni00B2" unicode="&#xb2;" horiz-adv-x="301" 
d="M43 370v38q19 29 76 77q36 30 48 44t12 30q0 19 -12.5 27t-42.5 8q-35 0 -73 -15v59q48 16 97 16q50 0 78.5 -24t28.5 -61q0 -27 -11.5 -46t-40.5 -46q-8 -7 -18.5 -16t-18.5 -16t-16 -16h107v-59h-214z" />
    <glyph glyph-name="uni00B3" unicode="&#xb3;" horiz-adv-x="304" 
d="M134 362q-60 0 -91 13v54q34 -14 73 -14q36 0 51 8t15 27q0 35 -59 35h-39l4 48h32q56 0 56 37q0 29 -59 29q-37 0 -69 -13v55q39 13 88 13q119 0 119 -80q0 -49 -41 -65q47 -13 47 -62q0 -85 -127 -85z" />
    <glyph glyph-name="acute" unicode="&#xb4;" horiz-adv-x="261" 
d="M44 522l76 177h95l-83 -177h-88z" />
    <glyph glyph-name="paragraph" unicode="&#xb6;" horiz-adv-x="632" 
d="M296 -77v330q-253 0 -253 224q0 120 69.5 176.5t190.5 56.5h295v-787h-109v703h-85v-703h-108z" />
    <glyph glyph-name="periodcentered" unicode="&#xb7;" horiz-adv-x="179" 
d="M43 242v85h92v-85h-92z" />
    <glyph glyph-name="cedilla" unicode="&#xb8;" horiz-adv-x="293" 
d="M111 -240q-43 0 -73 8v59q29 -8 62 -8q47 0 66 9t19 36q0 26 -18.5 33.5t-62.5 7.5h-40l29 95h73l-16 -47q53 0 81 -23.5t28 -66.5q0 -103 -148 -103z" />
    <glyph glyph-name="uni00B9" unicode="&#xb9;" horiz-adv-x="203" 
d="M104 370v211l-72 -15v59l147 29v-284h-75z" />
    <glyph glyph-name="ordmasculine" unicode="&#xba;" horiz-adv-x="363" 
d="M181 380q-138 0 -138 137t138 137t138 -137t-138 -137zM181 432q37 0 53 20.5t16 64.5q0 43 -16 63.5t-53 20.5q-70 0 -70 -84q0 -44 16.5 -64.5t53.5 -20.5z" />
    <glyph glyph-name="guillemotright" unicode="&#xbb;" horiz-adv-x="620" 
d="M86 73l-43 61l204 151l-204 152l43 62l258 -190v-46zM318 73l-42 61l203 151l-203 152l42 62l258 -190v-46z" />
    <glyph glyph-name="onequarter" unicode="&#xbc;" horiz-adv-x="644" 
d="M115 370v211l-72 -15v59l147 29v-284h-75zM94 0l341 644h102l-341 -644h-102zM495 0v54h-144v52l139 178h80v-177h30v-53h-30v-54h-75zM424 108h87v114z" />
    <glyph glyph-name="onehalf" unicode="&#xbd;" horiz-adv-x="651" 
d="M115 370v211l-72 -15v59l147 29v-284h-75zM94 0l341 644h102l-341 -644h-102zM383 0v38q19 29 76 77q36 30 48 44t12 30q0 19 -12.5 27t-42.5 8q-35 0 -73 -15v59q48 16 97 16q50 0 78.5 -24t28.5 -61q0 -27 -11.5 -46t-40.5 -46q-8 -7 -18.5 -16t-18.5 -16t-16 -16h107
v-59h-214z" />
    <glyph glyph-name="threequarters" unicode="&#xbe;" horiz-adv-x="660" 
d="M134 362q-60 0 -91 13v53q34 -14 73 -14q36 0 51 8t15 28q0 35 -59 35h-39l4 48h32q56 0 56 37q0 30 -59 30q-37 0 -69 -13v54q39 13 88 13q119 0 119 -80q0 -49 -41 -65q47 -13 47 -62q0 -85 -127 -85zM99 0l340 644h103l-341 -644h-102zM500 0v54h-145v52l140 178h79
v-177h31v-53h-31v-54h-74zM428 108h88v114z" />
    <glyph glyph-name="questiondown" unicode="&#xbf;" horiz-adv-x="495" 
d="M261 526v82h116v-82h-116zM298 -46q-108 0 -165 48t-57 135q0 52 23 85.5t74 75.5q4 3 17.5 14.5t16.5 14t13.5 12t13.5 13.5t10 12.5t9 14t5.5 14.5t4.5 17.5t1 18.5v17h109v-22q0 -28 -8.5 -51.5t-29.5 -46.5t-32 -33t-41 -34q-38 -31 -57 -56t-19 -58
q0 -53 31.5 -75.5t108.5 -22.5q82 0 158 36v-92q-76 -37 -186 -37z" />
    <glyph glyph-name="Agrave" unicode="&#xc0;" horiz-adv-x="700" 
d="M298 688l-83 177h95l76 -177h-88zM44 0l246 644h122l244 -644h-112l-64 166h-259l-64 -166h-113zM238 250h224l-112 295z" />
    <glyph glyph-name="Aacute" unicode="&#xc1;" horiz-adv-x="700" 
d="M310 688l75 177h96l-84 -177h-87zM44 0l246 644h122l244 -644h-112l-64 166h-259l-64 -166h-113zM238 250h224l-112 295z" />
    <glyph glyph-name="Acircumflex" unicode="&#xc2;" horiz-adv-x="700" 
d="M186 687l125 161h76l125 -161h-87l-76 101l-74 -101h-89zM44 0l246 644h122l244 -644h-112l-64 166h-259l-64 -166h-113zM238 250h224l-112 295z" />
    <glyph glyph-name="Atilde" unicode="&#xc3;" horiz-adv-x="700" 
d="M430 695q-29 0 -79.5 19.5t-72.5 19.5q-55 0 -87 -36v80q28 30 85 30q30 0 78.5 -19.5t74.5 -19.5q52 0 80 37v-80q-22 -31 -79 -31zM44 0l246 644h122l244 -644h-112l-64 166h-259l-64 -166h-113zM238 250h224l-112 295z" />
    <glyph glyph-name="Adieresis" unicode="&#xc4;" horiz-adv-x="700" 
d="M210 711v86h92v-86h-92zM396 711v86h92v-86h-92zM44 0l246 644h122l244 -644h-112l-64 166h-259l-64 -166h-113zM238 250h224l-112 295z" />
    <glyph glyph-name="Aring" unicode="&#xc5;" horiz-adv-x="700" 
d="M420 622l236 -622h-112l-64 166h-259l-64 -166h-113l237 620q-48 34 -48 94q0 49 32 81.5t84 32.5q53 0 85.5 -32.5t32.5 -81.5q0 -61 -47 -92zM349 773q-26 0 -42.5 -17t-16.5 -42t16.5 -42t42.5 -17q27 0 44 17t17 42t-17 42t-44 17zM238 250h224l-112 295z" />
    <glyph glyph-name="AE" unicode="&#xc6;" horiz-adv-x="845" 
d="M44 0l246 644h512v-85h-287v-195h250v-84h-250v-196h287v-84h-395v167h-182l-64 -167h-117zM253 251h154v310h-39z" />
    <glyph glyph-name="Ccedilla" unicode="&#xc7;" horiz-adv-x="597" 
d="M554 17q-78 -24 -166 -27l-13 -37q53 0 81 -23.5t28 -66.5q0 -103 -148 -103q-43 0 -73 8v59q29 -8 62 -8q47 0 66 9t19 36q0 26 -18.5 33.5t-62.5 7.5h-40l27 87q-133 14 -203 98t-70 222q0 163 80 252.5t241 89.5q101 0 189 -31v-95q-85 33 -181 33q-117 0 -168 -62
t-51 -187q0 -230 221 -230q99 0 180 31v-96z" />
    <glyph glyph-name="Egrave" unicode="&#xc8;" horiz-adv-x="550" 
d="M252 688l-83 177h95l76 -177h-88zM63 0v644h449v-85h-340v-195h303v-84h-303v-196h340v-84h-449z" />
    <glyph glyph-name="Eacute" unicode="&#xc9;" horiz-adv-x="550" 
d="M230 688l75 177h96l-84 -177h-87zM63 0v644h449v-85h-340v-195h303v-84h-303v-196h340v-84h-449z" />
    <glyph glyph-name="Ecircumflex" unicode="&#xca;" horiz-adv-x="550" 
d="M117 687l125 161h76l125 -161h-87l-76 101l-74 -101h-89zM63 0v644h449v-85h-340v-195h303v-84h-303v-196h340v-84h-449z" />
    <glyph glyph-name="Edieresis" unicode="&#xcb;" horiz-adv-x="550" 
d="M146 712v86h92v-86h-92zM332 712v86h92v-86h-92zM63 0v644h449v-85h-340v-195h303v-84h-303v-196h340v-84h-449z" />
    <glyph glyph-name="Igrave" unicode="&#xcc;" horiz-adv-x="235" 
d="M74 688l-83 177h95l76 -177h-88zM63 0v644h109v-644h-109z" />
    <glyph glyph-name="Iacute" unicode="&#xcd;" horiz-adv-x="236" 
d="M70 688l75 177h96l-84 -177h-87zM63 0v644h109v-644h-109z" />
    <glyph glyph-name="Icircumflex" unicode="&#xce;" horiz-adv-x="235" 
d="M-46 687l125 161h76l125 -161h-87l-76 101l-74 -101h-89zM63 0v644h109v-644h-109z" />
    <glyph glyph-name="Idieresis" unicode="&#xcf;" horiz-adv-x="235" 
d="M-22 715v86h92v-86h-92zM164 715v86h92v-86h-92zM63 0v644h109v-644h-109z" />
    <glyph glyph-name="Eth" unicode="&#xd0;" horiz-adv-x="689" 
d="M103 0v274h-70v84h70v286h261q145 0 213 -77t68 -249q0 -165 -68 -241.5t-213 -76.5h-261zM212 84h135q50 0 83 10t58 35.5t36.5 71.5t11.5 117q0 138 -42.5 189.5t-146.5 51.5h-135v-201h165v-84h-165v-190z" />
    <glyph glyph-name="Ntilde" unicode="&#xd1;" horiz-adv-x="667" 
d="M416 703q-29 0 -79.5 19.5t-72.5 19.5q-55 0 -87 -36v80q28 30 85 30q30 0 78.5 -19.5t74.5 -19.5q52 0 80 37v-80q-22 -31 -79 -31zM63 0v644h96l336 -474v474h108v-644h-96l-335 473v-473h-109z" />
    <glyph glyph-name="Ograve" unicode="&#xd2;" horiz-adv-x="697" 
d="M310 688l-83 177h95l76 -177h-88zM348 -10q-154 0 -229.5 80.5t-75.5 249.5q0 174 75 254t230 80t230 -80t75 -254q0 -169 -75.5 -249.5t-229.5 -80.5zM348 82q102 0 149 56t47 182q0 131 -46.5 186t-149.5 55q-102 0 -148.5 -55t-46.5 -186q0 -125 47 -181.5t148 -56.5z
" />
    <glyph glyph-name="Oacute" unicode="&#xd3;" horiz-adv-x="697" 
d="M300 688l75 177h96l-84 -177h-87zM348 -10q-154 0 -229.5 80.5t-75.5 249.5q0 174 75 254t230 80t230 -80t75 -254q0 -169 -75.5 -249.5t-229.5 -80.5zM348 82q102 0 149 56t47 182q0 131 -46.5 186t-149.5 55q-102 0 -148.5 -55t-46.5 -186q0 -125 47 -181.5t148 -56.5z
" />
    <glyph glyph-name="Ocircumflex" unicode="&#xd4;" horiz-adv-x="697" 
d="M185 687l125 161h76l125 -161h-87l-76 101l-74 -101h-89zM348 -10q-154 0 -229.5 80.5t-75.5 249.5q0 174 75 254t230 80t230 -80t75 -254q0 -169 -75.5 -249.5t-229.5 -80.5zM348 82q102 0 149 56t47 182q0 131 -46.5 186t-149.5 55q-102 0 -148.5 -55t-46.5 -186
q0 -125 47 -181.5t148 -56.5z" />
    <glyph glyph-name="Otilde" unicode="&#xd5;" horiz-adv-x="697" 
d="M428 695q-29 0 -79.5 19.5t-72.5 19.5q-55 0 -87 -36v80q28 30 85 30q30 0 78.5 -19.5t74.5 -19.5q52 0 80 37v-80q-22 -31 -79 -31zM348 -10q-154 0 -229.5 80.5t-75.5 249.5q0 174 75 254t230 80t230 -80t75 -254q0 -169 -75.5 -249.5t-229.5 -80.5zM348 82
q102 0 149 56t47 182q0 131 -46.5 186t-149.5 55q-102 0 -148.5 -55t-46.5 -186q0 -125 47 -181.5t148 -56.5z" />
    <glyph glyph-name="Odieresis" unicode="&#xd6;" horiz-adv-x="697" 
d="M209 712v86h92v-86h-92zM395 712v86h92v-86h-92zM348 -10q-154 0 -229.5 80.5t-75.5 249.5q0 174 75 254t230 80t230 -80t75 -254q0 -169 -75.5 -249.5t-229.5 -80.5zM348 82q102 0 149 56t47 182q0 131 -46.5 186t-149.5 55q-102 0 -148.5 -55t-46.5 -186
q0 -125 47 -181.5t148 -56.5z" />
    <glyph glyph-name="multiply" unicode="&#xd7;" horiz-adv-x="414" 
d="M317 90l-109 109l-105 -104l-55 55l104 105l-109 108l55 55l107 -109l110 108l55 -55l-109 -109l109 -109z" />
    <glyph glyph-name="Oslash" unicode="&#xd8;" horiz-adv-x="697" 
d="M165 -53l27 71q-149 67 -149 302q0 174 75 254t230 80q42 0 79 -6l17 45h74l-24 -63q159 -62 159 -310q0 -169 -75.5 -249.5t-229.5 -80.5q-47 0 -90 8l-19 -51h-74zM227 113l166 445q-21 3 -45 3q-102 0 -148.5 -55t-46.5 -186q0 -155 74 -207zM348 82q102 0 149 56
t47 182q0 169 -85 217l-168 -450q28 -5 57 -5z" />
    <glyph glyph-name="Ugrave" unicode="&#xd9;" horiz-adv-x="674" 
d="M307 688l-83 177h95l76 -177h-88zM338 -10q-134 0 -207 64t-73 185v405h109v-401q0 -80 44 -120.5t127 -40.5q82 0 126 40.5t44 120.5v401h108v-405q0 -121 -72.5 -185t-205.5 -64z" />
    <glyph glyph-name="Uacute" unicode="&#xda;" horiz-adv-x="674" 
d="M288 688l75 177h96l-84 -177h-87zM338 -10q-134 0 -207 64t-73 185v405h109v-401q0 -80 44 -120.5t127 -40.5q82 0 126 40.5t44 120.5v401h108v-405q0 -121 -72.5 -185t-205.5 -64z" />
    <glyph glyph-name="Ucircumflex" unicode="&#xdb;" horiz-adv-x="674" 
d="M174 687l125 161h76l125 -161h-87l-76 101l-74 -101h-89zM338 -10q-134 0 -207 64t-73 185v405h109v-401q0 -80 44 -120.5t127 -40.5q82 0 126 40.5t44 120.5v401h108v-405q0 -121 -72.5 -185t-205.5 -64z" />
    <glyph glyph-name="Udieresis" unicode="&#xdc;" horiz-adv-x="674" 
d="M192 712v86h92v-86h-92zM378 712v86h92v-86h-92zM338 -10q-134 0 -207 64t-73 185v405h109v-401q0 -80 44 -120.5t127 -40.5q82 0 126 40.5t44 120.5v401h108v-405q0 -121 -72.5 -185t-205.5 -64z" />
    <glyph glyph-name="Yacute" unicode="&#xdd;" horiz-adv-x="656" 
d="M274 688l75 177h96l-84 -177h-87zM274 0v239l-231 405h113l172 -313l172 313h113l-231 -405v-239h-108z" />
    <glyph glyph-name="Thorn" unicode="&#xde;" horiz-adv-x="590" 
d="M63 0v644h109v-110h178q107 0 161.5 -58.5t54.5 -155.5q0 -96 -59.5 -154.5t-160.5 -58.5h-174v-107h-109zM172 193h154q63 0 97 34t34 93q0 128 -126 128h-159v-255z" />
    <glyph glyph-name="germandbls" unicode="&#xdf;" horiz-adv-x="630" 
d="M382 -10q-85 0 -144 22v92q50 -22 124 -22q54 0 84.5 29t30.5 82q0 57 -29.5 84.5t-94.5 27.5h-78v83h77q108 0 108 110q0 52 -34 80.5t-114 28.5q-149 0 -149 -152v-455h-105v458q0 107 69.5 174.5t184.5 67.5q120 0 185 -58t65 -144q0 -53 -22 -92.5t-58 -58.5
q49 -15 77 -57t28 -103q0 -94 -53.5 -145.5t-151.5 -51.5z" />
    <glyph glyph-name="agrave" unicode="&#xe0;" horiz-adv-x="547" 
d="M251 522l-83 177h95l76 -177h-88zM211 -10q-72 0 -120 37.5t-48 107.5t47.5 110.5t142.5 40.5h152v21q0 52 -26 72t-103 20q-84 0 -157 -25v81q73 29 177 29q213 0 213 -179v-305h-93l-7 48q-60 -58 -178 -58zM240 68q94 0 145 61v83h-150q-48 0 -69.5 -18t-21.5 -57
q0 -69 96 -69z" />
    <glyph glyph-name="aacute" unicode="&#xe1;" horiz-adv-x="549" 
d="M236 522l75 177h96l-84 -177h-87zM211 -10q-72 0 -120 37.5t-48 107.5t47.5 110.5t142.5 40.5h152v21q0 52 -26 72t-103 20q-84 0 -157 -25v81q73 29 177 29q213 0 213 -179v-305h-93l-7 48q-60 -58 -178 -58zM240 68q94 0 145 61v83h-150q-48 0 -69.5 -18t-21.5 -57
q0 -69 96 -69z" />
    <glyph glyph-name="acircumflex" unicode="&#xe2;" horiz-adv-x="547" 
d="M122 521l125 161h76l125 -161h-87l-76 101l-74 -101h-89zM211 -10q-72 0 -120 37.5t-48 107.5t47.5 110.5t142.5 40.5h152v21q0 52 -26 72t-103 20q-84 0 -157 -25v81q73 29 177 29q213 0 213 -179v-305h-93l-7 48q-60 -58 -178 -58zM240 68q94 0 145 61v83h-150
q-48 0 -69.5 -18t-21.5 -57q0 -69 96 -69z" />
    <glyph glyph-name="atilde" unicode="&#xe3;" horiz-adv-x="547" 
d="M368 537q-29 0 -79.5 19.5t-72.5 19.5q-55 0 -87 -36v80q28 30 85 30q30 0 78.5 -19.5t74.5 -19.5q52 0 80 37v-80q-22 -31 -79 -31zM211 -10q-72 0 -120 37.5t-48 107.5t47.5 110.5t142.5 40.5h152v21q0 52 -26 72t-103 20q-84 0 -157 -25v81q73 29 177 29
q213 0 213 -179v-305h-93l-7 48q-60 -58 -178 -58zM240 68q94 0 145 61v83h-150q-48 0 -69.5 -18t-21.5 -57q0 -69 96 -69z" />
    <glyph glyph-name="adieresis" unicode="&#xe4;" horiz-adv-x="547" 
d="M152 546v86h92v-86h-92zM338 546v86h92v-86h-92zM211 -10q-72 0 -120 37.5t-48 107.5t47.5 110.5t142.5 40.5h152v21q0 52 -26 72t-103 20q-84 0 -157 -25v81q73 29 177 29q213 0 213 -179v-305h-93l-7 48q-60 -58 -178 -58zM240 68q94 0 145 61v83h-150q-48 0 -69.5 -18
t-21.5 -57q0 -69 96 -69z" />
    <glyph glyph-name="aring" unicode="&#xe5;" horiz-adv-x="547" 
d="M291 521q-52 0 -84 32.5t-32 80.5q0 49 32 81.5t84 32.5q53 0 85.5 -32.5t32.5 -81.5q0 -48 -32.5 -80.5t-85.5 -32.5zM291 575q27 0 44 17t17 42t-17 42t-44 17q-26 0 -42.5 -17t-16.5 -42t16.5 -42t42.5 -17zM211 -10q-72 0 -120 37.5t-48 107.5t47.5 110.5t142.5 40.5
h152v21q0 52 -26 72t-103 20q-84 0 -157 -25v81q73 29 177 29q213 0 213 -179v-305h-93l-7 48q-60 -58 -178 -58zM240 68q94 0 145 61v83h-150q-48 0 -69.5 -18t-21.5 -57q0 -69 96 -69z" />
    <glyph glyph-name="ae" unicode="&#xe6;" horiz-adv-x="881" 
d="M217 -10q-75 0 -124.5 37.5t-49.5 107.5t47.5 110.5t142.5 40.5h152v21q0 52 -26 72t-103 20q-84 0 -157 -25v81q73 29 177 29q122 0 173 -63q61 63 172 63q105 0 161 -55t56 -147v-88h-347q8 -68 49 -95t129 -27q81 0 140 25v-79q-63 -28 -162 -28q-140 0 -201 83
q-41 -40 -93 -61.5t-136 -21.5zM491 265h251v33q0 104 -118 104q-74 0 -103.5 -32t-29.5 -105zM240 68q92 0 145 59v85h-150q-48 0 -69.5 -18t-21.5 -57q0 -69 96 -69z" />
    <glyph glyph-name="ccedilla" unicode="&#xe7;" horiz-adv-x="493" 
d="M450 17q-59 -24 -132 -27l-13 -37q53 0 81 -23.5t28 -66.5q0 -103 -148 -103q-43 0 -73 8v59q29 -8 62 -8q47 0 66 9t19 36q0 26 -18.5 33.5t-62.5 7.5h-40l27 88q-100 12 -151.5 74t-51.5 170q0 122 69 184.5t190 62.5q86 0 147 -29v-81q-52 26 -126 26
q-85 0 -127.5 -38t-42.5 -125q0 -86 39.5 -125t128.5 -39q71 0 129 27v-83z" />
    <glyph glyph-name="egrave" unicode="&#xe8;" horiz-adv-x="537" 
d="M229 522l-83 177h95l76 -177h-88zM303 -10q-126 0 -193 62t-67 186q0 117 59 181.5t175 64.5q105 0 161 -55t56 -147v-88h-347q8 -68 49 -94.5t129 -26.5q77 0 140 25v-80q-63 -28 -162 -28zM147 265h251v33q0 104 -118 104q-74 0 -103.5 -32t-29.5 -105z" />
    <glyph glyph-name="eacute" unicode="&#xe9;" horiz-adv-x="537" 
d="M225 522l75 177h96l-84 -177h-87zM303 -10q-126 0 -193 62t-67 186q0 117 59 181.5t175 64.5q105 0 161 -55t56 -147v-88h-347q8 -68 49 -94.5t129 -26.5q77 0 140 25v-80q-63 -28 -162 -28zM147 265h251v33q0 104 -118 104q-74 0 -103.5 -32t-29.5 -105z" />
    <glyph glyph-name="ecircumflex" unicode="&#xea;" horiz-adv-x="537" 
d="M109 521l125 161h76l125 -161h-87l-76 101l-74 -101h-89zM303 -10q-126 0 -193 62t-67 186q0 117 59 181.5t175 64.5q105 0 161 -55t56 -147v-88h-347q8 -68 49 -94.5t129 -26.5q77 0 140 25v-80q-63 -28 -162 -28zM147 265h251v33q0 104 -118 104q-74 0 -103.5 -32
t-29.5 -105z" />
    <glyph glyph-name="edieresis" unicode="&#xeb;" horiz-adv-x="537" 
d="M132 546v86h92v-86h-92zM318 546v86h92v-86h-92zM303 -10q-126 0 -193 62t-67 186q0 117 59 181.5t175 64.5q105 0 161 -55t56 -147v-88h-347q8 -68 49 -94.5t129 -26.5q77 0 140 25v-80q-63 -28 -162 -28zM147 265h251v33q0 104 -118 104q-74 0 -103.5 -32t-29.5 -105z
" />
    <glyph glyph-name="igrave" unicode="&#xec;" horiz-adv-x="308" 
d="M145 522l-83 177h95l76 -177h-88zM135 0v391h-72l10 83h171v-474h-109z" />
    <glyph glyph-name="iacute" unicode="&#xed;" horiz-adv-x="308" 
d="M133 522l75 177h96l-84 -177h-87zM135 0v391h-72l10 83h171v-474h-109z" />
    <glyph glyph-name="icircumflex" unicode="&#xee;" horiz-adv-x="308" 
d="M5 521l125 161h76l125 -161h-87l-76 101l-74 -101h-89zM135 0v391h-72l10 83h171v-474h-109z" />
    <glyph glyph-name="idieresis" unicode="&#xef;" horiz-adv-x="308" 
d="M20 546v86h92v-86h-92zM206 546v86h92v-86h-92zM135 0v391h-72l10 83h171v-474h-109z" />
    <glyph glyph-name="eth" unicode="&#xf0;" horiz-adv-x="573" 
d="M286 -10q-122 0 -182.5 54.5t-60.5 152.5q0 101 58 153.5t165 52.5q90 0 161 -51v41q0 76 -20 119l-128 -56v56l95 41q-36 27 -100 27q-75 0 -143 -25v75q67 24 158 24q110 0 172 -62l92 40v-57l-60 -26q37 -67 37 -167v-143q0 -128 -61 -188.5t-183 -60.5zM285 66
q142 0 142 144v72q-70 49 -141 49q-77 0 -111 -34.5t-34 -99.5q0 -63 36.5 -97t107.5 -34z" />
    <glyph glyph-name="ntilde" unicode="&#xf1;" horiz-adv-x="578" 
d="M372 537q-29 0 -79.5 19.5t-72.5 19.5q-55 0 -87 -36v80q28 30 85 30q30 0 78.5 -19.5t74.5 -19.5q52 0 80 37v-80q-22 -31 -79 -31zM63 0v474h100l5 -50q76 60 175 60q92 0 134 -43t42 -134v-307h-108v302q0 55 -23 77t-84 22q-78 0 -132 -54v-347h-109z" />
    <glyph glyph-name="ograve" unicode="&#xf2;" horiz-adv-x="581" 
d="M251 522l-83 177h95l76 -177h-88zM290 -10q-247 0 -247 247t247 247q248 0 248 -247t-248 -247zM290 82q75 0 106.5 36t31.5 119q0 82 -31.5 118t-106.5 36q-74 0 -105.5 -36t-31.5 -118q0 -83 31.5 -119t105.5 -36z" />
    <glyph glyph-name="oacute" unicode="&#xf3;" horiz-adv-x="581" 
d="M242 522l75 177h96l-84 -177h-87zM290 -10q-247 0 -247 247t247 247q248 0 248 -247t-248 -247zM290 82q75 0 106.5 36t31.5 119q0 82 -31.5 118t-106.5 36q-74 0 -105.5 -36t-31.5 -118q0 -83 31.5 -119t105.5 -36z" />
    <glyph glyph-name="ocircumflex" unicode="&#xf4;" horiz-adv-x="581" 
d="M127 521l125 161h76l125 -161h-87l-76 101l-74 -101h-89zM290 -10q-247 0 -247 247t247 247q248 0 248 -247t-248 -247zM290 82q75 0 106.5 36t31.5 119q0 82 -31.5 118t-106.5 36q-74 0 -105.5 -36t-31.5 -118q0 -83 31.5 -119t105.5 -36z" />
    <glyph glyph-name="otilde" unicode="&#xf5;" horiz-adv-x="581" 
d="M370 545q-29 0 -79.5 19.5t-72.5 19.5q-55 0 -87 -36v80q28 30 85 30q30 0 78.5 -19.5t74.5 -19.5q52 0 80 37v-80q-22 -31 -79 -31zM290 -10q-247 0 -247 247t247 247q248 0 248 -247t-248 -247zM290 82q75 0 106.5 36t31.5 119q0 82 -31.5 118t-106.5 36
q-74 0 -105.5 -36t-31.5 -118q0 -83 31.5 -119t105.5 -36z" />
    <glyph glyph-name="odieresis" unicode="&#xf6;" horiz-adv-x="581" 
d="M151 546v86h92v-86h-92zM337 546v86h92v-86h-92zM290 -10q-247 0 -247 247t247 247q248 0 248 -247t-248 -247zM290 82q75 0 106.5 36t31.5 119q0 82 -31.5 118t-106.5 36q-74 0 -105.5 -36t-31.5 -118q0 -83 31.5 -119t105.5 -36z" />
    <glyph glyph-name="divide" unicode="&#xf7;" horiz-adv-x="468" 
d="M192 397v81h88v-81h-88zM46 227v85h381v-85h-381zM192 66v81h88v-81h-88z" />
    <glyph glyph-name="oslash" unicode="&#xf8;" horiz-adv-x="581" 
d="M144 -54l24 64q-125 51 -125 227q0 247 247 247q29 0 53 -3l18 47h74l-24 -65q127 -50 127 -226q0 -247 -248 -247q-21 0 -55 4l-17 -48h-74zM202 102l107 288q-3 0 -9 0.5t-10 0.5q-74 0 -105.5 -36t-31.5 -118q0 -103 49 -135zM290 82q75 0 106.5 36t31.5 119
q0 102 -52 134l-107 -288q6 -1 21 -1z" />
    <glyph glyph-name="ugrave" unicode="&#xf9;" horiz-adv-x="578" 
d="M253 522l-83 177h95l76 -177h-88zM234 -10q-85 0 -130.5 47.5t-45.5 137.5v299h109v-299q0 -53 26 -78t80 -25q78 0 133 55v347h108v-474h-99l-5 49q-75 -59 -176 -59z" />
    <glyph glyph-name="uacute" unicode="&#xfa;" horiz-adv-x="578" 
d="M227 522l75 177h96l-84 -177h-87zM234 -10q-85 0 -130.5 47.5t-45.5 137.5v299h109v-299q0 -53 26 -78t80 -25q78 0 133 55v347h108v-474h-99l-5 49q-75 -59 -176 -59z" />
    <glyph glyph-name="ucircumflex" unicode="&#xfb;" horiz-adv-x="578" 
d="M122 521l125 161h76l125 -161h-87l-76 101l-74 -101h-89zM234 -10q-85 0 -130.5 47.5t-45.5 137.5v299h109v-299q0 -53 26 -78t80 -25q78 0 133 55v347h108v-474h-99l-5 49q-75 -59 -176 -59z" />
    <glyph glyph-name="udieresis" unicode="&#xfc;" horiz-adv-x="578" 
d="M145 544v86h92v-86h-92zM331 544v86h92v-86h-92zM234 -10q-85 0 -130.5 47.5t-45.5 137.5v299h109v-299q0 -53 26 -78t80 -25q78 0 133 55v347h108v-474h-99l-5 49q-75 -59 -176 -59z" />
    <glyph glyph-name="yacute" unicode="&#xfd;" horiz-adv-x="598" 
d="M256 522l75 177h96l-84 -177h-87zM170 -176q-54 0 -92 14v81q28 -10 61 -10q43 0 65 20.5t50 76.5l-211 468h113l152 -352l154 352h112l-193 -447q-43 -102 -89.5 -152.5t-121.5 -50.5z" />
    <glyph glyph-name="thorn" unicode="&#xfe;" horiz-adv-x="582" 
d="M63 -216v916h109v-257q60 41 150 41q104 0 160.5 -61t56.5 -186t-57.5 -186t-162.5 -61q-86 0 -147 40v-246h-109zM291 72q71 0 104.5 39.5t33.5 126.5q0 85 -31.5 124t-103.5 39q-73 0 -122 -50v-237q48 -42 119 -42z" />
    <glyph glyph-name="ydieresis" unicode="&#xff;" horiz-adv-x="598" 
d="M172 556v86h92v-86h-92zM358 556v86h92v-86h-92zM170 -176q-54 0 -92 14v81q28 -10 61 -10q43 0 65 20.5t50 76.5l-211 468h113l152 -352l154 352h112l-193 -447q-43 -102 -89.5 -152.5t-121.5 -50.5z" />
    <glyph glyph-name="Amacron" unicode="&#x100;" horiz-adv-x="700" 
d="M200 709v71h298v-71h-298zM44 0l246 644h122l244 -644h-112l-64 166h-259l-64 -166h-113zM238 250h224l-112 295z" />
    <glyph glyph-name="amacron" unicode="&#x101;" horiz-adv-x="547" 
d="M138 543v71h298v-71h-298zM211 -10q-72 0 -120 37.5t-48 107.5t47.5 110.5t142.5 40.5h152v21q0 52 -26 72t-103 20q-84 0 -157 -25v81q73 29 177 29q213 0 213 -179v-305h-93l-7 48q-60 -58 -178 -58zM240 68q94 0 145 61v83h-150q-48 0 -69.5 -18t-21.5 -57
q0 -69 96 -69z" />
    <glyph glyph-name="Abreve" unicode="&#x102;" horiz-adv-x="700" 
d="M349 688q-66 0 -103.5 38t-37.5 103h74q0 -35 17.5 -55.5t49.5 -20.5q33 0 51.5 20.5t18.5 55.5h74q0 -65 -38.5 -103t-105.5 -38zM44 0l246 644h122l244 -644h-112l-64 166h-259l-64 -166h-113zM238 250h224l-112 295z" />
    <glyph glyph-name="abreve" unicode="&#x103;" horiz-adv-x="547" 
d="M291 522q-66 0 -103.5 38t-37.5 103h74q0 -35 17.5 -55.5t49.5 -20.5q33 0 51.5 20.5t18.5 55.5h74q0 -65 -38.5 -103t-105.5 -38zM211 -10q-72 0 -120 37.5t-48 107.5t47.5 110.5t142.5 40.5h152v21q0 52 -26 72t-103 20q-84 0 -157 -25v81q73 29 177 29q213 0 213 -179
v-305h-93l-7 48q-60 -58 -178 -58zM240 68q94 0 145 61v83h-150q-48 0 -69.5 -18t-21.5 -57q0 -69 96 -69z" />
    <glyph glyph-name="Aogonek" unicode="&#x104;" horiz-adv-x="700" 
d="M615 -152q31 0 50 11v-66q-28 -13 -77 -13q-46 0 -76.5 22.5t-30.5 66.5q0 80 74 131h-11l-64 166h-259l-64 -166h-113l246 644h122l244 -644h-19q-69 -53 -69 -112q0 -40 47 -40zM238 250h224l-112 295z" />
    <glyph glyph-name="aogonek" unicode="&#x105;" horiz-adv-x="556" 
d="M456 -152q31 0 50 11v-66q-28 -13 -77 -13q-46 0 -76.5 22.5t-30.5 66.5q0 80 74 131l-7 48q-60 -58 -178 -58q-72 0 -120 37.5t-48 107.5t47.5 110.5t142.5 40.5h152v21q0 52 -26 72t-103 20q-84 0 -157 -25v81q73 29 177 29q213 0 213 -179v-305h-11q-69 -53 -69 -112
q0 -40 47 -40zM385 129v83h-150q-48 0 -69.5 -18t-21.5 -57q0 -69 96 -69q94 0 145 61z" />
    <glyph glyph-name="Cacute" unicode="&#x106;" horiz-adv-x="597" 
d="M302 688l75 177h96l-84 -177h-87zM365 -10q-156 0 -239 85.5t-83 236.5q0 163 80 252.5t241 89.5q101 0 189 -31v-95q-85 33 -181 33q-117 0 -168 -62t-51 -187q0 -230 221 -230q99 0 180 31v-96q-86 -27 -189 -27z" />
    <glyph glyph-name="cacute" unicode="&#x107;" horiz-adv-x="493" 
d="M227 522l75 177h96l-84 -177h-87zM296 -10q-125 0 -189 63t-64 184q0 122 69 184.5t190 62.5q86 0 147 -29v-81q-52 26 -126 26q-85 0 -127.5 -38t-42.5 -125q0 -86 39.5 -125t128.5 -39q71 0 129 27v-83q-66 -27 -154 -27z" />
    <glyph glyph-name="Ccircumflex" unicode="&#x108;" horiz-adv-x="597" 
d="M173 687l125 161h76l125 -161h-87l-76 101l-74 -101h-89zM365 -10q-156 0 -239 85.5t-83 236.5q0 163 80 252.5t241 89.5q101 0 189 -31v-95q-85 33 -181 33q-117 0 -168 -62t-51 -187q0 -230 221 -230q99 0 180 31v-96q-86 -27 -189 -27z" />
    <glyph glyph-name="ccircumflex" unicode="&#x109;" horiz-adv-x="493" 
d="M111 521l125 161h76l125 -161h-87l-76 101l-74 -101h-89zM296 -10q-125 0 -189 63t-64 184q0 122 69 184.5t190 62.5q86 0 147 -29v-81q-52 26 -126 26q-85 0 -127.5 -38t-42.5 -125q0 -86 39.5 -125t128.5 -39q71 0 129 27v-83q-66 -27 -154 -27z" />
    <glyph glyph-name="Cdotaccent" unicode="&#x10a;" horiz-adv-x="597" 
d="M308 711v88h92v-88h-92zM365 -10q-156 0 -239 85.5t-83 236.5q0 163 80 252.5t241 89.5q101 0 189 -31v-95q-85 33 -181 33q-117 0 -168 -62t-51 -187q0 -230 221 -230q99 0 180 31v-96q-86 -27 -189 -27z" />
    <glyph glyph-name="cdotaccent" unicode="&#x10b;" horiz-adv-x="493" 
d="M235 545v88h92v-88h-92zM296 -10q-125 0 -189 63t-64 184q0 122 69 184.5t190 62.5q86 0 147 -29v-81q-52 26 -126 26q-85 0 -127.5 -38t-42.5 -125q0 -86 39.5 -125t128.5 -39q71 0 129 27v-83q-66 -27 -154 -27z" />
    <glyph glyph-name="Ccaron" unicode="&#x10c;" horiz-adv-x="597" 
d="M326 687l-125 161h89l74 -101l76 101h87l-125 -161h-76zM365 -10q-156 0 -239 85.5t-83 236.5q0 163 80 252.5t241 89.5q101 0 189 -31v-95q-85 33 -181 33q-117 0 -168 -62t-51 -187q0 -230 221 -230q99 0 180 31v-96q-86 -27 -189 -27z" />
    <glyph glyph-name="ccaron" unicode="&#x10d;" horiz-adv-x="494" 
d="M238 521l-125 161h89l74 -101l76 101h87l-125 -161h-76zM296 -10q-125 0 -189 63t-64 184q0 122 69 184.5t190 62.5q86 0 147 -29v-81q-52 26 -126 26q-85 0 -127.5 -38t-42.5 -125q0 -86 39.5 -125t128.5 -39q71 0 129 27v-83q-66 -27 -154 -27z" />
    <glyph glyph-name="Dcaron" unicode="&#x10e;" horiz-adv-x="649" 
d="M264 698l-125 161h89l74 -101l76 101h87l-125 -161h-76zM63 0v644h261q145 0 213 -77t68 -249q0 -165 -68 -241.5t-213 -76.5h-261zM172 84h135q50 0 83 10t58 35.5t36.5 71.5t11.5 117q0 138 -42.5 189.5t-146.5 51.5h-135v-475z" />
    <glyph glyph-name="dcaron" unicode="&#x10f;" horiz-adv-x="645" 
d="M546 511l79 185h93l-87 -185h-85zM259 -10q-101 0 -158.5 60.5t-57.5 184.5t59.5 186.5t161.5 62.5q86 0 146 -41v231h109v-674h-93l-7 47q-63 -57 -160 -57zM288 72q73 0 122 50v237q-47 42 -118 42q-70 0 -104.5 -40t-34.5 -127q0 -84 32.5 -123t102.5 -39z" />
    <glyph glyph-name="Dcroat" unicode="&#x110;" horiz-adv-x="679" 
d="M93 0v274h-70v84h70v286h261q145 0 213 -77t68 -249q0 -165 -68 -241.5t-213 -76.5h-261zM202 84h135q50 0 83 10t58 35.5t36.5 71.5t11.5 117q0 138 -42.5 189.5t-146.5 51.5h-135v-201h165v-84h-165v-190z" />
    <glyph glyph-name="dcroat" unicode="&#x111;" horiz-adv-x="582" 
d="M259 -10q-101 0 -158.5 60.5t-57.5 184.5t59.5 186.5t161.5 62.5q86 0 146 -41v92h-162v78h162v61h109v-61h49v-78h-49v-535h-93l-7 47q-63 -57 -160 -57zM288 72q73 0 122 50v237q-47 42 -118 42q-70 0 -104.5 -40t-34.5 -127q0 -84 32.5 -123t102.5 -39z" />
    <glyph glyph-name="Emacron" unicode="&#x112;" horiz-adv-x="550" 
d="M128 721v71h298v-71h-298zM63 0v644h449v-85h-340v-195h303v-84h-303v-196h340v-84h-449z" />
    <glyph glyph-name="emacron" unicode="&#x113;" horiz-adv-x="537" 
d="M134 555v71h298v-71h-298zM303 -10q-126 0 -193 62t-67 186q0 117 59 181.5t175 64.5q105 0 161 -55t56 -147v-88h-347q8 -68 49 -94.5t129 -26.5q77 0 140 25v-80q-63 -28 -162 -28zM147 265h251v33q0 104 -118 104q-74 0 -103.5 -32t-29.5 -105z" />
    <glyph glyph-name="Ebreve" unicode="&#x114;" horiz-adv-x="550" 
d="M289 688q-66 0 -103.5 38t-37.5 103h74q0 -35 17.5 -55.5t49.5 -20.5q33 0 51.5 20.5t18.5 55.5h74q0 -65 -38.5 -103t-105.5 -38zM63 0v644h449v-85h-340v-195h303v-84h-303v-196h340v-84h-449z" />
    <glyph glyph-name="ebreve" unicode="&#x115;" horiz-adv-x="537" 
d="M275 522q-66 0 -103.5 38t-37.5 103h74q0 -35 17.5 -55.5t49.5 -20.5q33 0 51.5 20.5t18.5 55.5h74q0 -65 -38.5 -103t-105.5 -38zM303 -10q-126 0 -193 62t-67 186q0 117 59 181.5t175 64.5q105 0 161 -55t56 -147v-88h-347q8 -68 49 -94.5t129 -26.5q77 0 140 25v-80
q-63 -28 -162 -28zM147 265h251v33q0 104 -118 104q-74 0 -103.5 -32t-29.5 -105z" />
    <glyph glyph-name="Edotaccent" unicode="&#x116;" horiz-adv-x="550" 
d="M237 711v88h92v-88h-92zM63 0v644h449v-85h-340v-195h303v-84h-303v-196h340v-84h-449z" />
    <glyph glyph-name="edotaccent" unicode="&#x117;" horiz-adv-x="537" 
d="M228 545v88h92v-88h-92zM303 -10q-126 0 -193 62t-67 186q0 117 59 181.5t175 64.5q105 0 161 -55t56 -147v-88h-347q8 -68 49 -94.5t129 -26.5q77 0 140 25v-80q-63 -28 -162 -28zM147 265h251v33q0 104 -118 104q-74 0 -103.5 -32t-29.5 -105z" />
    <glyph glyph-name="Eogonek" unicode="&#x118;" horiz-adv-x="550" 
d="M512 559h-340v-195h303v-84h-303v-196h340v-84h-41q-69 -53 -69 -112q0 -40 47 -40q31 0 50 11v-66q-28 -13 -77 -13q-46 0 -76.5 22.5t-30.5 66.5q0 80 74 131h-326v644h449v-85z" />
    <glyph glyph-name="eogonek" unicode="&#x119;" horiz-adv-x="537" 
d="M494 282v-88h-347q8 -68 49 -94.5t129 -26.5q77 0 140 25v-80q-33 -14 -64 -19q-67 -53 -67 -111q0 -40 47 -40q31 0 50 11v-66q-28 -13 -77 -13q-46 0 -76.5 22.5t-30.5 66.5q0 71 61 121h-5q-126 0 -193 62t-67 186q0 117 59 181.5t175 64.5q105 0 161 -55t56 -147z
M398 265v33q0 104 -118 104q-74 0 -103.5 -32t-29.5 -105h251z" />
    <glyph glyph-name="Ecaron" unicode="&#x11a;" horiz-adv-x="550" 
d="M253 687l-125 161h89l74 -101l76 101h87l-125 -161h-76zM63 0v644h449v-85h-340v-195h303v-84h-303v-196h340v-84h-449z" />
    <glyph glyph-name="ecaron" unicode="&#x11b;" horiz-adv-x="537" 
d="M243 521l-125 161h89l74 -101l76 101h87l-125 -161h-76zM303 -10q-126 0 -193 62t-67 186q0 117 59 181.5t175 64.5q105 0 161 -55t56 -147v-88h-347q8 -68 49 -94.5t129 -26.5q77 0 140 25v-80q-63 -28 -162 -28zM147 265h251v33q0 104 -118 104q-74 0 -103.5 -32
t-29.5 -105z" />
    <glyph glyph-name="Gcircumflex" unicode="&#x11c;" horiz-adv-x="641" 
d="M194 687l125 161h76l125 -161h-87l-76 101l-74 -101h-89zM363 -10q-156 0 -238 84.5t-82 234.5q0 163 81 254t242 91q107 0 191 -29v-94q-82 30 -182 30q-119 0 -170.5 -62.5t-51.5 -189.5q0 -227 213 -227q86 0 139 20v180h-161v71h254v-310q-82 -53 -235 -53z" />
    <glyph glyph-name="gcircumflex" unicode="&#x11d;" horiz-adv-x="554" 
d="M106 521l125 161h76l125 -161h-87l-76 101l-74 -101h-89zM255 -176q-121 0 -196 26v84q79 -27 191 -27q76 0 107 8.5t31 35.5q0 21 -16.5 29.5t-60.5 8.5h-128q-129 0 -129 91q0 67 71 92q-80 39 -80 139q0 90 54 131.5t164 41.5q39 0 87 -10h174l-3 -71h-80
q37 -33 37 -92q0 -78 -46.5 -120.5t-138.5 -42.5q-24 0 -59 5q-32 -3 -55 -16.5t-23 -34.5q0 -28 52 -28h133q71 0 109.5 -30.5t38.5 -88.5q0 -69 -58.5 -100t-175.5 -31zM263 217q65 0 90.5 21.5t25.5 75.5t-26 77.5t-90 23.5q-62 0 -89.5 -23.5t-27.5 -77.5
q0 -52 26.5 -74.5t90.5 -22.5z" />
    <glyph glyph-name="Gbreve" unicode="&#x11e;" horiz-adv-x="641" 
d="M358 688q-66 0 -103.5 38t-37.5 103h74q0 -35 17.5 -55.5t49.5 -20.5q33 0 51.5 20.5t18.5 55.5h74q0 -65 -38.5 -103t-105.5 -38zM363 -10q-156 0 -238 84.5t-82 234.5q0 163 81 254t242 91q107 0 191 -29v-94q-82 30 -182 30q-119 0 -170.5 -62.5t-51.5 -189.5
q0 -227 213 -227q86 0 139 20v180h-161v71h254v-310q-82 -53 -235 -53z" />
    <glyph glyph-name="gbreve" unicode="&#x11f;" horiz-adv-x="554" 
d="M267 522q-66 0 -103.5 38t-37.5 103h74q0 -35 17.5 -55.5t49.5 -20.5q33 0 51.5 20.5t18.5 55.5h74q0 -65 -38.5 -103t-105.5 -38zM255 -176q-121 0 -196 26v84q79 -27 191 -27q76 0 107 8.5t31 35.5q0 21 -16.5 29.5t-60.5 8.5h-128q-129 0 -129 91q0 67 71 92
q-80 39 -80 139q0 90 54 131.5t164 41.5q39 0 87 -10h174l-3 -71h-80q37 -33 37 -92q0 -78 -46.5 -120.5t-138.5 -42.5q-24 0 -59 5q-32 -3 -55 -16.5t-23 -34.5q0 -28 52 -28h133q71 0 109.5 -30.5t38.5 -88.5q0 -69 -58.5 -100t-175.5 -31zM263 217q65 0 90.5 21.5
t25.5 75.5t-26 77.5t-90 23.5q-62 0 -89.5 -23.5t-27.5 -77.5q0 -52 26.5 -74.5t90.5 -22.5z" />
    <glyph glyph-name="Gdotaccent" unicode="&#x120;" horiz-adv-x="641" 
d="M317 711v88h92v-88h-92zM363 -10q-156 0 -238 84.5t-82 234.5q0 163 81 254t242 91q107 0 191 -29v-94q-82 30 -182 30q-119 0 -170.5 -62.5t-51.5 -189.5q0 -227 213 -227q86 0 139 20v180h-161v71h254v-310q-82 -53 -235 -53z" />
    <glyph glyph-name="gdotaccent" unicode="&#x121;" horiz-adv-x="554" 
d="M215 537v88h92v-88h-92zM255 -176q-121 0 -196 26v84q79 -27 191 -27q76 0 107 8.5t31 35.5q0 21 -16.5 29.5t-60.5 8.5h-128q-129 0 -129 91q0 67 71 92q-80 39 -80 139q0 90 54 131.5t164 41.5q39 0 87 -10h174l-3 -71h-80q37 -33 37 -92q0 -78 -46.5 -120.5
t-138.5 -42.5q-24 0 -59 5q-32 -3 -55 -16.5t-23 -34.5q0 -28 52 -28h133q71 0 109.5 -30.5t38.5 -88.5q0 -69 -58.5 -100t-175.5 -31zM263 217q65 0 90.5 21.5t25.5 75.5t-26 77.5t-90 23.5q-62 0 -89.5 -23.5t-27.5 -77.5q0 -52 26.5 -74.5t90.5 -22.5z" />
    <glyph glyph-name="Gcommaaccent" unicode="&#x122;" horiz-adv-x="641" 
d="M363 -10q-156 0 -238 84.5t-82 234.5q0 163 81 254t242 91q107 0 191 -29v-94q-82 30 -182 30q-119 0 -170.5 -62.5t-51.5 -189.5q0 -227 213 -227q86 0 139 20v180h-161v71h254v-310q-82 -53 -235 -53zM301 -231l29 189h90l-46 -189h-73z" />
    <glyph glyph-name="gcommaaccent" unicode="&#x123;" horiz-adv-x="554" 
d="M215 522l46 189h73l-29 -189h-90zM255 -176q-121 0 -196 26v84q79 -27 191 -27q76 0 107 8.5t31 35.5q0 21 -16.5 29.5t-60.5 8.5h-128q-129 0 -129 91q0 67 71 92q-80 39 -80 139q0 90 54 131.5t164 41.5q39 0 87 -10h174l-3 -71h-80q37 -33 37 -92q0 -78 -46.5 -120.5
t-138.5 -42.5q-24 0 -59 5q-32 -3 -55 -16.5t-23 -34.5q0 -28 52 -28h133q71 0 109.5 -30.5t38.5 -88.5q0 -69 -58.5 -100t-175.5 -31zM263 217q65 0 90.5 21.5t25.5 75.5t-26 77.5t-90 23.5q-62 0 -89.5 -23.5t-27.5 -77.5q0 -52 26.5 -74.5t90.5 -22.5z" />
    <glyph glyph-name="Hcircumflex" unicode="&#x124;" horiz-adv-x="654" 
d="M163 687l125 161h76l125 -161h-87l-76 101l-74 -101h-89zM63 0v644h109v-280h310v280h109v-644h-109v280h-310v-280h-109z" />
    <glyph glyph-name="hcircumflex" unicode="&#x125;" horiz-adv-x="578" 
d="M68 702l125 161h76l125 -161h-87l-76 101l-74 -101h-89zM63 0v674h109v-246q70 56 171 56q90 0 133 -43t43 -134v-307h-108v302q0 55 -23.5 77t-81.5 22q-36 0 -73 -15.5t-61 -40.5v-345h-109z" />
    <glyph glyph-name="Hbar" unicode="&#x126;" horiz-adv-x="654" 
d="M63 0v457h-50v85h50v102h109v-102h310v102h109v-102h50v-85h-50v-457h-109v280h-310v-280h-109zM172 364h310v93h-310v-93z" />
    <glyph glyph-name="hbar" unicode="&#x127;" horiz-adv-x="587" 
d="M72 0v536h-54v79h54v59h108v-59h150v-79h-150v-108q71 56 172 56q90 0 133 -43t43 -134v-307h-109v302q0 55 -23.5 77t-81.5 22q-36 0 -72.5 -15.5t-61.5 -40.5v-345h-108z" />
    <glyph glyph-name="Itilde" unicode="&#x128;" horiz-adv-x="235" 
d="M197 696q-29 0 -79.5 19.5t-72.5 19.5q-55 0 -87 -36v80q28 30 85 30q30 0 78.5 -19.5t74.5 -19.5q52 0 80 37v-80q-22 -31 -79 -31zM63 0v644h109v-644h-109z" />
    <glyph glyph-name="itilde" unicode="&#x129;" horiz-adv-x="308" 
d="M235 529q-29 0 -79.5 19.5t-72.5 19.5q-55 0 -87 -36v80q28 30 85 30q30 0 78.5 -19.5t74.5 -19.5q52 0 80 37v-80q-22 -31 -79 -31zM135 0v391h-72l10 83h171v-474h-109z" />
    <glyph glyph-name="Imacron" unicode="&#x12a;" horiz-adv-x="235" 
d="M-32 721v71h298v-71h-298zM63 0v644h109v-644h-109z" />
    <glyph glyph-name="imacron" unicode="&#x12b;" horiz-adv-x="308" 
d="M6 565v71h298v-71h-298zM135 0v391h-72l10 83h171v-474h-109z" />
    <glyph glyph-name="Ibreve" unicode="&#x12c;" horiz-adv-x="235" 
d="M116 698q-66 0 -103.5 38t-37.5 103h74q0 -35 17.5 -55.5t49.5 -20.5q33 0 51.5 20.5t18.5 55.5h74q0 -65 -38.5 -103t-105.5 -38zM63 0v644h109v-644h-109z" />
    <glyph glyph-name="ibreve" unicode="&#x12d;" horiz-adv-x="308" 
d="M162 521q-66 0 -103.5 38t-37.5 104h74q0 -36 17.5 -56.5t49.5 -20.5q33 0 51.5 20.5t18.5 56.5h74q0 -65 -38.5 -103.5t-105.5 -38.5zM135 0v391h-72l10 83h171v-474h-109z" />
    <glyph glyph-name="Iogonek" unicode="&#x12e;" horiz-adv-x="235" 
d="M140 -152q31 0 50 11v-66q-28 -13 -77 -13q-46 0 -76.5 22.5t-30.5 66.5q0 80 74 131h-17v644h109v-644h-10q-69 -53 -69 -112q0 -40 47 -40z" />
    <glyph glyph-name="iogonek" unicode="&#x12f;" horiz-adv-x="308" 
d="M245 663v-90h-119v90h119zM208 -152q31 0 50 11v-66q-28 -13 -77 -13q-46 0 -76.5 22.5t-30.5 66.5q0 80 74 131h-13v391h-72l10 83h171v-474h-14q-69 -53 -69 -112q0 -40 47 -40z" />
    <glyph glyph-name="Idotaccent" unicode="&#x130;" horiz-adv-x="235" 
d="M71 714v88h92v-88h-92zM63 0v644h109v-644h-109z" />
    <glyph glyph-name="dotlessi" unicode="&#x131;" horiz-adv-x="308" 
d="M135 0v391h-72l10 83h171v-474h-109z" />
    <glyph glyph-name="IJ" unicode="&#x132;" horiz-adv-x="651" 
d="M63 0v644h109v-644h-109zM382 -10q-82 0 -140 23v92q53 -23 121 -23q66 0 93 27t27 89v446h109v-464q0 -93 -53 -141.5t-157 -48.5z" />
    <glyph glyph-name="ij" unicode="&#x133;" horiz-adv-x="544" 
d="M126 573v90h119v-90h-119zM361 573v90h119v-90h-119zM135 0v391h-72l10 83h171v-474h-109zM326 -234q-58 0 -99 16v79q31 -10 61 -10q47 0 65.5 16.5t18.5 56.5v467h-72l10 83h170v-560q0 -69 -39.5 -108.5t-114.5 -39.5z" />
    <glyph glyph-name="Jcircumflex" unicode="&#x134;" horiz-adv-x="431" 
d="M155 687l125 161h76l125 -161h-87l-76 101l-74 -101h-89zM163 -10q-82 0 -140 23v92q53 -23 121 -23q66 0 93 27t27 89v446h109v-464q0 -93 -53 -141.5t-157 -48.5z" />
    <glyph glyph-name="jcircumflex" unicode="&#x135;" horiz-adv-x="306" 
d="M7 521l125 161h76l125 -161h-87l-76 101l-74 -101h-89zM89 -234q-58 0 -99 16v79q31 -10 61 -10q47 0 65.5 16.5t18.5 56.5v467h-72l10 83h170v-560q0 -69 -39.5 -108.5t-114.5 -39.5z" />
    <glyph glyph-name="Kcommaaccent" unicode="&#x136;" horiz-adv-x="625" 
d="M63 0v644h109v-296l274 296h126l-237 -260l247 -384h-116l-199 315l-95 -102v-213h-109zM244 -226l29 189h90l-46 -189h-73z" />
    <glyph glyph-name="kcommaaccent" unicode="&#x137;" horiz-adv-x="550" 
d="M63 0v674h109v-390l199 190h125l-193 -191l204 -283h-115l-157 225l-63 -60v-165h-109zM198 -226l29 189h90l-46 -189h-73z" />
    <glyph glyph-name="kgreenlandic" unicode="&#x138;" horiz-adv-x="550" 
d="M63 0v474h109v-208l199 208h125l-193 -204l204 -270h-115l-156 211l-64 -66v-145h-109z" />
    <glyph glyph-name="Lacute" unicode="&#x139;" horiz-adv-x="525" 
d="M71 688l75 177h96l-84 -177h-87zM63 0v644h109v-560h330v-84h-439z" />
    <glyph glyph-name="lacute" unicode="&#x13a;" horiz-adv-x="280" 
d="M71 732l75 177h96l-84 -177h-87zM181 -10q-60 0 -89 29t-29 94v561h109v-551q0 -27 9.5 -37.5t30.5 -10.5q24 0 46 6v-79q-33 -12 -77 -12z" />
    <glyph glyph-name="Lcommaaccent" unicode="&#x13b;" horiz-adv-x="525" 
d="M63 0v644h109v-560h330v-84h-439zM218 -226l29 189h90l-46 -189h-73z" />
    <glyph glyph-name="lcommaaccent" unicode="&#x13c;" horiz-adv-x="280" 
d="M181 -10q-60 0 -89 29t-29 94v561h109v-551q0 -27 9.5 -37.5t30.5 -10.5q24 0 46 6v-79q-33 -12 -77 -12zM104 -226l29 189h90l-46 -189h-73z" />
    <glyph glyph-name="Lcaron" unicode="&#x13d;" horiz-adv-x="525" 
d="M311 566l29 189h90l-46 -189h-73zM63 0v644h109v-560h330v-84h-439z" />
    <glyph glyph-name="lcaron" unicode="&#x13e;" horiz-adv-x="311" 
d="M229 649l29 189h90l-46 -189h-73zM181 -10q-60 0 -89 29t-29 94v561h109v-551q0 -27 9.5 -37.5t30.5 -10.5q24 0 46 6v-79q-33 -12 -77 -12z" />
    <glyph glyph-name="Ldot" unicode="&#x13f;" horiz-adv-x="525" 
d="M63 0v644h109v-560h330v-84h-439zM316 267v88h92v-88h-92z" />
    <glyph glyph-name="ldot" unicode="&#x140;" horiz-adv-x="305" 
d="M181 -10q-60 0 -89 29t-29 94v561h109v-551q0 -27 9.5 -37.5t30.5 -10.5q24 0 46 6v-79q-33 -12 -77 -12zM236 273v88h92v-88h-92z" />
    <glyph glyph-name="Lslash" unicode="&#x141;" horiz-adv-x="525" 
d="M63 0v267l-87 -38v84l87 38v293h109v-245l129 57v-84l-129 -57v-231h330v-84h-439z" />
    <glyph glyph-name="lslash" unicode="&#x142;" horiz-adv-x="280" 
d="M181 -10q-60 0 -89 29t-29 94v161l-97 -42v84l97 42v316h109v-268l109 48v-84l-109 -48v-199q0 -27 9.5 -37.5t30.5 -10.5q24 0 46 6v-79q-33 -12 -77 -12z" />
    <glyph glyph-name="Nacute" unicode="&#x143;" horiz-adv-x="667" 
d="M283 688l75 177h96l-84 -177h-87zM63 0v644h96l336 -474v474h108v-644h-96l-335 473v-473h-109z" />
    <glyph glyph-name="nacute" unicode="&#x144;" horiz-adv-x="578" 
d="M230 522l75 177h96l-84 -177h-87zM63 0v474h100l5 -50q76 60 175 60q92 0 134 -43t42 -134v-307h-108v302q0 55 -23 77t-84 22q-78 0 -132 -54v-347h-109z" />
    <glyph glyph-name="Ncommaaccent" unicode="&#x145;" horiz-adv-x="667" 
d="M63 0v644h96l336 -474v474h108v-644h-96l-335 473v-473h-109zM269 -226l29 189h90l-46 -189h-73z" />
    <glyph glyph-name="ncommaaccent" unicode="&#x146;" horiz-adv-x="578" 
d="M63 0v474h100l5 -50q76 60 175 60q92 0 134 -43t42 -134v-307h-108v302q0 55 -23 77t-84 22q-78 0 -132 -54v-347h-109zM228 -226l29 189h90l-46 -189h-73z" />
    <glyph glyph-name="Ncaron" unicode="&#x147;" horiz-adv-x="667" 
d="M303 687l-125 161h89l74 -101l76 101h87l-125 -161h-76zM63 0v644h96l336 -474v474h108v-644h-96l-335 473v-473h-109z" />
    <glyph glyph-name="ncaron" unicode="&#x148;" horiz-adv-x="578" 
d="M241 521l-125 161h89l74 -101l76 101h87l-125 -161h-76zM63 0v474h100l5 -50q76 60 175 60q92 0 134 -43t42 -134v-307h-108v302q0 55 -23 77t-84 22q-78 0 -132 -54v-347h-109z" />
    <glyph glyph-name="napostrophe" unicode="&#x149;" horiz-adv-x="634" 
d="M-17 458l29 189h90l-46 -189h-73zM119 0v474h100l5 -50q76 60 175 60q92 0 134 -43t42 -134v-307h-108v302q0 55 -23 77t-84 22q-78 0 -132 -54v-347h-109z" />
    <glyph glyph-name="Eng" unicode="&#x14a;" horiz-adv-x="667" 
d="M449 -234q-58 0 -99 16v79q31 -10 61 -10q47 0 65.5 16.5t18.5 56.5v93l-323 456v-473h-109v644h96l336 -474v474h108v-730q0 -69 -39.5 -108.5t-114.5 -39.5z" />
    <glyph glyph-name="eng" unicode="&#x14b;" horiz-adv-x="578" 
d="M365 -234q-58 0 -99 16v79q31 -10 61 -10q47 0 65.5 16.5t18.5 56.5v378q0 55 -23 77t-84 22q-78 0 -132 -54v-347h-109v474h100l5 -50q76 60 175 60q92 0 134 -43t42 -134v-393q0 -69 -39.5 -108.5t-114.5 -39.5z" />
    <glyph glyph-name="Omacron" unicode="&#x14c;" horiz-adv-x="697" 
d="M197 721v71h298v-71h-298zM348 -10q-154 0 -229.5 80.5t-75.5 249.5q0 174 75 254t230 80t230 -80t75 -254q0 -169 -75.5 -249.5t-229.5 -80.5zM348 82q102 0 149 56t47 182q0 131 -46.5 186t-149.5 55q-102 0 -148.5 -55t-46.5 -186q0 -125 47 -181.5t148 -56.5z" />
    <glyph glyph-name="omacron" unicode="&#x14d;" horiz-adv-x="581" 
d="M138 555v71h298v-71h-298zM290 -10q-247 0 -247 247t247 247q248 0 248 -247t-248 -247zM290 82q75 0 106.5 36t31.5 119q0 82 -31.5 118t-106.5 36q-74 0 -105.5 -36t-31.5 -118q0 -83 31.5 -119t105.5 -36z" />
    <glyph glyph-name="Obreve" unicode="&#x14e;" horiz-adv-x="697" 
d="M347 688q-66 0 -103.5 38t-37.5 103h74q0 -35 17.5 -55.5t49.5 -20.5q33 0 51.5 20.5t18.5 55.5h74q0 -65 -38.5 -103t-105.5 -38zM348 -10q-154 0 -229.5 80.5t-75.5 249.5q0 174 75 254t230 80t230 -80t75 -254q0 -169 -75.5 -249.5t-229.5 -80.5zM348 82q102 0 149 56
t47 182q0 131 -46.5 186t-149.5 55q-102 0 -148.5 -55t-46.5 -186q0 -125 47 -181.5t148 -56.5z" />
    <glyph glyph-name="obreve" unicode="&#x14f;" horiz-adv-x="581" 
d="M289 522q-66 0 -103.5 38t-37.5 103h74q0 -35 17.5 -55.5t49.5 -20.5q33 0 51.5 20.5t18.5 55.5h74q0 -65 -38.5 -103t-105.5 -38zM290 -10q-247 0 -247 247t247 247q248 0 248 -247t-248 -247zM290 82q75 0 106.5 36t31.5 119q0 82 -31.5 118t-106.5 36
q-74 0 -105.5 -36t-31.5 -118q0 -83 31.5 -119t105.5 -36z" />
    <glyph glyph-name="Ohungarumlaut" unicode="&#x150;" horiz-adv-x="697" 
d="M170 687l75 164h99l-86 -164h-88zM387 687l75 164h99l-86 -164h-88zM348 -10q-154 0 -229.5 80.5t-75.5 249.5q0 174 75 254t230 80t230 -80t75 -254q0 -169 -75.5 -249.5t-229.5 -80.5zM348 82q102 0 149 56t47 182q0 131 -46.5 186t-149.5 55q-102 0 -148.5 -55
t-46.5 -186q0 -125 47 -181.5t148 -56.5z" />
    <glyph glyph-name="ohungarumlaut" unicode="&#x151;" horiz-adv-x="581" 
d="M135 521l75 164h99l-86 -164h-88zM352 521l75 164h99l-86 -164h-88zM290 -10q-247 0 -247 247t247 247q248 0 248 -247t-248 -247zM290 82q75 0 106.5 36t31.5 119q0 82 -31.5 118t-106.5 36q-74 0 -105.5 -36t-31.5 -118q0 -83 31.5 -119t105.5 -36z" />
    <glyph glyph-name="OE" unicode="&#x152;" horiz-adv-x="1037" 
d="M993 559h-340v-195h303v-84h-303v-196h340v-84h-449v41q-74 -51 -196 -51q-154 0 -229.5 80.5t-75.5 249.5q0 174 75 254t230 80q124 0 196 -50v40h449v-85zM348 82q102 0 149 56t47 182q0 131 -46.5 186t-149.5 55q-102 0 -148.5 -55t-46.5 -186q0 -125 47 -181.5
t148 -56.5z" />
    <glyph glyph-name="oe" unicode="&#x153;" horiz-adv-x="927" 
d="M884 282v-88h-347q8 -68 49 -94.5t129 -26.5q77 0 140 25v-80q-63 -28 -162 -28q-140 0 -205 74q-62 -74 -198 -74q-247 0 -247 247t247 247q134 0 195 -72q61 72 182 72q105 0 161 -55t56 -147zM788 265v33q0 104 -118 104q-73 0 -103 -32t-30 -103v-2h251zM290 82
q75 0 106.5 36t31.5 119q0 82 -31.5 118t-106.5 36q-74 0 -105.5 -36t-31.5 -118q0 -83 31.5 -119t105.5 -36z" />
    <glyph glyph-name="Racute" unicode="&#x154;" horiz-adv-x="610" 
d="M239 688l75 177h96l-84 -177h-87zM63 0v644h296q105 0 156 -54t51 -152q0 -69 -34.5 -116.5t-97.5 -66.5q27 -19 48 -68l81 -187h-112l-79 180q-12 27 -28 37.5t-51 10.5h-121v-228h-109zM172 316h158q127 0 127 122q0 121 -117 121h-168v-243z" />
    <glyph glyph-name="racute" unicode="&#x155;" horiz-adv-x="367" 
d="M69 522l75 177h96l-84 -177h-87zM63 0v474h100l6 -55q76 49 174 65v-83q-106 -19 -171 -59v-342h-109z" />
    <glyph glyph-name="Rcommaaccent" unicode="&#x156;" horiz-adv-x="610" 
d="M63 0v644h296q105 0 156 -54t51 -152q0 -69 -34.5 -116.5t-97.5 -66.5q27 -19 48 -68l81 -187h-112l-79 180q-12 27 -28 37.5t-51 10.5h-121v-228h-109zM172 316h158q127 0 127 122q0 121 -117 121h-168v-243zM218 -226l29 189h90l-46 -189h-73z" />
    <glyph glyph-name="rcommaaccent" unicode="&#x157;" horiz-adv-x="367" 
d="M63 0v474h100l6 -55q76 49 174 65v-83q-106 -19 -171 -59v-342h-109zM41 -226l29 189h90l-46 -189h-73z" />
    <glyph glyph-name="Rcaron" unicode="&#x158;" horiz-adv-x="610" 
d="M256 687l-125 161h89l74 -101l76 101h87l-125 -161h-76zM63 0v644h296q105 0 156 -54t51 -152q0 -69 -34.5 -116.5t-97.5 -66.5q27 -19 48 -68l81 -187h-112l-79 180q-12 27 -28 37.5t-51 10.5h-121v-228h-109zM172 316h158q127 0 127 122q0 121 -117 121h-168v-243z" />
    <glyph glyph-name="rcaron" unicode="&#x159;" horiz-adv-x="367" 
d="M98 521l-125 161h89l74 -101l76 101h87l-125 -161h-76zM63 0v474h100l6 -55q76 49 174 65v-83q-106 -19 -171 -59v-342h-109z" />
    <glyph glyph-name="Sacute" unicode="&#x15a;" horiz-adv-x="555" 
d="M217 691l75 177h96l-84 -177h-87zM258 -10q-125 0 -201 32v96q93 -36 191 -36q81 0 117.5 19t36.5 71q0 47 -34.5 69.5t-136.5 48.5q-104 27 -146 68.5t-42 114.5q0 86 63 133.5t184 47.5q107 0 183 -26v-96q-76 29 -168 29q-76 0 -114 -20t-38 -68q0 -42 31.5 -62.5
t126.5 -44.5q113 -29 157 -75t44 -119q0 -86 -64.5 -134t-189.5 -48z" />
    <glyph glyph-name="sacute" unicode="&#x15b;" horiz-adv-x="464" 
d="M177 522l75 177h96l-84 -177h-87zM221 -10q-102 0 -167 24v92q67 -27 153 -27q58 0 81 10t23 39q0 7 -1.5 13t-5.5 11t-7.5 8.5t-11.5 8t-14 7.5t-18 7t-20 7t-24.5 8t-27.5 9q-72 24 -105 53.5t-33 87.5q0 136 198 136q80 0 141 -21v-91q-57 23 -124 23q-55 0 -80 -9.5
t-25 -35.5q0 -24 19 -35t75 -29q14 -4 22 -7q85 -26 118 -57.5t33 -92.5q0 -139 -199 -139z" />
    <glyph glyph-name="Scircumflex" unicode="&#x15c;" horiz-adv-x="555" 
d="M112 695l125 161h76l125 -161h-87l-76 101l-74 -101h-89zM258 -10q-125 0 -201 32v96q93 -36 191 -36q81 0 117.5 19t36.5 71q0 47 -34.5 69.5t-136.5 48.5q-104 27 -146 68.5t-42 114.5q0 86 63 133.5t184 47.5q107 0 183 -26v-96q-76 29 -168 29q-76 0 -114 -20
t-38 -68q0 -42 31.5 -62.5t126.5 -44.5q113 -29 157 -75t44 -119q0 -86 -64.5 -134t-189.5 -48z" />
    <glyph glyph-name="scircumflex" unicode="&#x15d;" horiz-adv-x="464" 
d="M73 526l125 161h76l125 -161h-87l-76 101l-74 -101h-89zM221 -10q-102 0 -167 24v92q67 -27 153 -27q58 0 81 10t23 39q0 7 -1.5 13t-5.5 11t-7.5 8.5t-11.5 8t-14 7.5t-18 7t-20 7t-24.5 8t-27.5 9q-72 24 -105 53.5t-33 87.5q0 136 198 136q80 0 141 -21v-91
q-57 23 -124 23q-55 0 -80 -9.5t-25 -35.5q0 -24 19 -35t75 -29q14 -4 22 -7q85 -26 118 -57.5t33 -92.5q0 -139 -199 -139z" />
    <glyph glyph-name="Scedilla" unicode="&#x15e;" horiz-adv-x="555" 
d="M512 172q0 -79 -54.5 -126.5t-161.5 -54.5l-13 -38q53 0 81 -23.5t28 -66.5q0 -103 -148 -103q-43 0 -73 8v59q29 -8 62 -8q47 0 66 9t19 36q0 26 -18.5 33.5t-62.5 7.5h-40l26 86q-99 3 -166 31v96q93 -36 191 -36q81 0 117.5 19t36.5 71q0 47 -34.5 69.5t-136.5 48.5
q-104 27 -146 68.5t-42 114.5q0 86 63 133.5t184 47.5q107 0 183 -26v-96q-76 29 -168 29q-76 0 -114 -20t-38 -68q0 -42 31.5 -62.5t126.5 -44.5q113 -29 157 -75t44 -119z" />
    <glyph glyph-name="scedilla" unicode="&#x15f;" horiz-adv-x="464" 
d="M420 129q0 -125 -159 -137l-13 -39q53 0 81 -23.5t28 -66.5q0 -103 -148 -103q-43 0 -73 8v59q29 -8 62 -8q47 0 66 9t19 36q0 26 -18.5 33.5t-62.5 7.5h-40l26 86q-81 3 -134 23v92q67 -27 153 -27q58 0 81 10t23 39q0 7 -1.5 13t-5.5 11t-7.5 8.5t-11.5 8t-14 7.5
t-18 7t-20 7t-24.5 8t-27.5 9q-72 24 -105 53.5t-33 87.5q0 136 198 136q80 0 141 -21v-91q-57 23 -124 23q-55 0 -80 -9.5t-25 -35.5q0 -24 19 -35t75 -29q14 -4 22 -7q85 -26 118 -57.5t33 -92.5z" />
    <glyph glyph-name="Scaron" unicode="&#x160;" horiz-adv-x="555" 
d="M252 687l-125 161h89l74 -101l76 101h87l-125 -161h-76zM258 -10q-125 0 -201 32v96q93 -36 191 -36q81 0 117.5 19t36.5 71q0 47 -34.5 69.5t-136.5 48.5q-104 27 -146 68.5t-42 114.5q0 86 63 133.5t184 47.5q107 0 183 -26v-96q-76 29 -168 29q-76 0 -114 -20t-38 -68
q0 -42 31.5 -62.5t126.5 -44.5q113 -29 157 -75t44 -119q0 -86 -64.5 -134t-189.5 -48z" />
    <glyph glyph-name="scaron" unicode="&#x161;" horiz-adv-x="464" 
d="M196 521l-125 161h89l74 -101l76 101h87l-125 -161h-76zM221 -10q-102 0 -167 24v92q67 -27 153 -27q58 0 81 10t23 39q0 7 -1.5 13t-5.5 11t-7.5 8.5t-11.5 8t-14 7.5t-18 7t-20 7t-24.5 8t-27.5 9q-72 24 -105 53.5t-33 87.5q0 136 198 136q80 0 141 -21v-91
q-57 23 -124 23q-55 0 -80 -9.5t-25 -35.5q0 -24 19 -35t75 -29q14 -4 22 -7q85 -26 118 -57.5t33 -92.5q0 -139 -199 -139z" />
    <glyph glyph-name="uni0162" unicode="&#x162;" horiz-adv-x="568" 
d="M339 0h-20l-16 -47q53 0 81 -23.5t28 -66.5q0 -103 -148 -103q-43 0 -73 8v59q29 -8 62 -8q47 0 66 9t19 36q0 26 -18.5 33.5t-62.5 7.5h-40l29 95h-16v559h-206v85h520v-85h-205v-559z" />
    <glyph glyph-name="uni0163" unicode="&#x163;" horiz-adv-x="374" 
d="M251 -47q53 0 81 -23.5t28 -66.5q0 -103 -148 -103q-43 0 -73 8v59q29 -8 62 -8q47 0 66 9t19 36q0 26 -18.5 33.5t-62.5 7.5h-40l28 91q-100 24 -100 145v248h-70v85h70v109l108 33v-142h126l-7 -85h-119v-242q0 -41 18.5 -57.5t62.5 -16.5q27 0 57 10v-77
q-32 -13 -75 -16z" />
    <glyph glyph-name="Tcaron" unicode="&#x164;" horiz-adv-x="568" 
d="M246 695l-125 161h89l74 -101l76 101h87l-125 -161h-76zM230 0v559h-206v85h520v-85h-205v-559h-109z" />
    <glyph glyph-name="tcaron" unicode="&#x165;" horiz-adv-x="422" 
d="M309 559l29 189h90l-46 -189h-73zM244 -10q-75 0 -113 39.5t-38 111.5v248h-70v85h70v109l108 33v-142h126l-7 -85h-119v-242q0 -41 18.5 -57.5t62.5 -16.5q27 0 57 10v-77q-39 -16 -95 -16z" />
    <glyph glyph-name="Tbar" unicode="&#x166;" horiz-adv-x="568" 
d="M230 0v306h-138v81h138v172h-206v85h520v-85h-205v-172h119v-81h-119v-306h-109z" />
    <glyph glyph-name="tbar" unicode="&#x167;" horiz-adv-x="369" 
d="M250 -10q-75 0 -113 39.5t-38 111.5v66h-76v75h76v107h-70v85h70v109l108 33v-142h126l-7 -85h-119v-107h120v-75h-120v-60q0 -41 18.5 -57.5t62.5 -16.5q27 0 57 10v-77q-39 -16 -95 -16z" />
    <glyph glyph-name="Utilde" unicode="&#x168;" horiz-adv-x="674" 
d="M411 703q-29 0 -79.5 19.5t-72.5 19.5q-55 0 -87 -36v80q28 30 85 30q30 0 78.5 -19.5t74.5 -19.5q52 0 80 37v-80q-22 -31 -79 -31zM338 -10q-134 0 -207 64t-73 185v405h109v-401q0 -80 44 -120.5t127 -40.5q82 0 126 40.5t44 120.5v401h108v-405q0 -121 -72.5 -185
t-205.5 -64z" />
    <glyph glyph-name="utilde" unicode="&#x169;" horiz-adv-x="578" 
d="M366 537q-29 0 -79.5 19.5t-72.5 19.5q-55 0 -87 -36v80q28 30 85 30q30 0 78.5 -19.5t74.5 -19.5q52 0 80 37v-80q-22 -31 -79 -31zM234 -10q-85 0 -130.5 47.5t-45.5 137.5v299h109v-299q0 -53 26 -78t80 -25q78 0 133 55v347h108v-474h-99l-5 49q-75 -59 -176 -59z
" />
    <glyph glyph-name="Umacron" unicode="&#x16a;" horiz-adv-x="674" 
d="M182 721v71h298v-71h-298zM338 -10q-134 0 -207 64t-73 185v405h109v-401q0 -80 44 -120.5t127 -40.5q82 0 126 40.5t44 120.5v401h108v-405q0 -121 -72.5 -185t-205.5 -64z" />
    <glyph glyph-name="umacron" unicode="&#x16b;" horiz-adv-x="578" 
d="M137 555v71h298v-71h-298zM234 -10q-85 0 -130.5 47.5t-45.5 137.5v299h109v-299q0 -53 26 -78t80 -25q78 0 133 55v347h108v-474h-99l-5 49q-75 -59 -176 -59z" />
    <glyph glyph-name="Ubreve" unicode="&#x16c;" horiz-adv-x="674" 
d="M324 688q-66 0 -103.5 38t-37.5 103h74q0 -35 17.5 -55.5t49.5 -20.5q33 0 51.5 20.5t18.5 55.5h74q0 -65 -38.5 -103t-105.5 -38zM338 -10q-134 0 -207 64t-73 185v405h109v-401q0 -80 44 -120.5t127 -40.5q82 0 126 40.5t44 120.5v401h108v-405q0 -121 -72.5 -185
t-205.5 -64z" />
    <glyph glyph-name="ubreve" unicode="&#x16d;" horiz-adv-x="578" 
d="M288 522q-66 0 -103.5 38t-37.5 103h74q0 -35 17.5 -55.5t49.5 -20.5q33 0 51.5 20.5t18.5 55.5h74q0 -65 -38.5 -103t-105.5 -38zM234 -10q-85 0 -130.5 47.5t-45.5 137.5v299h109v-299q0 -53 26 -78t80 -25q78 0 133 55v347h108v-474h-99l-5 49q-75 -59 -176 -59z" />
    <glyph glyph-name="Uring" unicode="&#x16e;" horiz-adv-x="674" 
d="M330 687q-52 0 -84 32.5t-32 80.5q0 49 32 81.5t84 32.5q53 0 85.5 -32.5t32.5 -81.5q0 -48 -32.5 -80.5t-85.5 -32.5zM330 741q27 0 44 17t17 42t-17 42t-44 17q-26 0 -42.5 -17t-16.5 -42t16.5 -42t42.5 -17zM338 -10q-134 0 -207 64t-73 185v405h109v-401
q0 -80 44 -120.5t127 -40.5q82 0 126 40.5t44 120.5v401h108v-405q0 -121 -72.5 -185t-205.5 -64z" />
    <glyph glyph-name="uring" unicode="&#x16f;" horiz-adv-x="578" 
d="M281 521q-52 0 -84 32.5t-32 80.5q0 49 32 81.5t84 32.5q53 0 85.5 -32.5t32.5 -81.5q0 -48 -32.5 -80.5t-85.5 -32.5zM281 575q27 0 44 17t17 42t-17 42t-44 17q-26 0 -42.5 -17t-16.5 -42t16.5 -42t42.5 -17zM234 -10q-85 0 -130.5 47.5t-45.5 137.5v299h109v-299
q0 -53 26 -78t80 -25q78 0 133 55v347h108v-474h-99l-5 49q-75 -59 -176 -59z" />
    <glyph glyph-name="Uhungarumlaut" unicode="&#x170;" horiz-adv-x="674" 
d="M154 687l75 164h99l-86 -164h-88zM371 687l75 164h99l-86 -164h-88zM338 -10q-134 0 -207 64t-73 185v405h109v-401q0 -80 44 -120.5t127 -40.5q82 0 126 40.5t44 120.5v401h108v-405q0 -121 -72.5 -185t-205.5 -64z" />
    <glyph glyph-name="uhungarumlaut" unicode="&#x171;" horiz-adv-x="578" 
d="M105 521l75 164h99l-86 -164h-88zM322 521l75 164h99l-86 -164h-88zM234 -10q-85 0 -130.5 47.5t-45.5 137.5v299h109v-299q0 -53 26 -78t80 -25q78 0 133 55v347h108v-474h-99l-5 49q-75 -59 -176 -59z" />
    <glyph glyph-name="Uogonek" unicode="&#x172;" horiz-adv-x="674" 
d="M508 644h108v-405q0 -106 -56.5 -168.5t-160.5 -76.5q-61 -51 -61 -106q0 -40 47 -40q31 0 50 11v-66q-28 -13 -77 -13q-46 0 -76.5 22.5t-30.5 66.5q0 71 62 122q-122 6 -188.5 69.5t-66.5 178.5v405h109v-401q0 -80 44 -120.5t127 -40.5q82 0 126 40.5t44 120.5v401z
" />
    <glyph glyph-name="uogonek" unicode="&#x173;" horiz-adv-x="579" 
d="M475 -152q31 0 50 11v-66q-28 -13 -77 -13q-46 0 -76.5 22.5t-30.5 66.5q0 80 74 131l-5 49q-75 -59 -176 -59q-85 0 -130.5 47.5t-45.5 137.5v299h109v-299q0 -53 26 -78t80 -25q78 0 133 55v347h108v-474h-17q-69 -53 -69 -112q0 -40 47 -40z" />
    <glyph glyph-name="Wcircumflex" unicode="&#x174;" horiz-adv-x="869" 
d="M276 687l125 161h76l125 -161h-87l-76 101l-74 -101h-89zM194 0l-150 644h107l109 -483l122 405v78h89l137 -483l111 483h106l-149 -644h-107l-129 451l-137 -451h-109z" />
    <glyph glyph-name="wcircumflex" unicode="&#x175;" horiz-adv-x="746" 
d="M211 521l125 161h76l125 -161h-87l-76 101l-74 -101h-89zM168 0l-125 474h109l82 -345l93 287v58h83l103 -345l82 345h108l-124 -474h-103l-101 310l-103 -310h-104z" />
    <glyph glyph-name="Ycircumflex" unicode="&#x176;" horiz-adv-x="656" 
d="M165 687l125 161h76l125 -161h-87l-76 101l-74 -101h-89zM274 0v239l-231 405h113l172 -313l172 313h113l-231 -405v-239h-108z" />
    <glyph glyph-name="ycircumflex" unicode="&#x177;" horiz-adv-x="598" 
d="M146 521l125 161h76l125 -161h-87l-76 101l-74 -101h-89zM170 -176q-54 0 -92 14v81q28 -10 61 -10q43 0 65 20.5t50 76.5l-211 468h113l152 -352l154 352h112l-193 -447q-43 -102 -89.5 -152.5t-121.5 -50.5z" />
    <glyph glyph-name="Ydieresis" unicode="&#x178;" horiz-adv-x="656" 
d="M189 712v86h92v-86h-92zM375 712v86h92v-86h-92zM274 0v239l-231 405h113l172 -313l172 313h113l-231 -405v-239h-108z" />
    <glyph glyph-name="Zacute" unicode="&#x179;" horiz-adv-x="575" 
d="M250 688l75 177h96l-84 -177h-87zM43 0v58l346 497h-329v89h469v-67l-343 -493h348v-84h-491z" />
    <glyph glyph-name="zacute" unicode="&#x17a;" horiz-adv-x="487" 
d="M199 522l75 177h96l-84 -177h-87zM43 0v57l259 328h-247v89h381v-67l-254 -323h261v-84h-400z" />
    <glyph glyph-name="Zdotaccent" unicode="&#x17b;" horiz-adv-x="575" 
d="M253 711v88h92v-88h-92zM43 0v58l346 497h-329v89h469v-67l-343 -493h348v-84h-491z" />
    <glyph glyph-name="zdotaccent" unicode="&#x17c;" horiz-adv-x="487" 
d="M200 545v88h92v-88h-92zM43 0v57l259 328h-247v89h381v-67l-254 -323h261v-84h-400z" />
    <glyph glyph-name="Zcaron" unicode="&#x17d;" horiz-adv-x="575" 
d="M269 687l-125 161h89l74 -101l76 101h87l-125 -161h-76zM43 0v58l346 497h-329v89h469v-67l-343 -493h348v-84h-491z" />
    <glyph glyph-name="zcaron" unicode="&#x17e;" horiz-adv-x="487" 
d="M200 521l-125 161h89l74 -101l76 101h87l-125 -161h-76zM43 0v57l259 328h-247v89h381v-67l-254 -323h261v-84h-400z" />
    <glyph glyph-name="uni018F" unicode="&#x18f;" horiz-adv-x="674" 
d="M325 -10q-139 0 -210.5 72.5t-71.5 196.5v111h488q-6 109 -64.5 154.5t-194.5 45.5q-104 0 -190 -38v83q101 39 213 39q336 0 336 -340q0 -324 -306 -324zM325 71q206 0 206 221h-392v-54q0 -80 49 -123.5t137 -43.5z" />
    <glyph glyph-name="florin" unicode="&#x192;" horiz-adv-x="517" 
d="M16 -123q-51 0 -81 17v77q28 -11 60 -11q46 0 68 17t32 62l73 350h-68l18 85h68l13 58q35 158 190 158q45 0 87 -17v-78q-28 11 -70 11q-45 0 -67.5 -17t-31.5 -58l-12 -57h124l-23 -85h-119l-75 -355q-33 -157 -186 -157z" />
    <glyph glyph-name="Ohorn" unicode="&#x1a0;" horiz-adv-x="770" 
d="M348 -10q-154 0 -229.5 80.5t-75.5 249.5q0 174 75 254t230 80q151 0 225 -77q55 1 75.5 24.5t20.5 86.5h84q0 -90 -32 -132.5t-99 -52.5q31 -71 31 -183q0 -169 -75.5 -249.5t-229.5 -80.5zM348 82q102 0 149 56t47 182q0 131 -46.5 186t-149.5 55q-102 0 -148.5 -55
t-46.5 -186q0 -125 47 -181.5t148 -56.5z" />
    <glyph glyph-name="ohorn" unicode="&#x1a1;" horiz-adv-x="676" 
d="M290 -10q-247 0 -247 247t247 247q125 0 188 -65q56 1 76.5 26.5t20.5 90.5h84q0 -92 -33.5 -136t-104.5 -54q17 -48 17 -109q0 -247 -248 -247zM290 82q75 0 106.5 36t31.5 119q0 82 -31.5 118t-106.5 36q-74 0 -105.5 -36t-31.5 -118q0 -83 31.5 -119t105.5 -36z" />
    <glyph glyph-name="Uhorn" unicode="&#x1af;" horiz-adv-x="821" 
d="M338 -10q-134 0 -207 64t-73 185v405h109v-401q0 -80 44 -120.5t127 -40.5q82 0 126 40.5t44 120.5v401h108v-70q55 2 76 26t21 88h84q0 -105 -42.5 -147t-138.5 -44v-258q0 -121 -72.5 -185t-205.5 -64z" />
    <glyph glyph-name="uhorn" unicode="&#x1b0;" horiz-adv-x="702" 
d="M234 -10q-85 0 -130.5 47.5t-45.5 137.5v299h109v-299q0 -53 26 -78t80 -25q78 0 133 55v347h108v-55q47 4 64.5 30t17.5 87h84q0 -98 -40.5 -143.5t-125.5 -48.5v-344h-99l-5 49q-75 -59 -176 -59z" />
    <glyph glyph-name="uni01CD" unicode="&#x1cd;" horiz-adv-x="700" 
d="M311 687l-125 161h89l74 -101l76 101h87l-125 -161h-76zM44 0l246 644h122l244 -644h-112l-64 166h-259l-64 -166h-113zM238 250h224l-112 295z" />
    <glyph glyph-name="uni01CE" unicode="&#x1ce;" horiz-adv-x="547" 
d="M245 521l-125 161h89l74 -101l76 101h87l-125 -161h-76zM211 -10q-72 0 -120 37.5t-48 107.5t47.5 110.5t142.5 40.5h152v21q0 52 -26 72t-103 20q-84 0 -157 -25v81q73 29 177 29q213 0 213 -179v-305h-93l-7 48q-60 -58 -178 -58zM240 68q94 0 145 61v83h-150
q-48 0 -69.5 -18t-21.5 -57q0 -69 96 -69z" />
    <glyph glyph-name="uni01CF" unicode="&#x1cf;" horiz-adv-x="235" 
d="M80 687l-125 161h89l74 -101l76 101h87l-125 -161h-76zM63 0v644h109v-644h-109z" />
    <glyph glyph-name="uni01D0" unicode="&#x1d0;" horiz-adv-x="308" 
d="M127 521l-125 161h89l74 -101l76 101h87l-125 -161h-76zM135 0v391h-72l10 83h171v-474h-109z" />
    <glyph glyph-name="uni01D1" unicode="&#x1d1;" horiz-adv-x="697" 
d="M310 687l-125 161h89l74 -101l76 101h87l-125 -161h-76zM348 -10q-154 0 -229.5 80.5t-75.5 249.5q0 174 75 254t230 80t230 -80t75 -254q0 -169 -75.5 -249.5t-229.5 -80.5zM348 82q102 0 149 56t47 182q0 131 -46.5 186t-149.5 55q-102 0 -148.5 -55t-46.5 -186
q0 -125 47 -181.5t148 -56.5z" />
    <glyph glyph-name="uni01D2" unicode="&#x1d2;" horiz-adv-x="581" 
d="M252 521l-125 161h89l74 -101l76 101h87l-125 -161h-76zM290 -10q-247 0 -247 247t247 247q248 0 248 -247t-248 -247zM290 82q75 0 106.5 36t31.5 119q0 82 -31.5 118t-106.5 36q-74 0 -105.5 -36t-31.5 -118q0 -83 31.5 -119t105.5 -36z" />
    <glyph glyph-name="uni01D3" unicode="&#x1d3;" horiz-adv-x="674" 
d="M299 687l-125 161h89l74 -101l76 101h87l-125 -161h-76zM338 -10q-134 0 -207 64t-73 185v405h109v-401q0 -80 44 -120.5t127 -40.5q82 0 126 40.5t44 120.5v401h108v-405q0 -121 -72.5 -185t-205.5 -64z" />
    <glyph glyph-name="uni01D4" unicode="&#x1d4;" horiz-adv-x="578" 
d="M248 521l-125 161h89l74 -101l76 101h87l-125 -161h-76zM234 -10q-85 0 -130.5 47.5t-45.5 137.5v299h109v-299q0 -53 26 -78t80 -25q78 0 133 55v347h108v-474h-99l-5 49q-75 -59 -176 -59z" />
    <glyph glyph-name="uni01D5" unicode="&#x1d5;" horiz-adv-x="674" 
d="M188 853v71h298v-71h-298zM198 703v86h92v-86h-92zM384 703v86h92v-86h-92zM338 -10q-134 0 -207 64t-73 185v405h109v-401q0 -80 44 -120.5t127 -40.5q82 0 126 40.5t44 120.5v401h108v-405q0 -121 -72.5 -185t-205.5 -64z" />
    <glyph glyph-name="uni01D6" unicode="&#x1d6;" horiz-adv-x="578" 
d="M142 672v71h298v-71h-298zM151 538v86h92v-86h-92zM337 538v86h92v-86h-92zM234 -10q-85 0 -130.5 47.5t-45.5 137.5v299h109v-299q0 -53 26 -78t80 -25q78 0 133 55v347h108v-474h-99l-5 49q-75 -59 -176 -59z" />
    <glyph glyph-name="uni01D7" unicode="&#x1d7;" horiz-adv-x="674" 
d="M296 786l61 127h83l-67 -127h-77zM193 688v84h90v-84h-90zM392 688v84h89v-84h-89zM338 -10q-134 0 -207 64t-73 185v405h109v-401q0 -80 44 -120.5t127 -40.5q82 0 126 40.5t44 120.5v401h108v-405q0 -121 -72.5 -185t-205.5 -64z" />
    <glyph glyph-name="uni01D8" unicode="&#x1d8;" horiz-adv-x="578" 
d="M241 620l61 127h83l-67 -127h-77zM138 522v84h90v-84h-90zM337 522v84h89v-84h-89zM234 -10q-85 0 -130.5 47.5t-45.5 137.5v299h109v-299q0 -53 26 -78t80 -25q78 0 133 55v347h108v-474h-99l-5 49q-75 -59 -176 -59z" />
    <glyph glyph-name="uni01D9" unicode="&#x1d9;" horiz-adv-x="674" 
d="M298 784l-112 120h85l67 -78l68 78h83l-112 -120h-79zM191 688v84h90v-84h-90zM390 688v84h89v-84h-89zM338 -10q-134 0 -207 64t-73 185v405h109v-401q0 -80 44 -120.5t127 -40.5q82 0 126 40.5t44 120.5v401h108v-405q0 -121 -72.5 -185t-205.5 -64z" />
    <glyph glyph-name="uni01DA" unicode="&#x1da;" horiz-adv-x="578" 
d="M249 617l-112 120h85l67 -78l68 78h83l-112 -120h-79zM142 521v84h90v-84h-90zM341 521v84h89v-84h-89zM234 -10q-85 0 -130.5 47.5t-45.5 137.5v299h109v-299q0 -53 26 -78t80 -25q78 0 133 55v347h108v-474h-99l-5 49q-75 -59 -176 -59z" />
    <glyph glyph-name="uni01DB" unicode="&#x1db;" horiz-adv-x="674" 
d="M299 786l-67 127h84l60 -127h-77zM191 688v84h90v-84h-90zM390 688v84h89v-84h-89zM338 -10q-134 0 -207 64t-73 185v405h109v-401q0 -80 44 -120.5t127 -40.5q82 0 126 40.5t44 120.5v401h108v-405q0 -121 -72.5 -185t-205.5 -64z" />
    <glyph glyph-name="uni01DC" unicode="&#x1dc;" horiz-adv-x="578" 
d="M253 620l-67 127h84l60 -127h-77zM145 522v84h90v-84h-90zM344 522v84h89v-84h-89zM234 -10q-85 0 -130.5 47.5t-45.5 137.5v299h109v-299q0 -53 26 -78t80 -25q78 0 133 55v347h108v-474h-99l-5 49q-75 -59 -176 -59z" />
    <glyph glyph-name="Gcaron" unicode="&#x1e6;" horiz-adv-x="641" 
d="M320 686l-125 161h89l74 -101l76 101h87l-125 -161h-76zM363 -10q-156 0 -238 84.5t-82 234.5q0 163 81 254t242 91q107 0 191 -29v-94q-82 30 -182 30q-119 0 -170.5 -62.5t-51.5 -189.5q0 -227 213 -227q86 0 139 20v180h-161v71h254v-310q-82 -53 -235 -53z" />
    <glyph glyph-name="gcaron" unicode="&#x1e7;" horiz-adv-x="554" 
d="M248 521l-125 161h89l74 -101l76 101h87l-125 -161h-76zM255 -176q-121 0 -196 26v84q79 -27 191 -27q76 0 107 8.5t31 35.5q0 21 -16.5 29.5t-60.5 8.5h-128q-129 0 -129 91q0 67 71 92q-80 39 -80 139q0 90 54 131.5t164 41.5q39 0 87 -10h174l-3 -71h-80
q37 -33 37 -92q0 -78 -46.5 -120.5t-138.5 -42.5q-24 0 -59 5q-32 -3 -55 -16.5t-23 -34.5q0 -28 52 -28h133q71 0 109.5 -30.5t38.5 -88.5q0 -69 -58.5 -100t-175.5 -31zM263 217q65 0 90.5 21.5t25.5 75.5t-26 77.5t-90 23.5q-62 0 -89.5 -23.5t-27.5 -77.5
q0 -52 26.5 -74.5t90.5 -22.5z" />
    <glyph glyph-name="Aringacute" unicode="&#x1fa;" horiz-adv-x="700" 
d="M464 1030l-84 -177h-87l75 177h96zM420 622l236 -622h-112l-64 166h-259l-64 -166h-113l237 620q-48 34 -48 94q0 49 32 81.5t84 32.5q53 0 85.5 -32.5t32.5 -81.5q0 -61 -47 -92zM349 773q-26 0 -42.5 -17t-16.5 -42t16.5 -42t42.5 -17q27 0 44 17t17 42t-17 42t-44 17z
M238 250h224l-112 295z" />
    <glyph glyph-name="aringacute" unicode="&#x1fb;" horiz-adv-x="547" 
d="M235 784l75 141h96l-84 -141h-87zM282 517q-52 0 -84 32.5t-32 80.5q0 49 32 81.5t84 32.5q53 0 85.5 -32.5t32.5 -81.5q0 -48 -32.5 -80.5t-85.5 -32.5zM282 571q27 0 44 17t17 42t-17 42t-44 17q-26 0 -42.5 -17t-16.5 -42t16.5 -42t42.5 -17zM211 -10q-72 0 -120 37.5
t-48 107.5t47.5 110.5t142.5 40.5h152v21q0 52 -26 72t-103 20q-84 0 -157 -25v81q73 29 177 29q213 0 213 -179v-305h-93l-7 48q-60 -58 -178 -58zM240 68q94 0 145 61v83h-150q-48 0 -69.5 -18t-21.5 -57q0 -69 96 -69z" />
    <glyph glyph-name="AEacute" unicode="&#x1fc;" horiz-adv-x="845" 
d="M427 688l75 177h96l-84 -177h-87zM44 0l246 644h512v-85h-287v-195h250v-84h-250v-196h287v-84h-395v167h-182l-64 -167h-117zM253 251h154v310h-39z" />
    <glyph glyph-name="aeacute" unicode="&#x1fd;" horiz-adv-x="881" 
d="M392 522l75 177h96l-84 -177h-87zM217 -10q-75 0 -124.5 37.5t-49.5 107.5t47.5 110.5t142.5 40.5h152v21q0 52 -26 72t-103 20q-84 0 -157 -25v81q73 29 177 29q122 0 173 -63q61 63 172 63q105 0 161 -55t56 -147v-88h-347q8 -68 49 -95t129 -27q81 0 140 25v-79
q-63 -28 -162 -28q-140 0 -201 83q-41 -40 -93 -61.5t-136 -21.5zM491 265h251v33q0 104 -118 104q-74 0 -103.5 -32t-29.5 -105zM240 68q92 0 145 59v85h-150q-48 0 -69.5 -18t-21.5 -57q0 -69 96 -69z" />
    <glyph glyph-name="Oslashacute" unicode="&#x1fe;" horiz-adv-x="697" 
d="M285 688l75 177h96l-84 -177h-87zM165 -53l27 71q-149 67 -149 302q0 174 75 254t230 80q42 0 79 -6l17 45h74l-24 -63q159 -62 159 -310q0 -169 -75.5 -249.5t-229.5 -80.5q-47 0 -90 8l-19 -51h-74zM227 113l166 445q-21 3 -45 3q-102 0 -148.5 -55t-46.5 -186
q0 -155 74 -207zM348 82q102 0 149 56t47 182q0 169 -85 217l-168 -450q28 -5 57 -5z" />
    <glyph glyph-name="oslashacute" unicode="&#x1ff;" horiz-adv-x="581" 
d="M227 522l75 177h96l-84 -177h-87zM144 -54l24 64q-125 51 -125 227q0 247 247 247q29 0 53 -3l18 47h74l-24 -65q127 -50 127 -226q0 -247 -248 -247q-21 0 -55 4l-17 -48h-74zM202 102l107 288q-3 0 -9 0.5t-10 0.5q-74 0 -105.5 -36t-31.5 -118q0 -103 49 -135zM290 82
q75 0 106.5 36t31.5 119q0 102 -52 134l-107 -288q6 -1 21 -1z" />
    <glyph glyph-name="Scommaaccent" unicode="&#x218;" horiz-adv-x="555" 
d="M258 -10q-125 0 -201 32v96q93 -36 191 -36q81 0 117.5 19t36.5 71q0 47 -34.5 69.5t-136.5 48.5q-104 27 -146 68.5t-42 114.5q0 86 63 133.5t184 47.5q107 0 183 -26v-96q-76 29 -168 29q-76 0 -114 -20t-38 -68q0 -42 31.5 -62.5t126.5 -44.5q113 -29 157 -75t44 -119
q0 -86 -64.5 -134t-189.5 -48zM200 -223l28 173h96l-41 -173h-83z" />
    <glyph glyph-name="scommaaccent" unicode="&#x219;" horiz-adv-x="464" 
d="M221 -10q-102 0 -167 24v92q67 -27 153 -27q58 0 81 10t23 39q0 7 -1.5 13t-5.5 11t-7.5 8.5t-11.5 8t-14 7.5t-18 7t-20 7t-24.5 8t-27.5 9q-72 24 -105 53.5t-33 87.5q0 136 198 136q80 0 141 -21v-91q-57 23 -124 23q-55 0 -80 -9.5t-25 -35.5q0 -24 19 -35t75 -29
q14 -4 22 -7q85 -26 118 -57.5t33 -92.5q0 -139 -199 -139zM158 -223l28 173h96l-41 -173h-83z" />
    <glyph glyph-name="uni021A" unicode="&#x21a;" horiz-adv-x="568" 
d="M230 0v559h-206v85h520v-85h-205v-559h-109zM213 -234l29 189h90l-46 -189h-73z" />
    <glyph glyph-name="uni021B" unicode="&#x21b;" horiz-adv-x="363" 
d="M244 -10q-75 0 -113 39.5t-38 111.5v248h-70v85h70v109l108 33v-142h126l-7 -85h-119v-242q0 -41 18.5 -57.5t62.5 -16.5q27 0 57 10v-77q-39 -16 -95 -16zM158 -234l29 189h90l-46 -189h-73z" />
    <glyph glyph-name="uni0237" unicode="&#x237;" horiz-adv-x="306" 
d="M89 -234q-58 0 -99 16v79q31 -10 61 -10q47 0 65.5 16.5t18.5 56.5v467h-72l10 83h170v-560q0 -69 -39.5 -108.5t-114.5 -39.5z" />
    <glyph glyph-name="uni0251" unicode="&#x251;" horiz-adv-x="583" 
d="M259 -10q-103 0 -159.5 53t-56.5 175q0 121 65 193.5t164 72.5q80 0 138 -43v33h109v-474h-93l-7 47q-63 -57 -160 -57zM288 72q73 0 122 50v235q-47 44 -109 44q-148 0 -148 -184q0 -82 31.5 -113.5t103.5 -31.5z" />
    <glyph glyph-name="uni0259" unicode="&#x259;" horiz-adv-x="537" 
d="M260 -10q-105 0 -161 55t-56 147v87h347q-8 68 -49 94.5t-129 26.5q-81 0 -140 -25v80q66 29 162 29q126 0 193 -62t67 -187q0 -116 -59 -180.5t-175 -64.5zM257 71q74 0 103.5 32.5t29.5 104.5h-251v-32q0 -105 118 -105z" />
    <glyph glyph-name="uni02BB" unicode="&#x2bb;" horiz-adv-x="235" 
d="M43 459l66 195h82l-52 -195h-96z" />
    <glyph glyph-name="uni02BC" unicode="&#x2bc;" horiz-adv-x="235" 
d="M43 459l53 195h95l-66 -195h-82z" />
    <glyph glyph-name="uni02BE" unicode="&#x2be;" 
d="M-380 464v68q38 0 59 21.5t21 58.5t-20.5 58t-59.5 21v68q71 0 110 -40t39 -107t-39 -107.5t-110 -40.5z" />
    <glyph glyph-name="uni02BF" unicode="&#x2bf;" 
d="M-231 464q-70 0 -109.5 40.5t-39.5 107.5q0 66 39.5 106.5t109.5 40.5v-68q-38 0 -58.5 -21t-20.5 -58t20.5 -58.5t58.5 -21.5v-68z" />
    <glyph glyph-name="circumflex" unicode="&#x2c6;" horiz-adv-x="345" 
d="M9 534l125 161h76l125 -161h-87l-76 101l-74 -101h-89z" />
    <glyph glyph-name="caron" unicode="&#x2c7;" horiz-adv-x="345" 
d="M134 534l-125 161h89l74 -101l76 101h87l-125 -161h-76z" />
    <glyph glyph-name="uni02C8" unicode="&#x2c8;" 
d="M-54 482v178h73v-178h-73z" />
    <glyph glyph-name="uni02C9" unicode="&#x2c9;" 
d="M99 563v71h298v-71h-298z" />
    <glyph glyph-name="uni02CA" unicode="&#x2ca;" 
d="M-102 522l76 177h95l-83 -177h-88z" />
    <glyph glyph-name="uni02CB" unicode="&#x2cb;" 
d="M-23 522l-83 177h95l76 -177h-88z" />
    <glyph glyph-name="uni02CC" unicode="&#x2cc;" 
d="M-54 -219v178h73v-178h-73z" />
    <glyph glyph-name="breve" unicode="&#x2d8;" horiz-adv-x="310" 
d="M153 537q-66 0 -103.5 38t-37.5 104h74q0 -36 17.5 -56.5t49.5 -20.5q33 0 51.5 20.5t18.5 56.5h74q0 -65 -38.5 -103.5t-105.5 -38.5z" />
    <glyph glyph-name="dotaccent" unicode="&#x2d9;" horiz-adv-x="145" 
d="M26 558v88h92v-88h-92z" />
    <glyph glyph-name="ring" unicode="&#x2da;" horiz-adv-x="293" 
d="M148 526q-50 0 -82.5 31.5t-32.5 79.5q0 47 33 79.5t82 32.5t82 -32.5t33 -79.5q0 -48 -32.5 -79.5t-82.5 -31.5zM148 583q23 0 38.5 15.5t15.5 38.5t-15.5 38.5t-38.5 15.5t-39 -15.5t-16 -38.5t16 -38.5t39 -15.5z" />
    <glyph glyph-name="ogonek" unicode="&#x2db;" horiz-adv-x="237" 
d="M136 -220q-47 0 -77 22.5t-30 66.5q0 81 74 131h82q-70 -52 -70 -112q0 -40 48 -40q30 0 49 11v-66q-28 -13 -76 -13z" />
    <glyph glyph-name="tilde" unicode="&#x2dc;" horiz-adv-x="370" 
d="M264 564q-29 0 -79.5 19.5t-72.5 19.5q-55 0 -87 -36v80q28 30 85 30q30 0 78.5 -19.5t74.5 -19.5q52 0 80 37v-80q-22 -31 -79 -31z" />
    <glyph glyph-name="hungarumlaut" unicode="&#x2dd;" horiz-adv-x="407" 
d="M9 533l75 164h99l-87 -164h-87zM226 533l75 164h99l-87 -164h-87z" />
    <glyph glyph-name="gravecomb" unicode="&#x300;" 
d="M-375 522l-83 177h95l76 -177h-88z" />
    <glyph glyph-name="acutecomb" unicode="&#x301;" 
d="M-402 522l75 177h96l-84 -177h-87z" />
    <glyph glyph-name="uni0302" unicode="&#x302;" 
d="M-192 534l125 161h76l125 -161h-87l-76 101l-74 -101h-89z" />
    <glyph glyph-name="tildecomb" unicode="&#x303;" 
d="M-248 564q-29 0 -79.5 19.5t-72.5 19.5q-55 0 -87 -36v80q28 30 85 30q30 0 78.5 -19.5t74.5 -19.5q52 0 80 37v-80q-22 -31 -79 -31z" />
    <glyph glyph-name="uni0304" unicode="&#x304;" 
d="M-175 563v71h298v-71h-298z" />
    <glyph glyph-name="uni0306" unicode="&#x306;" 
d="M-18 538q-66 0 -103.5 38t-37.5 103h74q0 -35 17.5 -55.5t49.5 -20.5q33 0 51.5 20.5t18.5 55.5h74q0 -65 -38.5 -103t-105.5 -38z" />
    <glyph glyph-name="uni0307" unicode="&#x307;" 
d="M-63 558v88h92v-88h-92z" />
    <glyph glyph-name="uni0308" unicode="&#x308;" 
d="M-147 559v86h92v-86h-92zM39 559v86h92v-86h-92z" />
    <glyph glyph-name="hookabovecomb" unicode="&#x309;" 
d="M-365 508v82q55 3 73.5 13.5t18.5 36.5q0 42 -74 42q-35 0 -64 -12v59q36 13 93 13q61 0 93.5 -25t32.5 -68q0 -42 -20 -64.5t-68 -29.5v-47h-85z" />
    <glyph glyph-name="uni030A" unicode="&#x30a;" 
d="M-18 521q-52 0 -84 32.5t-32 80.5q0 49 32 81.5t84 32.5q53 0 85.5 -32.5t32.5 -81.5q0 -48 -32.5 -80.5t-85.5 -32.5zM-18 575q27 0 44 17t17 42t-17 42t-44 17q-26 0 -42.5 -17t-16.5 -42t16.5 -42t42.5 -17z" />
    <glyph glyph-name="uni030B" unicode="&#x30b;" 
d="M-226 533l75 164h99l-86 -164h-88zM-9 533l75 164h99l-86 -164h-88z" />
    <glyph glyph-name="uni030C" unicode="&#x30c;" 
d="M-67 534l-125 161h89l74 -101l76 101h87l-125 -161h-76z" />
    <glyph glyph-name="uni031B" unicode="&#x31b;" 
d="M-118 523v77q63 0 83.5 22t20.5 87h84q0 -105 -43.5 -145t-144.5 -41z" />
    <glyph glyph-name="dotbelowcomb" unicode="&#x323;" 
d="M-364 -173v88h94v-88h-94z" />
    <glyph glyph-name="uni0324" unicode="&#x324;" 
d="M-155 -172v87h93v-87h-93zM38 -172v87h92v-87h-92z" />
    <glyph glyph-name="uni0326" unicode="&#x326;" 
d="M-165 -226l29 189h90l-46 -189h-73z" />
    <glyph glyph-name="uni0327" unicode="&#x327;" 
d="M-32 -240q-43 0 -73 8v59q29 -8 62 -8q47 0 66 9t19 36q0 26 -18.5 33.5t-62.5 7.5h-40l29 95h73l-16 -47q53 0 81 -23.5t28 -66.5q0 -103 -148 -103z" />
    <glyph glyph-name="uni0328" unicode="&#x328;" 
d="M-2 -220q-46 0 -76.5 22.5t-30.5 66.5q0 80 74 131h82q-69 -53 -69 -112q0 -40 47 -40q31 0 50 11v-66q-28 -13 -77 -13z" />
    <glyph glyph-name="uni032E" unicode="&#x32e;" 
d="M-18 -207q-66 0 -103.5 38t-37.5 104h74q0 -36 17.5 -56.5t49.5 -20.5q33 0 51.5 20.5t18.5 56.5h74q0 -65 -38.5 -103.5t-105.5 -38.5z" />
    <glyph glyph-name="uni0331" unicode="&#x331;" 
d="M-175 -143v71h298v-71h-298z" />
    <glyph glyph-name="uni0394" unicode="&#x394;" horiz-adv-x="649" 
d="M43 0v60l230 584h100l232 -585v-59h-562zM148 84h350l-175 444z" />
    <glyph glyph-name="uni03A9" unicode="&#x3a9;" horiz-adv-x="764" 
d="M50 0v82h144q-151 95 -151 282q0 148 90.5 239.5t248.5 91.5q157 0 247.5 -91.5t90.5 -239.5q0 -190 -150 -282h143v-82h-275v84q172 93 172 276q0 109 -62 175.5t-166 66.5t-166.5 -66.5t-62.5 -175.5q0 -182 172 -276v-84h-275z" />
    <glyph glyph-name="uni03BC" unicode="&#x3bc;" horiz-adv-x="583" 
d="M63 -143v617h109v-299q0 -53 26 -78t80 -25q78 0 133 55v347h108v-474h-99l-5 49q-75 -59 -176 -59q-40 0 -67 15v-148h-109z" />
    <glyph glyph-name="pi" unicode="&#x3c0;" horiz-adv-x="672" 
d="M545 -10q-73 0 -111 40.5t-38 112.5v247h-188v-390h-108v390h-67v84h538v-84h-66v-243q0 -41 17.5 -56.5t60.5 -15.5q27 0 58 10v-79q-41 -16 -96 -16z" />
    <glyph glyph-name="uni0E01" unicode="&#xe01;" horiz-adv-x="613" 
d="M72 0v195q0 100 79 124l-108 27v112q104 92 259 92q123 0 185 -51t62 -164v-335h-109v338q0 69 -32 96.5t-110 27.5q-105 0 -161 -51v-18l114 -29v-72q-39 -10 -55 -32t-16 -66v-194h-108z" />
    <glyph glyph-name="uni0E02" unicode="&#xe02;" horiz-adv-x="581" 
d="M285 -10q-113 0 -172.5 52.5t-59.5 149.5v53q0 37 22.5 74t44.5 66t22 47q0 15 -7 20.5t-25 5.5h-69l9 82h126q76 0 76 -73q0 -46 -45.5 -113.5t-45.5 -109.5v-61q0 -106 124 -106q123 0 123 109v354h109v-347q0 -96 -61.5 -149.5t-170.5 -53.5z" />
    <glyph glyph-name="uni0E03" unicode="&#xe03;" horiz-adv-x="577" 
d="M283 -10q-113 0 -171.5 50t-58.5 146v36q0 29 18 63.5t39.5 60t39.5 51.5t18 41q0 22 -20 22q-18 0 -33 -15v-40h-74v135h76v-28q34 28 76 28q76 0 76 -77q0 -30 -16.5 -63.5t-37 -58t-37 -56.5t-16.5 -60v-42q0 -106 121 -106t121 109v354h109v-347q0 -96 -60.5 -149.5
t-169.5 -53.5z" />
    <glyph glyph-name="uni0E04" unicode="&#xe04;" horiz-adv-x="615" 
d="M63 0v342q0 208 245 208q243 0 243 -208v-342h-109v352q0 110 -134 110q-136 0 -136 -110v-111q44 36 105 36h65l4 -87h-72q-61 0 -102 -34v-156h-109z" />
    <glyph glyph-name="uni0E05" unicode="&#xe05;" horiz-adv-x="615" 
d="M63 0v395q0 75 33.5 115t98.5 40q73 0 112 -52q39 52 118 52q69 0 97.5 -37.5t28.5 -118.5v-394h-108v396q0 30 -10 45.5t-36 15.5q-38 0 -64 -41h-52q-20 41 -52 41q-58 0 -58 -61v-155q44 36 105 36h66l4 -87h-72q-60 0 -103 -34v-156h-108z" />
    <glyph glyph-name="uni0E06" unicode="&#xe06;" horiz-adv-x="601" 
d="M353 -10q-109 0 -189 69l-6 -59h-99v209q0 29 18 65.5t39.5 64t39.5 56t18 43.5q0 22 -20 22q-18 0 -33 -15v-40h-74v135h76v-28q34 28 76 28q76 0 76 -77q0 -46 -53.5 -127.5t-53.5 -123.5v-70q61 -65 149 -65q57 0 84.5 27t27.5 87v349h108v-354q0 -93 -48.5 -144.5
t-135.5 -51.5z" />
    <glyph glyph-name="uni0E07" unicode="&#xe07;" horiz-adv-x="564" 
d="M275 -10q-64 0 -100 13l-152 370h106l123 -300q85 -4 124.5 49t39.5 165q0 98 -28 134.5t-103 36.5h-38v82h52q115 0 168.5 -61.5t53.5 -190.5q0 -152 -66.5 -225t-179.5 -73z" />
    <glyph glyph-name="uni0E08" unicode="&#xe08;" horiz-adv-x="569" 
d="M278 -10q-52 0 -86 13l-80 213h-69l5 82h133l83 -222q71 -3 114 45t43 154q0 105 -43 146t-152 41q-92 0 -171 -26v84q94 30 200 30q140 0 205.5 -69.5t65.5 -205.5q0 -134 -71.5 -209.5t-176.5 -75.5z" />
    <glyph glyph-name="uni0E09" unicode="&#xe09;" horiz-adv-x="583" 
d="M223 -10q-85 0 -129 47.5t-44 139.5v123h108v-113q0 -59 23.5 -84.5t83.5 -25.5q86 0 145 66v187q0 75 -37.5 103.5t-134.5 28.5q-102 0 -195 -30v84q100 34 223 34q131 0 192 -54t61 -167v-329h-99l-6 59q-79 -69 -191 -69z" />
    <glyph glyph-name="uni0E0A" unicode="&#xe0a;" horiz-adv-x="582" 
d="M285 -10q-113 0 -172 52.5t-59 149.5v53q0 29 14 58.5t30.5 50t30.5 42t14 36.5t-7 20.5t-25 5.5h-69l9 82h126q76 0 76 -73q0 -46 -45.5 -113.5t-45.5 -109.5v-61q0 -106 123 -106q124 0 124 109v66q0 47 -15.5 65.5t-55.5 18.5h-28l5 79h20q41 0 57.5 19.5t16.5 64.5
v51h109v-49q0 -51 -15.5 -80t-56.5 -45q43 -18 57.5 -47.5t14.5 -79.5v-56q0 -96 -62 -149.5t-171 -53.5z" />
    <glyph glyph-name="uni0E0B" unicode="&#xe0b;" horiz-adv-x="582" 
d="M285 -10q-112 0 -171.5 50.5t-59.5 144.5v40q0 29 18 63t39.5 58.5t39.5 50.5t18 41q0 22 -20 22q-18 0 -33 -15v-40h-74v135h76v-28q34 28 76 28q76 0 76 -77q0 -38 -27 -80t-53.5 -82.5t-26.5 -75.5v-42q0 -106 122 -106q125 0 125 109v66q0 47 -16 65.5t-56 18.5h-28
l5 79h20q41 0 58 20t17 64v51h108v-49q0 -50 -15 -79.5t-56 -45.5q42 -18 56.5 -47.5t14.5 -79.5v-56q0 -96 -61.5 -149.5t-171.5 -53.5z" />
    <glyph glyph-name="uni0E0C" unicode="&#xe0c;" horiz-adv-x="957" 
d="M714 -10q-103 0 -183 69l-6 -59h-96v338q0 69 -30.5 96.5t-103.5 27.5q-102 0 -158 -51v-18l114 -29v-72q-39 -10 -55 -32t-16 -66v-65q0 -23 10 -33t32 -10h55v-86h-108q-45 0 -71 28t-26 73v94q0 100 79 124l-108 27v112q104 92 256 92q118 0 177 -51t59 -164v-193
q61 -65 143 -65q56 0 81.5 26.5t25.5 87.5v349h108v-354q0 -94 -46.5 -145t-132.5 -51z" />
    <glyph glyph-name="uni0E0D" unicode="&#xe0d;" horiz-adv-x="970" 
d="M670 -61q-123 0 -201 43v87q82 -43 199 -43q69 0 106.5 15.5t37.5 42.5q0 19 -14 33q-54 -32 -132 -32q-237 0 -237 220v33q0 69 -30.5 96.5t-103.5 27.5q-102 0 -158 -51v-18l114 -29v-72q-39 -10 -55 -32t-16 -66v-65q0 -23 10 -33t32 -10h55v-86h-108q-45 0 -71 28
t-26 73v94q0 100 79 124l-108 27v112q104 92 256 92q118 0 177 -51t59 -164v-34q0 -67 31.5 -98t99.5 -31t99.5 31t31.5 98v239h108v-235q0 -84 -37 -134q38 -36 38 -93q0 -67 -61 -103t-175 -36z" />
    <glyph glyph-name="uni0E0E" unicode="&#xe0e;" horiz-adv-x="647" 
d="M168 -197v87q77 36 170 36q85 0 137 -29v441q0 68 -31 96t-105 28q-107 0 -161 -51v-18l117 -29v-72q-37 -11 -49.5 -31.5t-12.5 -66.5v-72q0 -122 -118 -122h-67v86h37q21 0 29.5 9.5t8.5 32.5v67q0 48 15 78.5t56 45.5l-110 27v112q102 92 258 92q119 0 180 -52
t61 -163v-529h-108q-61 33 -148 33q-85 0 -159 -36z" />
    <glyph glyph-name="uni0E0F" unicode="&#xe0f;" horiz-adv-x="647" 
d="M436 -195q-76 0 -112 46q-25 -45 -91 -45h-97l6 87h71q29 0 45.5 9.5t27.5 33.5h71q18 -47 63 -47q29 0 42 15t13 46v388q0 68 -31 96t-105 28q-107 0 -161 -51v-18l117 -29v-72q-37 -11 -49.5 -31.5t-12.5 -66.5v-72q0 -122 -118 -122h-67v86h37q21 0 29.5 9.5t8.5 32.5
v67q0 48 15 78.5t56 45.5l-110 27v112q102 92 258 92q119 0 180 -52t61 -163v-391q0 -66 -39 -102.5t-108 -36.5z" />
    <glyph glyph-name="uni0E10" unicode="&#xe10;" horiz-adv-x="604" 
d="M273 -10q-52 0 -86 13l-80 213h-69l5 82h133l83 -222q71 -3 114 45t43 154q0 105 -43 146t-152 41q-92 0 -171 -26v84q94 30 200 30q48 0 96 -10h223l-5 -85h-93q50 -63 50 -180q0 -134 -71.5 -209.5t-176.5 -75.5zM356 -195q-76 0 -112 46q-25 -45 -91 -45h-97l6 87h71
q29 0 45.5 9.5t27.5 33.5h71q18 -47 63 -47q29 0 42 15t13 46v9h108v-15q0 -66 -39 -102.5t-108 -36.5z" />
    <glyph glyph-name="uni0E11" unicode="&#xe11;" horiz-adv-x="601" 
d="M81 0v213q0 36 22 81t44 83.5t22 60.5t-20 22q-18 0 -33 -15v-40h-74v135h76v-28q34 28 74 28q39 0 59 -30q54 40 124 40q85 0 123.5 -45.5t38.5 -140.5v-364h-108v363q0 54 -17.5 76.5t-65.5 22.5q-49 0 -81 -30q0 -35 -37.5 -105t-37.5 -118v-209h-109z" />
    <glyph glyph-name="uni0E12" unicode="&#xe12;" horiz-adv-x="989" 
d="M264 -10q-101 0 -161 67.5t-60 204.5q0 138 45 213t126 75q67 0 107 -52q47 52 121 52q124 0 124 -145v-263q61 -65 144 -65q55 0 80.5 26.5t25.5 87.5v349h109v-354q0 -94 -46.5 -145t-132.5 -51q-104 0 -184 69l-5 -59h-96v389q0 40 -10 56.5t-40 16.5q-45 0 -61 -46
h-60q-13 25 -25.5 35.5t-35.5 10.5q-46 0 -63.5 -51t-17.5 -149q0 -99 33.5 -142t101.5 -43q46 0 69 8v-83q-34 -12 -88 -12z" />
    <glyph glyph-name="uni0E13" unicode="&#xe13;" horiz-adv-x="960" 
d="M608 -10q-86 0 -132.5 51t-46.5 145v152q0 69 -30.5 96.5t-103.5 27.5q-102 0 -158 -51v-18l114 -29v-72q-39 -10 -55 -32t-16 -66v-65q0 -23 10 -33t32 -10h55v-86h-108q-45 0 -71 28t-26 73v94q0 100 79 124l-108 27v112q104 92 256 92q118 0 177 -51t59 -164v-144
q0 -61 26.5 -87.5t82.5 -26.5q82 0 143 65v398h109v-540h-99l-6 59q-75 -69 -183 -69z" />
    <glyph glyph-name="uni0E14" unicode="&#xe14;" horiz-adv-x="643" 
d="M264 -10q-101 0 -161 67.5t-60 204.5t70 212.5t206 75.5q130 0 195 -63.5t65 -156.5v-330h-109v325q0 137 -153 137q-169 0 -169 -200q0 -99 33.5 -142t101.5 -43q46 0 69 8v-83q-34 -12 -88 -12z" />
    <glyph glyph-name="uni0E15" unicode="&#xe15;" horiz-adv-x="646" 
d="M264 -10q-101 0 -161 67.5t-60 204.5q0 139 46.5 213.5t131.5 74.5q68 0 108 -52q21 23 55 37.5t69 14.5q63 0 96 -38t33 -107v-405h-109v389q0 40 -11 56.5t-42 16.5q-46 0 -62 -46h-60q-13 25 -26 35.5t-36 10.5q-49 0 -68.5 -51t-19.5 -149q0 -99 33.5 -142t101.5 -43
q46 0 69 8v-83q-34 -12 -88 -12z" />
    <glyph glyph-name="uni0E16" unicode="&#xe16;" horiz-adv-x="613" 
d="M169 0q-45 0 -71 28t-26 73v94q0 100 79 124l-108 27v112q104 92 259 92q123 0 185 -51t62 -164v-335h-109v338q0 69 -32 96.5t-110 27.5q-105 0 -161 -51v-18l114 -29v-72q-39 -10 -55 -32t-16 -66v-65q0 -23 10 -33t32 -10h55v-86h-108z" />
    <glyph glyph-name="uni0E17" unicode="&#xe17;" horiz-adv-x="605" 
d="M63 0v540h99l6 -59q80 69 192 69q85 0 133 -51t48 -143v-356h-108v351q0 58 -27.5 84.5t-84.5 26.5q-88 0 -149 -65v-397h-109z" />
    <glyph glyph-name="uni0E18" unicode="&#xe18;" horiz-adv-x="526" 
d="M271 -10q-125 0 -218 40v203h100v-138q49 -18 111 -18q63 0 93 18.5t30 65.5t-32 65.5t-115 37.5q-13 3 -19 4q-34 8 -54.5 13.5t-47 17t-41 25t-25 35t-10.5 49.5q0 70 60 106t172 36q117 0 189 -26v-90q-72 28 -174 28q-67 0 -105.5 -10t-38.5 -41q0 -15 7.5 -25.5
t26 -18t35 -12t48.5 -11.5t53 -13q46 -12 72.5 -22.5t53 -29.5t38 -47.5t11.5 -70.5q0 -84 -58.5 -127.5t-161.5 -43.5z" />
    <glyph glyph-name="uni0E19" unicode="&#xe19;" horiz-adv-x="605" 
d="M247 -10q-87 0 -135.5 51.5t-48.5 144.5v354h109v-349q0 -60 26.5 -87t84.5 -27q43 0 83 18t67 47v398h108v-540h-99l-5 59q-81 -69 -190 -69z" />
    <glyph glyph-name="uni0E1A" unicode="&#xe1a;" horiz-adv-x="621" 
d="M310 -10q-118 0 -182.5 55.5t-64.5 164.5v330h109v-334q0 -129 138 -129q139 0 139 129v334h108v-330q0 -109 -64 -164.5t-183 -55.5z" />
    <glyph glyph-name="uni0E1B" unicode="&#xe1b;" horiz-adv-x="621" 
d="M310 -10q-118 0 -182.5 55.5t-64.5 164.5v330h109v-334q0 -129 138 -129q139 0 139 129v494h108v-490q0 -109 -64 -164.5t-183 -55.5z" />
    <glyph glyph-name="uni0E1C" unicode="&#xe1c;" horiz-adv-x="644" 
d="M63 0v439q0 45 25 73t70 28h103l5 -84h-52q-25 0 -35.5 -11.5t-10.5 -37.5v-261l132 229h44l132 -229v394h104v-540h-107l-151 267l-152 -267h-107z" />
    <glyph glyph-name="uni0E1D" unicode="&#xe1d;" horiz-adv-x="644" 
d="M63 0v439q0 45 25 73t70 28h103l5 -84h-52q-25 0 -35.5 -11.5t-10.5 -37.5v-261l132 229h44l132 -229v554h104v-700h-107l-151 267l-152 -267h-107z" />
    <glyph glyph-name="uni0E1E" unicode="&#xe1e;" horiz-adv-x="726" 
d="M160 0l-125 540h107l80 -386l98 309v77h78l109 -386l78 386h106l-124 -540h-100l-100 344l-108 -344h-99z" />
    <glyph glyph-name="uni0E1F" unicode="&#xe1f;" horiz-adv-x="726" 
d="M160 0l-125 540h107l80 -386l98 309v77h78l109 -386l109 546h106l-155 -700h-100l-100 344l-108 -344h-99z" />
    <glyph glyph-name="uni0E20" unicode="&#xe20;" horiz-adv-x="647" 
d="M48 0v86h37q21 0 29.5 9.5t8.5 32.5v67q0 48 15 78.5t56 45.5l-110 27v112q102 92 258 92q119 0 180 -52t61 -163v-335h-108v338q0 68 -31 96t-105 28q-107 0 -161 -51v-18l117 -29v-72q-37 -11 -49.5 -31.5t-12.5 -66.5v-72q0 -122 -118 -122h-67z" />
    <glyph glyph-name="uni0E21" unicode="&#xe21;" horiz-adv-x="605" 
d="M357 -10q-109 0 -189 69l-6 -59h-99v540h109v-398q61 -65 149 -65q57 0 84.5 27t27.5 87v349h108v-354q0 -93 -48.5 -144.5t-135.5 -51.5z" />
    <glyph glyph-name="uni0E22" unicode="&#xe22;" horiz-adv-x="597" 
d="M289 -10q-115 0 -182 41t-67 128q0 85 75 122q-33 12 -52.5 41.5t-19.5 71.5q0 75 46 115.5t123 40.5q51 0 88 -13v-83q-29 8 -68 8q-84 0 -84 -68q0 -71 94 -71h57l5 -81h-64q-95 0 -95 -83q0 -82 139 -82q141 0 141 115v348h108v-335q0 -215 -244 -215z" />
    <glyph glyph-name="uni0E23" unicode="&#xe23;" horiz-adv-x="504" 
d="M240 -10q-117 0 -184 27v91q77 -31 164 -31q73 0 104 13t31 52q0 12 -2.5 21.5t-10.5 17.5t-14.5 13t-22.5 12t-26.5 10.5t-34.5 11t-38 12.5q-82 28 -122.5 61.5t-40.5 94.5q0 73 55 113.5t162 40.5q93 0 165 -24v-90q-67 26 -149 26q-63 0 -95.5 -13.5t-32.5 -49.5
q0 -21 15.5 -36t39 -24.5t66.5 -23.5q19 -6 29 -9q86 -29 124 -63.5t38 -100.5q0 -77 -58 -114.5t-162 -37.5z" />
    <glyph glyph-name="uni0E24" unicode="&#xe24;" horiz-adv-x="613" 
d="M440 -160v498q0 69 -32 96.5t-110 27.5q-105 0 -161 -51v-18l114 -29v-72q-39 -10 -55 -32t-16 -66v-65q0 -23 10 -33t32 -10h55v-86h-108q-45 0 -71 28t-26 73v94q0 100 79 124l-108 27v112q104 92 259 92q123 0 185 -51t62 -164v-495h-109z" />
    <glyph glyph-name="uni0E25" unicode="&#xe25;" horiz-adv-x="594" 
d="M230 -10q-83 0 -133.5 40.5t-50.5 124.5q0 80 54 123.5t156 43.5h165v34q0 59 -30 82.5t-109 23.5q-95 0 -176 -26v84q92 30 194 30q118 0 174 -49.5t56 -154.5v-346h-109v238h-158q-58 0 -85.5 -19t-27.5 -64q0 -43 25 -60.5t84 -17.5q40 0 69 8v-83q-43 -12 -98 -12z
" />
    <glyph glyph-name="uni0E26" unicode="&#xe26;" horiz-adv-x="647" 
d="M475 -160v498q0 68 -31 96t-105 28q-107 0 -161 -51v-18l117 -29v-72q-37 -11 -49.5 -31.5t-12.5 -66.5v-72q0 -122 -118 -122h-67v86h37q21 0 29.5 9.5t8.5 32.5v67q0 48 15 78.5t56 45.5l-110 27v112q102 92 258 92q119 0 180 -52t61 -163v-495h-108z" />
    <glyph glyph-name="uni0E27" unicode="&#xe27;" horiz-adv-x="497" 
d="M197 -10q-93 0 -162 30v86q68 -29 136 -29q101 0 142 43.5t41 149.5q0 104 -42.5 148t-141.5 44q-69 0 -135 -29v87q71 30 159 30q265 0 265 -280t-262 -280z" />
    <glyph glyph-name="uni0E28" unicode="&#xe28;" horiz-adv-x="636" 
d="M63 0v342q0 208 245 208q49 0 94 -10h199l-5 -85h-75q30 -40 30 -113v-342h-109v352q0 110 -134 110q-136 0 -136 -110v-111q44 36 105 36h65l4 -87h-72q-61 0 -102 -34v-156h-109z" />
    <glyph glyph-name="uni0E29" unicode="&#xe29;" horiz-adv-x="635" 
d="M310 -10q-119 0 -183 55.5t-64 164.5v330h108v-334q0 -129 139 -129q138 0 138 129v71h-129v83h129v180h109v-180h59l-8 -83h-51v-67q0 -109 -64.5 -164.5t-182.5 -55.5z" />
    <glyph glyph-name="uni0E2A" unicode="&#xe2a;" horiz-adv-x="609" 
d="M230 -10q-83 0 -133.5 40t-50.5 125q0 80 53.5 123.5t156.5 43.5h165v34q0 59 -30.5 82.5t-109.5 23.5q-95 0 -176 -26v84q92 30 195 30q48 0 93 -10h181l-6 -85h-63q24 -38 24 -109v-346h-108v238h-159q-57 0 -84.5 -19t-27.5 -64q0 -43 25 -60.5t84 -17.5q41 0 68 8
v-83q-41 -12 -97 -12z" />
    <glyph glyph-name="uni0E2B" unicode="&#xe2b;" horiz-adv-x="604" 
d="M63 0v540h109v-170h156q57 0 80.5 24t23.5 76v70h108v-67q0 -114 -81 -143q76 -27 76 -131v-199h-108v186q0 58 -22 79.5t-81 21.5h-152v-287h-109z" />
    <glyph glyph-name="uni0E2C" unicode="&#xe2c;" horiz-adv-x="726" 
d="M160 0l-125 540h107l81 -386l97 269v77h77l108 -346l62 282q10 47 -2 66.5t-48 19.5h-40l13 81h44q38 0 56.5 13.5t25.5 47.5l8 36h97l-10 -49q-15 -78 -78 -91q52 -28 32 -117l-99 -443h-99l-100 312l-108 -312h-99z" />
    <glyph glyph-name="uni0E2D" unicode="&#xe2d;" horiz-adv-x="575" 
d="M265 -10q-122 0 -215 40v278h214l5 -83h-114v-131q46 -17 110 -17q89 0 125.5 42.5t36.5 148.5q0 110 -41.5 152t-148.5 42q-98 0 -179 -26v84q88 30 206 30q139 0 203.5 -70.5t64.5 -211.5q0 -139 -64.5 -208.5t-202.5 -69.5z" />
    <glyph glyph-name="uni0E2E" unicode="&#xe2e;" horiz-adv-x="603" 
d="M265 -10q-122 0 -215 40v278h214l5 -83h-114v-131q46 -17 110 -17q89 0 125.5 42.5t36.5 148.5q0 110 -41.5 152t-148.5 42q-98 0 -179 -26v84q88 30 206 30q47 0 94 -10h210l-5 -85h-80q49 -64 49 -187q0 -139 -64.5 -208.5t-202.5 -69.5z" />
    <glyph glyph-name="uni0E2F" unicode="&#xe2f;" horiz-adv-x="556" 
d="M383 0v278q-59 -37 -138 -37q-89 0 -142 45.5t-53 126.5q0 65 28 127h107q-30 -60 -30 -122q0 -92 103 -92q77 0 125 36v178h109v-540h-109z" />
    <glyph glyph-name="uni0E30" unicode="&#xe30;" horiz-adv-x="324" 
d="M43 331v130h93v-49h147l-4 -81h-236zM43 59v130h93v-50h147l-4 -80h-236z" />
    <glyph glyph-name="uni0E31" unicode="&#xe31;" 
d="M-301 622v146h90v-70h259l-5 -76h-344z" />
    <glyph glyph-name="uni0E32" unicode="&#xe32;" horiz-adv-x="440" 
d="M267 0v340q0 65 -23.5 93.5t-93.5 28.5q-72 0 -137 -26v84q71 30 158 30q108 0 156.5 -47t48.5 -149v-354h-109z" />
    <glyph glyph-name="uni0E33" unicode="&#xe33;" horiz-adv-x="440" 
d="M-119 598q-48 0 -80.5 31t-32.5 77q0 47 32.5 78t80.5 31q47 0 79.5 -31t32.5 -78q0 -46 -32.5 -77t-79.5 -31zM-119 660q19 0 32.5 14t13.5 32q0 20 -13.5 34t-32.5 14t-33.5 -14t-14.5 -34q0 -18 14.5 -32t33.5 -14zM267 0v340q0 65 -23.5 93.5t-93.5 28.5
q-72 0 -137 -26v84q71 30 158 30q108 0 156.5 -47t48.5 -149v-354h-109z" />
    <glyph glyph-name="uni0E34" unicode="&#xe34;" 
d="M-481 622l5 76h412v-76h-417z" />
    <glyph glyph-name="uni0E35" unicode="&#xe35;" 
d="M-481 622l5 76h322v83h90v-159h-417z" />
    <glyph glyph-name="uni0E36" unicode="&#xe36;" 
d="M-481 622l5 76h248q-2 10 -2 22q0 31 24 54t65 23q45 0 68 -25t23 -60q0 -39 -25 -64.5t-70 -25.5h-336zM-140 673q18 0 28.5 11t10.5 27q0 17 -11 28.5t-28 11.5q-16 0 -27.5 -11t-11.5 -29q0 -16 11 -27t28 -11z" />
    <glyph glyph-name="uni0E37" unicode="&#xe37;" 
d="M-481 622l5 76h194v83h79v-83h60v83h79v-159h-417z" />
    <glyph glyph-name="uni0E38" unicode="&#xe38;" 
d="M-157 -252v124h-63l5 71h151v-195h-93z" />
    <glyph glyph-name="uni0E39" unicode="&#xe39;" 
d="M-185 -261q-54 0 -86 24t-32 61v51h-54l4 68h128v-101q0 -33 40 -33q41 0 41 33v101h79v-108q0 -41 -31.5 -68.5t-88.5 -27.5z" />
    <glyph glyph-name="uni0E3A" unicode="&#xe3a;" 
d="M-116 -165q-25 0 -42 16.5t-17 41.5t17 41.5t42 16.5t42 -16.5t17 -41.5t-17 -41.5t-42 -16.5z" />
    <glyph glyph-name="uni0E3F" unicode="&#xe3f;" horiz-adv-x="631" 
d="M264 -86v86h-201v644h201v86h81v-86h30q188 0 188 -172q0 -102 -77 -141q102 -30 102 -145q0 -186 -199 -186h-44v-86h-81zM172 369h92v193h-92v-193zM345 369h15q102 0 102 94q0 52 -25 75.5t-89 23.5h-3v-193zM172 80h92v209h-92v-209zM345 80h21q59 0 85.5 25t26.5 85
q0 51 -27.5 75t-95.5 24h-10v-209z" />
    <glyph glyph-name="uni0E40" unicode="&#xe40;" horiz-adv-x="307" 
d="M170 0q-105 0 -105 104v436h108v-409q0 -45 44 -45h46v-86h-93z" />
    <glyph glyph-name="uni0E41" unicode="&#xe41;" horiz-adv-x="542" 
d="M168 0q-105 0 -105 104v436h109v-409q0 -45 44 -45h40v-86h-88zM411 0q-105 0 -105 104v436h108v-409q0 -45 44 -45h41v-86h-88z" />
    <glyph glyph-name="uni0E42" unicode="&#xe42;" horiz-adv-x="315" 
d="M206 0q-60 0 -82.5 31.5t-22.5 95.5v435q0 62 -24 95.5t-79 53.5v83h307v-86h-170q40 -23 57 -58t17 -98v-421q0 -27 8.5 -36t35.5 -9h46v-86h-93z" />
    <glyph glyph-name="uni0E43" unicode="&#xe43;" horiz-adv-x="294" 
d="M155 0q-105 0 -105 104v331q0 45 18.5 83t40.5 58.5t40.5 43t18.5 41.5q0 28 -15.5 38.5t-50.5 10.5q-54 0 -109 -30v80q62 37 146 37q70 0 105.5 -30t35.5 -85q0 -35 -19 -66.5t-42 -52.5t-42 -55.5t-19 -75.5v-301q0 -27 8.5 -36t35.5 -9h46v-86h-93z" />
    <glyph glyph-name="uni0E44" unicode="&#xe44;" horiz-adv-x="301" 
d="M184 0q-105 0 -105 104v445q0 108 76 159h-167v86h299v-82q-54 -21 -77 -63.5t-23 -115.5v-402q0 -27 8.5 -36t35.5 -9h46v-86h-93z" />
    <glyph glyph-name="uni0E45" unicode="&#xe45;" horiz-adv-x="440" 
d="M267 -160v500q0 65 -23.5 93.5t-93.5 28.5q-72 0 -137 -26v84q71 30 158 30q108 0 156.5 -47t48.5 -149v-514h-109z" />
    <glyph glyph-name="uni0E46" unicode="&#xe46;" horiz-adv-x="595" 
d="M422 0v407q0 55 -41 55q-38 0 -59 -48h-51q-10 26 -20 37t-30 11q-58 0 -58 -96q0 -47 21.5 -68t65.5 -21q45 0 69 8v-84q-36 -12 -89 -12q-85 0 -132.5 45.5t-47.5 131.5q0 77 39 130.5t108 53.5q65 0 100 -50q42 50 112 50q63 0 92.5 -37t29.5 -113v-400h-109z" />
    <glyph glyph-name="uni0E47" unicode="&#xe47;" 
d="M-357 621q-59 0 -92.5 30t-33.5 85q0 56 35 88.5t98 32.5h246l-5 -64h-231q-67 0 -67 -57q0 -53 57 -53q53 0 53 42v21h67v-21q0 -39 46 -39h63v-63h-70q-57 0 -73 31q-10 -16 -37 -24.5t-56 -8.5z" />
    <glyph glyph-name="uni0E48" unicode="&#xe48;" 
d="M-173 623v164h109v-164h-109z" />
    <glyph glyph-name="uni0E49" unicode="&#xe49;" 
d="M-293 622v92h-79v75h154v-91h216l-4 -76h-287z" />
    <glyph glyph-name="uni0E4A" unicode="&#xe4a;" 
d="M-347 613q-113 0 -113 105q0 50 26 78t69 28q51 0 67 -39h1q16 39 69 39q88 0 88 -80v-67h11q13 0 18 6.5t5 22.5v113h63v-118q0 -36 -21.5 -57.5t-59.5 -21.5h-80v103q0 22 -6.5 31t-25.5 9q-21 0 -27.5 -10.5t-6.5 -32.5v-13h-53v13q0 43 -33 43q-37 0 -37 -49
q0 -28 12.5 -38.5t42.5 -10.5h28v-54h-37z" />
    <glyph glyph-name="uni0E4B" unicode="&#xe4b;" 
d="M-230 622v43h-65v80h65v49h100v-49h66v-80h-66v-43h-100z" />
    <glyph glyph-name="uni0E4C" unicode="&#xe4c;" 
d="M-301 622v146h294l-4 -76h-200v-70h-90z" />
    <glyph glyph-name="uni0E4D" unicode="&#xe4d;" 
d="M-119 598q-48 0 -80.5 31t-32.5 77q0 47 32.5 78t80.5 31q47 0 79.5 -31t32.5 -78q0 -46 -32.5 -77t-79.5 -31zM-119 660q19 0 32.5 14t13.5 32q0 20 -13.5 34t-32.5 14t-33.5 -14t-14.5 -34q0 -18 14.5 -32t33.5 -14z" />
    <glyph glyph-name="uni0E4E" unicode="&#xe4e;" 
d="M-181 622q-110 0 -110 74q0 36 23 57t57 25q-15 15 -15 41q0 28 26 45.5t74 17.5q34 0 58 -11v-49q-22 12 -50 12q-42 0 -42 -24q0 -21 41 -29v-48q-16 8 -42 8q-57 0 -57 -35q0 -30 50 -30q39 0 61 15v-53q-24 -16 -74 -16z" />
    <glyph glyph-name="uni0E4F" unicode="&#xe4f;" horiz-adv-x="604" 
d="M302 -10q-108 0 -183.5 75t-75.5 183q0 107 76 182.5t183 75.5q106 0 182 -76t76 -182q0 -108 -75.5 -183t-182.5 -75zM302 65q75 0 129 53.5t54 129.5q0 75 -54 129t-129 54q-76 0 -129.5 -54t-53.5 -129q0 -76 53.5 -129.5t129.5 -53.5zM302 120q-53 0 -90.5 37.5
t-37.5 90.5t37.5 90t90.5 37q52 0 89.5 -37.5t37.5 -89.5q0 -53 -37 -90.5t-90 -37.5zM302 183q27 0 45.5 19t18.5 46q0 26 -18.5 45t-45.5 19t-45.5 -18.5t-18.5 -45.5t18.5 -46t45.5 -19z" />
    <glyph glyph-name="uni0E50" unicode="&#xe50;" horiz-adv-x="612" 
d="M306 -10q-122 0 -192.5 62.5t-70.5 184.5q0 120 71 183.5t192 63.5q120 0 191 -63.5t71 -183.5q0 -122 -70 -184.5t-192 -62.5zM306 77q79 0 118 38.5t39 121.5t-39 121t-118 38q-158 0 -158 -159q0 -160 158 -160z" />
    <glyph glyph-name="uni0E51" unicode="&#xe51;" horiz-adv-x="637" 
d="M297 -105v92q101 24 146.5 80t45.5 153q0 87 -40.5 131.5t-130.5 44.5q-88 0 -129 -34.5t-41 -107.5q0 -61 28.5 -89t87.5 -28q58 0 91 22v-83q-44 -26 -114 -26q-95 0 -146.5 53t-51.5 151q0 111 70.5 170.5t204.5 59.5q138 0 207 -69t69 -198q0 -121 -76 -206.5
t-221 -115.5z" />
    <glyph glyph-name="uni0E52" unicode="&#xe52;" horiz-adv-x="703" 
d="M360 -10q-138 0 -217.5 62.5t-79.5 181.5v306h98v-304q0 -162 199 -162q85 0 133 35t48 106v131q0 31 -9.5 45t-32.5 14q-40 0 -51 -54h-62q-6 19 -10 28t-14 17.5t-25 8.5q-27 0 -38.5 -21.5t-11.5 -70.5q0 -42 19 -58.5t62 -16.5q36 0 61 9v-68q-36 -13 -78 -13
q-68 0 -107.5 36.5t-39.5 110.5q0 171 118 171q61 0 95 -49q38 49 106 49q58 0 87 -33.5t29 -94.5v-132q0 -112 -75 -173t-204 -61z" />
    <glyph glyph-name="uni0E53" unicode="&#xe53;" horiz-adv-x="641" 
d="M258 -10q-104 0 -159.5 54.5t-55.5 180.5q0 130 45.5 194.5t125.5 64.5q73 0 112 -54q44 54 116 54q61 0 99.5 -34t38.5 -96v-354h-106v335q0 34 -12 47.5t-42 13.5q-24 0 -39 -14t-15 -39v-86l-83 1v86q0 25 -16 38.5t-39 13.5q-45 0 -63.5 -40t-18.5 -132
q0 -86 31 -116.5t101 -30.5q45 0 69 8v-83q-35 -12 -89 -12z" />
    <glyph glyph-name="uni0E54" unicode="&#xe54;" horiz-adv-x="629" 
d="M276 -10q-109 0 -171 59.5t-62 173.5q0 125 84 193t238 68q83 0 132.5 8.5t89.5 33.5v-88q-66 -40 -218 -40q-115 0 -169 -42t-54 -133q0 -147 139 -147q26 0 45 9q-16 29 -16 73q0 64 43 100.5t114 36.5q62 0 99 -19v-75q-29 16 -71 16q-46 0 -67.5 -13.5t-21.5 -47.5
q0 -17 4 -29.5t16 -19.5t21 -11.5t32 -6t35.5 -2t43.5 -0.5h43v-87h-76q-79 0 -129 22q-53 -32 -124 -32z" />
    <glyph glyph-name="uni0E55" unicode="&#xe55;" horiz-adv-x="626" 
d="M276 -10q-110 0 -171.5 56.5t-61.5 169.5q0 79 45 139t122 84q-35 6 -63 22v82q25 -22 94 -40.5t124 -18.5q83 0 132.5 8.5t89.5 33.5v-88q-66 -40 -218 -40q-102 0 -162.5 -46.5t-60.5 -135.5q0 -75 35.5 -107.5t103.5 -32.5q26 0 45 9q-16 29 -16 73q0 64 43 100.5
t114 36.5q62 0 99 -19v-75q-29 16 -71 16q-46 0 -67.5 -13.5t-21.5 -47.5q0 -17 4 -29.5t16 -19.5t21 -11.5t32 -6t35.5 -2t43.5 -0.5h43v-87h-76q-79 0 -129 22q-53 -32 -124 -32z" />
    <glyph glyph-name="uni0E56" unicode="&#xe56;" horiz-adv-x="646" 
d="M334 -10q-115 0 -190 52v87q79 -52 182 -52q172 0 172 159q0 82 -35 121t-112 39q-125 0 -158 -127h-77l-93 271h96l52 -158q27 48 78.5 75t117.5 27q120 0 177.5 -67t57.5 -181q0 -115 -71.5 -180.5t-196.5 -65.5z" />
    <glyph glyph-name="uni0E57" unicode="&#xe57;" horiz-adv-x="852" 
d="M258 -10q-105 0 -160 54.5t-55 180.5q0 131 43 195t122 64q72 0 111 -54q45 54 117 54q65 0 99 -33.5t34 -98.5v-271h17q59 0 82 24.5t23 88.5v346h97v-327q0 -113 -48.5 -163t-164.5 -50h-101v335q0 35 -12.5 48.5t-43.5 13.5q-23 0 -39.5 -14t-16.5 -39v-86h-90v85
q0 26 -14.5 40t-37.5 14q-44 0 -60 -42t-16 -131q0 -90 32 -120t104 -30q45 0 69 8v-80q-35 -12 -91 -12z" />
    <glyph glyph-name="uni0E58" unicode="&#xe58;" horiz-adv-x="628" 
d="M213 -10q-82 0 -126 59t-44 178q0 257 303 257q89 0 143.5 8.5t95.5 33.5v-88q-67 -40 -237 -40q-107 0 -154.5 -37.5t-47.5 -133.5q0 -85 20 -118t63 -33q27 0 45.5 14t18.5 39v77h77v-78q0 -25 20 -38.5t45 -13.5q37 0 61 18v132h-65l6 68h147v-258q-54 -46 -132 -46
q-81 0 -120 52q-38 -52 -119 -52z" />
    <glyph glyph-name="uni0E59" unicode="&#xe59;" horiz-adv-x="744" 
d="M231 -10q-86 0 -137 58.5t-51 177.5q0 258 175 258q78 0 107 -54q35 54 114 54q53 0 89.5 -28t36.5 -76v-17h6q38 0 51.5 16t13.5 65v76h85v-54q0 -102 -37.5 -141.5t-131.5 -39.5h-62v42q0 38 -11.5 54t-43.5 16q-31 0 -44.5 -17t-4.5 -46l98 -334h-94l-102 345
q-8 27 -22 39.5t-44 12.5q-42 0 -59.5 -41t-17.5 -133q0 -83 25.5 -116t78.5 -33q33 0 56 8v-85q-29 -7 -74 -7z" />
    <glyph glyph-name="uni0E5A" unicode="&#xe5a;" horiz-adv-x="880" 
d="M383 0v278q-59 -37 -138 -37q-89 0 -142 45.5t-53 126.5q0 65 28 127h107q-30 -60 -30 -122q0 -92 103 -92q77 0 125 36v178h109v-180q29 -34 90 -34q77 0 125 36v178h109v-540h-109v278q-59 -37 -138 -37q-50 0 -77 20v-261h-109z" />
    <glyph glyph-name="uni0E5B" unicode="&#xe5b;" horiz-adv-x="1175" 
d="M318 22q-128 0 -201.5 71t-73.5 197q0 115 61.5 187.5t169.5 72.5q102 0 154 -49.5t52 -136.5q0 -142 -148 -189v81q37 19 51.5 43.5t14.5 62.5q0 115 -121 115q-71 0 -108 -49.5t-37 -133.5q0 -97 48 -146t138 -49q111 0 167.5 63t56.5 176q0 72 -11 130h94
q53 -87 74 -187h2q33 97 30 168h70q39 -81 57 -157h2q24 68 29 142h60q30 -54 48 -133h2q19 50 19 112h55q2 -32 -2 -59h60l-4 -60h-70q-9 -39 -34 -83h-55q-3 21 -15.5 59.5t-23.5 59.5h-2q-2 -24 -13 -71t-20 -70h-71q-12 81 -49 153h-2q-8 -83 -40 -175h-70
q-5 91 -47 183h-2q7 -150 -71.5 -239t-223.5 -89z" />
    <glyph glyph-name="uni1E0C" unicode="&#x1e0c;" horiz-adv-x="649" 
d="M63 0v644h261q145 0 213 -77t68 -249q0 -165 -68 -241.5t-213 -76.5h-261zM172 84h135q50 0 83 10t58 35.5t36.5 71.5t11.5 117q0 138 -42.5 189.5t-146.5 51.5h-135v-475zM271 -173v88h94v-88h-94z" />
    <glyph glyph-name="uni1E0D" unicode="&#x1e0d;" horiz-adv-x="582" 
d="M259 -10q-216 0 -216 232q0 124 62.5 193t163.5 69q81 0 141 -41v231h109v-674h-93l-7 47q-63 -57 -160 -57zM288 72q73 0 122 50v237q-47 42 -118 42q-139 0 -139 -180q0 -83 31.5 -116t103.5 -33zM249 -173v88h94v-88h-94z" />
    <glyph glyph-name="uni1E0E" unicode="&#x1e0e;" horiz-adv-x="649" 
d="M63 0v644h261q145 0 213 -77t68 -249q0 -165 -68 -241.5t-213 -76.5h-261zM172 84h135q50 0 83 10t58 35.5t36.5 71.5t11.5 117q0 138 -42.5 189.5t-146.5 51.5h-135v-475zM131 -164v71h298v-71h-298z" />
    <glyph glyph-name="uni1E0F" unicode="&#x1e0f;" horiz-adv-x="582" 
d="M259 -10q-216 0 -216 232q0 124 62.5 193t163.5 69q81 0 141 -41v231h109v-674h-93l-7 47q-63 -57 -160 -57zM288 72q73 0 122 50v237q-47 42 -118 42q-139 0 -139 -180q0 -83 31.5 -116t103.5 -33zM151 -164v71h298v-71h-298z" />
    <glyph glyph-name="uni1E20" unicode="&#x1e20;" horiz-adv-x="641" 
d="M212 717v71h298v-71h-298zM363 -10q-156 0 -238 84.5t-82 234.5q0 163 81 254t242 91q107 0 191 -29v-94q-82 30 -182 30q-119 0 -170.5 -62.5t-51.5 -189.5q0 -227 213 -227q86 0 139 20v180h-161v71h254v-310q-82 -53 -235 -53z" />
    <glyph glyph-name="uni1E21" unicode="&#x1e21;" horiz-adv-x="554" 
d="M131 551v71h298v-71h-298zM255 -176q-121 0 -196 26v84q79 -27 191 -27q76 0 107 8.5t31 35.5q0 21 -16.5 29.5t-60.5 8.5h-128q-129 0 -129 91q0 67 71 92q-80 39 -80 139q0 90 54 131.5t164 41.5q39 0 87 -10h174l-3 -71h-80q37 -33 37 -92q0 -78 -46.5 -120.5
t-138.5 -42.5q-24 0 -59 5q-32 -3 -55 -16.5t-23 -34.5q0 -28 52 -28h133q71 0 109.5 -30.5t38.5 -88.5q0 -69 -58.5 -100t-175.5 -31zM263 217q65 0 90.5 21.5t25.5 75.5t-26 77.5t-90 23.5q-62 0 -89.5 -23.5t-27.5 -77.5q0 -52 26.5 -74.5t90.5 -22.5z" />
    <glyph glyph-name="uni1E24" unicode="&#x1e24;" horiz-adv-x="654" 
d="M63 0v644h109v-280h310v280h109v-644h-109v280h-310v-280h-109zM280 -173v88h94v-88h-94z" />
    <glyph glyph-name="uni1E25" unicode="&#x1e25;" horiz-adv-x="578" 
d="M63 0v674h109v-246q70 56 171 56q90 0 133 -43t43 -134v-307h-108v302q0 55 -23.5 77t-81.5 22q-36 0 -73 -15.5t-61 -40.5v-345h-109zM248 -173v88h94v-88h-94z" />
    <glyph glyph-name="uni1E2A" unicode="&#x1e2a;" horiz-adv-x="654" 
d="M63 0v644h109v-280h310v280h109v-644h-109v280h-310v-280h-109zM325 -207q-66 0 -103.5 38t-37.5 104h74q0 -36 17.5 -56.5t49.5 -20.5q33 0 51.5 20.5t18.5 56.5h74q0 -65 -38.5 -103.5t-105.5 -38.5z" />
    <glyph glyph-name="uni1E2B" unicode="&#x1e2b;" horiz-adv-x="578" 
d="M63 0v674h109v-246q70 56 171 56q90 0 133 -43t43 -134v-307h-108v302q0 55 -23.5 77t-81.5 22q-36 0 -73 -15.5t-61 -40.5v-345h-109zM297 -207q-66 0 -103.5 38t-37.5 104h74q0 -36 17.5 -56.5t49.5 -20.5q33 0 51.5 20.5t18.5 56.5h74q0 -65 -38.5 -103.5
t-105.5 -38.5z" />
    <glyph glyph-name="uni1E36" unicode="&#x1e36;" horiz-adv-x="525" 
d="M63 0v644h109v-560h330v-84h-439zM228 -173v88h94v-88h-94z" />
    <glyph glyph-name="uni1E37" unicode="&#x1e37;" horiz-adv-x="280" 
d="M181 -10q-60 0 -89 29t-29 94v561h109v-551q0 -27 9.5 -37.5t30.5 -10.5q24 0 46 6v-79q-33 -12 -77 -12zM99 -173v88h94v-88h-94z" />
    <glyph glyph-name="uni1E38" unicode="&#x1e38;" horiz-adv-x="525" 
d="M-13 717v71h298v-71h-298zM63 0v644h109v-560h330v-84h-439zM228 -173v88h94v-88h-94z" />
    <glyph glyph-name="uni1E39" unicode="&#x1e39;" horiz-adv-x="280" 
d="M-31 722v71h298v-71h-298zM181 -10q-60 0 -89 29t-29 94v561h109v-551q0 -27 9.5 -37.5t30.5 -10.5q24 0 46 6v-79q-33 -12 -77 -12zM99 -173v88h94v-88h-94z" />
    <glyph glyph-name="uni1E3A" unicode="&#x1e3a;" horiz-adv-x="525" 
d="M63 0v644h109v-560h330v-84h-439zM122 -146v71h298v-71h-298z" />
    <glyph glyph-name="uni1E3B" unicode="&#x1e3b;" horiz-adv-x="280" 
d="M181 -10q-60 0 -89 29t-29 94v561h109v-551q0 -27 9.5 -37.5t30.5 -10.5q24 0 46 6v-79q-33 -12 -77 -12zM-5 -146v71h298v-71h-298z" />
    <glyph glyph-name="uni1E42" unicode="&#x1e42;" horiz-adv-x="757" 
d="M63 0v644h112l204 -417l203 417h112v-644h-108v467l-174 -356h-66l-175 356v-467h-108zM333 -173v88h94v-88h-94z" />
    <glyph glyph-name="uni1E43" unicode="&#x1e43;" horiz-adv-x="856" 
d="M63 0v474h100l5 -50q76 60 167 60t123 -62q76 62 179 62q82 0 121 -42t39 -129v-313h-107v302q0 54 -23 76.5t-75 22.5q-74 0 -117 -48q5 -19 5 -49v-304h-101v301q0 54 -18.5 77t-67.5 23q-63 0 -123 -56v-345h-107zM380 -173v88h94v-88h-94z" />
    <glyph glyph-name="uni1E44" unicode="&#x1e44;" horiz-adv-x="667" 
d="M298 711v88h92v-88h-92zM63 0v644h96l336 -474v474h108v-644h-96l-335 473v-473h-109z" />
    <glyph glyph-name="uni1E45" unicode="&#x1e45;" horiz-adv-x="578" 
d="M243 545v88h92v-88h-92zM63 0v474h100l5 -50q76 60 175 60q92 0 134 -43t42 -134v-307h-108v302q0 55 -23 77t-84 22q-78 0 -132 -54v-347h-109z" />
    <glyph glyph-name="uni1E46" unicode="&#x1e46;" horiz-adv-x="667" 
d="M63 0v644h96l336 -474v474h108v-644h-96l-335 473v-473h-109zM287 -173v88h94v-88h-94z" />
    <glyph glyph-name="uni1E47" unicode="&#x1e47;" horiz-adv-x="578" 
d="M63 0v474h100l5 -50q76 60 175 60q92 0 134 -43t42 -134v-307h-108v302q0 55 -23 77t-84 22q-78 0 -132 -54v-347h-109zM247 -173v88h94v-88h-94z" />
    <glyph glyph-name="uni1E48" unicode="&#x1e48;" horiz-adv-x="667" 
d="M63 0v644h96l336 -474v474h108v-644h-96l-335 473v-473h-109zM188 -143v71h298v-71h-298z" />
    <glyph glyph-name="uni1E49" unicode="&#x1e49;" horiz-adv-x="578" 
d="M63 0v474h100l5 -50q76 60 175 60q92 0 134 -43t42 -134v-307h-108v302q0 55 -23 77t-84 22q-78 0 -132 -54v-347h-109zM143 -143v71h298v-71h-298z" />
    <glyph glyph-name="uni1E5A" unicode="&#x1e5a;" horiz-adv-x="610" 
d="M63 0v644h296q105 0 156 -54t51 -152q0 -69 -34.5 -116.5t-97.5 -66.5q27 -19 48 -68l81 -187h-112l-79 180q-12 27 -28 37.5t-51 10.5h-121v-228h-109zM172 316h158q127 0 127 122q0 121 -117 121h-168v-243zM259 -173v88h94v-88h-94z" />
    <glyph glyph-name="uni1E5B" unicode="&#x1e5b;" horiz-adv-x="367" 
d="M63 0v474h100l6 -55q76 49 174 65v-83q-106 -19 -171 -59v-342h-109zM69 -173v88h94v-88h-94z" />
    <glyph glyph-name="uni1E5C" unicode="&#x1e5c;" horiz-adv-x="610" 
d="M144 717v71h298v-71h-298zM63 0v644h296q105 0 156 -54t51 -152q0 -69 -34.5 -116.5t-97.5 -66.5q27 -19 48 -68l81 -187h-112l-79 180q-12 27 -28 37.5t-51 10.5h-121v-228h-109zM172 316h158q127 0 127 122q0 121 -117 121h-168v-243zM259 -173v88h94v-88h-94z" />
    <glyph glyph-name="uni1E5D" unicode="&#x1e5d;" horiz-adv-x="371" 
d="M11 551v71h298v-71h-298zM67 0v474h100l6 -55q76 49 174 65v-83q-106 -19 -171 -59v-342h-109zM74 -173v88h94v-88h-94z" />
    <glyph glyph-name="uni1E5E" unicode="&#x1e5e;" horiz-adv-x="610" 
d="M63 0v644h296q105 0 156 -54t51 -152q0 -69 -34.5 -116.5t-97.5 -66.5q27 -19 48 -68l81 -187h-112l-79 180q-12 27 -28 37.5t-51 10.5h-121v-228h-109zM172 316h158q127 0 127 122q0 121 -117 121h-168v-243zM145 -143v71h298v-71h-298z" />
    <glyph glyph-name="uni1E5F" unicode="&#x1e5f;" horiz-adv-x="367" 
d="M63 0v474h100l6 -55q76 49 174 65v-83q-106 -19 -171 -59v-342h-109zM-23 -143v71h298v-71h-298z" />
    <glyph glyph-name="uni1E60" unicode="&#x1e60;" horiz-adv-x="555" 
d="M229 711v88h92v-88h-92zM258 -10q-125 0 -201 32v96q93 -36 191 -36q81 0 117.5 19t36.5 71q0 47 -34.5 69.5t-136.5 48.5q-104 27 -146 68.5t-42 114.5q0 86 63 133.5t184 47.5q107 0 183 -26v-96q-76 29 -168 29q-76 0 -114 -20t-38 -68q0 -42 31.5 -62.5t126.5 -44.5
q113 -29 157 -75t44 -119q0 -86 -64.5 -134t-189.5 -48z" />
    <glyph glyph-name="uni1E61" unicode="&#x1e61;" horiz-adv-x="464" 
d="M189 545v88h92v-88h-92zM221 -10q-102 0 -167 24v92q67 -27 153 -27q58 0 81 10t23 39q0 7 -1.5 13t-5.5 11t-7.5 8.5t-11.5 8t-14 7.5t-18 7t-20 7t-24.5 8t-27.5 9q-72 24 -105 53.5t-33 87.5q0 136 198 136q80 0 141 -21v-91q-57 23 -124 23q-55 0 -80 -9.5t-25 -35.5
q0 -24 19 -35t75 -29q14 -4 22 -7q85 -26 118 -57.5t33 -92.5q0 -139 -199 -139z" />
    <glyph glyph-name="uni1E62" unicode="&#x1e62;" horiz-adv-x="555" 
d="M258 -10q-125 0 -201 32v96q93 -36 191 -36q81 0 117.5 19t36.5 71q0 47 -34.5 69.5t-136.5 48.5q-104 27 -146 68.5t-42 114.5q0 86 63 133.5t184 47.5q107 0 183 -26v-96q-76 29 -168 29q-76 0 -114 -20t-38 -68q0 -42 31.5 -62.5t126.5 -44.5q113 -29 157 -75t44 -119
q0 -86 -64.5 -134t-189.5 -48zM222 -173v88h94v-88h-94z" />
    <glyph glyph-name="uni1E63" unicode="&#x1e63;" horiz-adv-x="464" 
d="M221 -10q-102 0 -167 24v92q67 -27 153 -27q58 0 81 10t23 39q0 7 -1.5 13t-5.5 11t-7.5 8.5t-11.5 8t-14 7.5t-18 7t-20 7t-24.5 8t-27.5 9q-72 24 -105 53.5t-33 87.5q0 136 198 136q80 0 141 -21v-91q-57 23 -124 23q-55 0 -80 -9.5t-25 -35.5q0 -24 19 -35t75 -29
q14 -4 22 -7q85 -26 118 -57.5t33 -92.5q0 -139 -199 -139zM193 -173v88h94v-88h-94z" />
    <glyph glyph-name="uni1E6C" unicode="&#x1e6c;" horiz-adv-x="568" 
d="M230 0v559h-206v85h520v-85h-205v-559h-109zM237 -166v88h94v-88h-94z" />
    <glyph glyph-name="uni1E6D" unicode="&#x1e6d;" horiz-adv-x="363" 
d="M244 -10q-75 0 -113 39.5t-38 111.5v248h-70v85h70v109l108 33v-142h126l-7 -85h-119v-242q0 -41 18.5 -57.5t62.5 -16.5q27 0 57 10v-77q-39 -16 -95 -16zM178 -166v88h94v-88h-94z" />
    <glyph glyph-name="uni1E6E" unicode="&#x1e6e;" horiz-adv-x="568" 
d="M230 0v559h-206v85h520v-85h-205v-559h-109zM135 -136v71h298v-71h-298z" />
    <glyph glyph-name="uni1E6F" unicode="&#x1e6f;" horiz-adv-x="363" 
d="M244 -10q-75 0 -113 39.5t-38 111.5v248h-70v85h70v109l108 33v-142h126l-7 -85h-119v-242q0 -41 18.5 -57.5t62.5 -16.5q27 0 57 10v-77q-39 -16 -95 -16zM51 -136v71h298v-71h-298z" />
    <glyph glyph-name="Wgrave" unicode="&#x1e80;" horiz-adv-x="869" 
d="M376 688l-83 177h95l76 -177h-88zM194 0l-150 644h107l109 -483l122 405v78h89l137 -483l111 483h106l-149 -644h-107l-129 451l-137 -451h-109z" />
    <glyph glyph-name="wgrave" unicode="&#x1e81;" horiz-adv-x="746" 
d="M322 522l-83 177h95l76 -177h-88zM168 0l-125 474h109l82 -345l93 287v58h83l103 -345l82 345h108l-124 -474h-103l-101 310l-103 -310h-104z" />
    <glyph glyph-name="Wacute" unicode="&#x1e82;" horiz-adv-x="869" 
d="M388 688l75 177h96l-84 -177h-87zM194 0l-150 644h107l109 -483l122 405v78h89l137 -483l111 483h106l-149 -644h-107l-129 451l-137 -451h-109z" />
    <glyph glyph-name="wacute" unicode="&#x1e83;" horiz-adv-x="746" 
d="M324 522l75 177h96l-84 -177h-87zM168 0l-125 474h109l82 -345l93 287v58h83l103 -345l82 345h108l-124 -474h-103l-101 310l-103 -310h-104z" />
    <glyph glyph-name="Wdieresis" unicode="&#x1e84;" horiz-adv-x="869" 
d="M301 710v86h92v-86h-92zM487 710v86h92v-86h-92zM194 0l-150 644h107l109 -483l122 405v78h89l137 -483l111 483h106l-149 -644h-107l-129 451l-137 -451h-109z" />
    <glyph glyph-name="wdieresis" unicode="&#x1e85;" horiz-adv-x="746" 
d="M236 544v86h92v-86h-92zM422 544v86h92v-86h-92zM168 0l-125 474h109l82 -345l93 287v58h83l103 -345l82 345h108l-124 -474h-103l-101 310l-103 -310h-104z" />
    <glyph glyph-name="uni1E8E" unicode="&#x1e8e;" horiz-adv-x="656" 
d="M282 711v88h92v-88h-92zM274 0v239l-231 405h113l172 -313l172 313h113l-231 -405v-239h-108z" />
    <glyph glyph-name="uni1E8F" unicode="&#x1e8f;" horiz-adv-x="598" 
d="M262 545v88h92v-88h-92zM170 -176q-54 0 -92 14v81q28 -10 61 -10q43 0 65 20.5t50 76.5l-211 468h113l152 -352l154 352h112l-193 -447q-43 -102 -89.5 -152.5t-121.5 -50.5z" />
    <glyph glyph-name="uni1E92" unicode="&#x1e92;" horiz-adv-x="575" 
d="M43 0v58l346 497h-329v89h469v-67l-343 -493h348v-84h-491zM256 -173v88h94v-88h-94z" />
    <glyph glyph-name="uni1E93" unicode="&#x1e93;" horiz-adv-x="487" 
d="M43 0v57l259 328h-247v89h381v-67l-254 -323h261v-84h-400zM195 -173v88h94v-88h-94z" />
    <glyph glyph-name="uni1E97" unicode="&#x1e97;" horiz-adv-x="363" 
d="M24 643v86h92v-86h-92zM210 643v86h92v-86h-92zM244 -10q-75 0 -113 39.5t-38 111.5v248h-70v85h70v109l108 33v-142h126l-7 -85h-119v-242q0 -41 18.5 -57.5t62.5 -16.5q27 0 57 10v-77q-39 -16 -95 -16z" />
    <glyph glyph-name="uni1E9E" unicode="&#x1e9e;" horiz-adv-x="625" 
d="M385 -10q-85 0 -144 22v92q50 -22 124 -22q112 0 112 102q0 46 -26 65.5t-80 19.5h-96v92l178 111q0 41 -35.5 66.5t-106.5 25.5q-76 0 -112 -33t-36 -102v-429h-105v426q0 109 65.5 168.5t187.5 59.5q123 0 184 -58.5t61 -151.5l-170 -103h36q72 0 115.5 -43.5
t43.5 -114.5q0 -87 -52.5 -140t-143.5 -53z" />
    <glyph glyph-name="uni1EA0" unicode="&#x1ea0;" horiz-adv-x="700" 
d="M44 0l246 644h122l244 -644h-112l-64 166h-259l-64 -166h-113zM238 250h224l-112 295zM303 -173v88h94v-88h-94z" />
    <glyph glyph-name="uni1EA1" unicode="&#x1ea1;" horiz-adv-x="547" 
d="M211 -10q-72 0 -120 37.5t-48 107.5t47.5 110.5t142.5 40.5h152v21q0 52 -26 72t-103 20q-84 0 -157 -25v81q73 29 177 29q213 0 213 -179v-305h-93l-7 48q-60 -58 -178 -58zM240 68q94 0 145 61v83h-150q-48 0 -69.5 -18t-21.5 -57q0 -69 96 -69zM241 -173v88h94v-88
h-94z" />
    <glyph glyph-name="uni1EA2" unicode="&#x1ea2;" horiz-adv-x="700" 
d="M308 688v82q55 3 73.5 13.5t18.5 36.5q0 42 -74 42q-35 0 -64 -12v59q36 13 93 13q61 0 93.5 -25t32.5 -68q0 -42 -20 -64.5t-68 -29.5v-47h-85zM44 0l246 644h122l244 -644h-112l-64 166h-259l-64 -166h-113zM238 250h224l-112 295z" />
    <glyph glyph-name="uni1EA3" unicode="&#x1ea3;" horiz-adv-x="547" 
d="M234 521v82q55 3 73.5 13.5t18.5 36.5q0 42 -74 42q-35 0 -64 -12v59q36 13 93 13q61 0 93.5 -25t32.5 -68q0 -42 -20 -64.5t-68 -29.5v-47h-85zM211 -10q-72 0 -120 37.5t-48 107.5t47.5 110.5t142.5 40.5h152v21q0 52 -26 72t-103 20q-84 0 -157 -25v81q73 29 177 29
q213 0 213 -179v-305h-93l-7 48q-60 -58 -178 -58zM240 68q94 0 145 61v83h-150q-48 0 -69.5 -18t-21.5 -57q0 -69 96 -69z" />
    <glyph glyph-name="uni1EA4" unicode="&#x1ea4;" horiz-adv-x="700" 
d="M436 800l64 133h83l-70 -133h-77zM184 687l119 127h84l119 -127h-89l-72 82l-70 -82h-91zM44 0l246 644h122l244 -644h-112l-64 166h-259l-64 -166h-113zM238 250h224l-112 295z" />
    <glyph glyph-name="uni1EA5" unicode="&#x1ea5;" horiz-adv-x="547" 
d="M378 634l64 133h83l-70 -133h-77zM126 521l119 127h84l119 -127h-89l-72 82l-70 -82h-91zM211 -10q-72 0 -120 37.5t-48 107.5t47.5 110.5t142.5 40.5h152v21q0 52 -26 72t-103 20q-84 0 -157 -25v81q73 29 177 29q213 0 213 -179v-305h-93l-7 48q-60 -58 -178 -58z
M240 68q94 0 145 61v83h-150q-48 0 -69.5 -18t-21.5 -57q0 -69 96 -69z" />
    <glyph glyph-name="uni1EA6" unicode="&#x1ea6;" horiz-adv-x="700" 
d="M180 800l-71 133h84l64 -133h-77zM187 687l118 127h85l118 -127h-90l-71 82l-71 -82h-89zM44 0l246 644h122l244 -644h-112l-64 166h-259l-64 -166h-113zM238 250h224l-112 295z" />
    <glyph glyph-name="uni1EA7" unicode="&#x1ea7;" horiz-adv-x="547" 
d="M109 634l-71 133h84l64 -133h-77zM116 521l118 127h85l118 -127h-90l-71 82l-71 -82h-89zM211 -10q-72 0 -120 37.5t-48 107.5t47.5 110.5t142.5 40.5h152v21q0 52 -26 72t-103 20q-84 0 -157 -25v81q73 29 177 29q213 0 213 -179v-305h-93l-7 48q-60 -58 -178 -58z
M240 68q94 0 145 61v83h-150q-48 0 -69.5 -18t-21.5 -57q0 -69 96 -69z" />
    <glyph glyph-name="uni1EA8" unicode="&#x1ea8;" horiz-adv-x="700" 
d="M448 779v66q46 2 61.5 11t15.5 28q0 31 -47 31q-29 0 -56 -12v53q34 12 77 12q48 0 75.5 -21t27.5 -57q0 -66 -77 -77v-34h-77zM188 687l118 127h85l118 -127h-89l-71 82l-71 -82h-90zM44 0l246 644h122l244 -644h-112l-64 166h-259l-64 -166h-113zM238 250h224l-112 295
z" />
    <glyph glyph-name="uni1EA9" unicode="&#x1ea9;" horiz-adv-x="547" 
d="M379 612v66q46 2 61.5 11t15.5 28q0 31 -47 31q-29 0 -56 -12v53q34 12 77 12q48 0 75.5 -21t27.5 -57q0 -66 -77 -77v-34h-77zM119 520l118 127h85l118 -127h-89l-71 82l-71 -82h-90zM211 -10q-72 0 -120 37.5t-48 107.5t47.5 110.5t142.5 40.5h152v21q0 52 -26 72
t-103 20q-84 0 -157 -25v81q73 29 177 29q213 0 213 -179v-305h-93l-7 48q-60 -58 -178 -58zM240 68q94 0 145 61v83h-150q-48 0 -69.5 -18t-21.5 -57q0 -69 96 -69z" />
    <glyph glyph-name="uni1EAA" unicode="&#x1eaa;" horiz-adv-x="700" 
d="M432 822q-28 0 -77 19t-70 19q-52 0 -83 -35v71q29 29 82 29q29 0 75.5 -18.5t71.5 -18.5q51 0 77 35v-71q-23 -30 -76 -30zM189 687l118 127h85l118 -127h-89l-71 82l-71 -82h-90zM44 0l246 644h122l244 -644h-112l-64 166h-259l-64 -166h-113zM238 250h224l-112 295z
" />
    <glyph glyph-name="uni1EAB" unicode="&#x1eab;" horiz-adv-x="547" 
d="M367 656q-27 0 -76 19t-71 19q-52 0 -83 -35v71q29 29 82 29q29 0 75.5 -18.5t71.5 -18.5q51 0 77 35v-71q-23 -30 -76 -30zM124 521l118 127h85l118 -127h-89l-71 82l-71 -82h-90zM211 -10q-72 0 -120 37.5t-48 107.5t47.5 110.5t142.5 40.5h152v21q0 52 -26 72t-103 20
q-84 0 -157 -25v81q73 29 177 29q213 0 213 -179v-305h-93l-7 48q-60 -58 -178 -58zM240 68q94 0 145 61v83h-150q-48 0 -69.5 -18t-21.5 -57q0 -69 96 -69z" />
    <glyph glyph-name="uni1EAC" unicode="&#x1eac;" horiz-adv-x="700" 
d="M186 687l125 161h76l125 -161h-87l-76 101l-74 -101h-89zM44 0l246 644h122l244 -644h-112l-64 166h-259l-64 -166h-113zM238 250h224l-112 295zM303 -173v88h94v-88h-94z" />
    <glyph glyph-name="uni1EAD" unicode="&#x1ead;" horiz-adv-x="547" 
d="M120 521l125 161h76l125 -161h-87l-76 101l-74 -101h-89zM211 -10q-72 0 -120 37.5t-48 107.5t47.5 110.5t142.5 40.5h152v21q0 52 -26 72t-103 20q-84 0 -157 -25v81q73 29 177 29q213 0 213 -179v-305h-93l-7 48q-60 -58 -178 -58zM240 68q94 0 145 61v83h-150
q-48 0 -69.5 -18t-21.5 -57q0 -69 96 -69zM236 -173v88h94v-88h-94z" />
    <glyph glyph-name="uni1EAE" unicode="&#x1eae;" horiz-adv-x="700" 
d="M303 805l64 133h84l-71 -133h-77zM350 688q-70 0 -113 36t-43 112h66q0 -43 24 -66t66 -23t66 23t24 66h66q0 -76 -43 -112t-113 -36zM44 0l246 644h122l244 -644h-112l-64 166h-259l-64 -166h-113zM238 250h224l-112 295z" />
    <glyph glyph-name="uni1EAF" unicode="&#x1eaf;" horiz-adv-x="547" 
d="M247 639l64 133h84l-71 -133h-77zM294 522q-70 0 -113 36t-43 112h66q0 -43 24 -66t66 -23t66 23t24 66h66q0 -76 -43 -112t-113 -36zM211 -10q-72 0 -120 37.5t-48 107.5t47.5 110.5t142.5 40.5h152v21q0 52 -26 72t-103 20q-84 0 -157 -25v81q73 29 177 29
q213 0 213 -179v-305h-93l-7 48q-60 -58 -178 -58zM240 68q94 0 145 61v83h-150q-48 0 -69.5 -18t-21.5 -57q0 -69 96 -69z" />
    <glyph glyph-name="uni1EB0" unicode="&#x1eb0;" horiz-adv-x="700" 
d="M320 805l-71 133h84l64 -133h-77zM350 688q-70 0 -113 36t-43 112h66q0 -43 24 -66t66 -23t66 23t24 66h66q0 -76 -43 -112t-113 -36zM44 0l246 644h122l244 -644h-112l-64 166h-259l-64 -166h-113zM238 250h224l-112 295z" />
    <glyph glyph-name="uni1EB1" unicode="&#x1eb1;" horiz-adv-x="547" 
d="M248 639l-71 133h84l64 -133h-77zM278 522q-70 0 -113 36t-43 112h66q0 -43 24 -66t66 -23t66 23t24 66h66q0 -76 -43 -112t-113 -36zM211 -10q-72 0 -120 37.5t-48 107.5t47.5 110.5t142.5 40.5h152v21q0 52 -26 72t-103 20q-84 0 -157 -25v81q73 29 177 29
q213 0 213 -179v-305h-93l-7 48q-60 -58 -178 -58zM240 68q94 0 145 61v83h-150q-48 0 -69.5 -18t-21.5 -57q0 -69 96 -69z" />
    <glyph glyph-name="uni1EB2" unicode="&#x1eb2;" horiz-adv-x="700" 
d="M306 810v59q46 2 63.5 12t17.5 31q0 19 -12.5 26t-39.5 7q-28 0 -55 -12v51q34 12 81 12t73 -20.5t26 -56.5q0 -33 -18 -51t-60 -25v-33h-76zM350 688q-70 0 -113 36t-43 112h66q0 -43 24 -66t66 -23t66 23t24 66h66q0 -76 -43 -112t-113 -36zM44 0l246 644h122l244 -644
h-112l-64 166h-259l-64 -166h-113zM238 250h224l-112 295z" />
    <glyph glyph-name="uni1EB3" unicode="&#x1eb3;" horiz-adv-x="547" 
d="M234 644v59q46 2 63.5 12t17.5 31q0 19 -12.5 26t-39.5 7q-28 0 -55 -12v51q34 12 81 12t73 -20.5t26 -56.5q0 -33 -18 -51t-60 -25v-33h-76zM278 522q-70 0 -113 36t-43 112h66q0 -43 24 -66t66 -23t66 23t24 66h66q0 -76 -43 -112t-113 -36zM211 -10q-72 0 -120 37.5
t-48 107.5t47.5 110.5t142.5 40.5h152v21q0 52 -26 72t-103 20q-84 0 -157 -25v81q73 29 177 29q213 0 213 -179v-305h-93l-7 48q-60 -58 -178 -58zM240 68q94 0 145 61v83h-150q-48 0 -69.5 -18t-21.5 -57q0 -69 96 -69z" />
    <glyph glyph-name="uni1EB4" unicode="&#x1eb4;" horiz-adv-x="700" 
d="M428 857q-28 0 -77 18.5t-70 18.5q-52 0 -83 -34v71q29 29 82 29q29 0 75.5 -19t71.5 -19q51 0 77 36v-72q-22 -29 -76 -29zM350 688q-70 0 -113 36t-43 112h66q0 -43 24 -66t66 -23t66 23t24 66h66q0 -76 -43 -112t-113 -36zM44 0l246 644h122l244 -644h-112l-64 166
h-259l-64 -166h-113zM238 250h224l-112 295z" />
    <glyph glyph-name="uni1EB5" unicode="&#x1eb5;" horiz-adv-x="547" 
d="M357 691q-27 0 -76 18.5t-71 18.5q-52 0 -83 -34v71q29 29 82 29q29 0 75.5 -19t71.5 -19q52 0 77 36v-72q-22 -29 -76 -29zM279 522q-70 0 -113 36t-43 112h66q0 -43 24 -66t66 -23t66 23t24 66h66q0 -76 -43 -112t-113 -36zM211 -10q-72 0 -120 37.5t-48 107.5
t47.5 110.5t142.5 40.5h152v21q0 52 -26 72t-103 20q-84 0 -157 -25v81q73 29 177 29q213 0 213 -179v-305h-93l-7 48q-60 -58 -178 -58zM240 68q94 0 145 61v83h-150q-48 0 -69.5 -18t-21.5 -57q0 -69 96 -69z" />
    <glyph glyph-name="uni1EB6" unicode="&#x1eb6;" horiz-adv-x="700" 
d="M348 688q-66 0 -103.5 38t-37.5 103h74q0 -35 17.5 -55.5t49.5 -20.5q33 0 51.5 20.5t18.5 55.5h74q0 -65 -38.5 -103t-105.5 -38zM44 0l246 644h122l244 -644h-112l-64 166h-259l-64 -166h-113zM238 250h224l-112 295zM303 -173v88h94v-88h-94z" />
    <glyph glyph-name="uni1EB7" unicode="&#x1eb7;" horiz-adv-x="547" 
d="M289 522q-66 0 -103.5 38t-37.5 103h74q0 -35 17.5 -55.5t49.5 -20.5q33 0 51.5 20.5t18.5 55.5h74q0 -65 -38.5 -103t-105.5 -38zM211 -10q-72 0 -120 37.5t-48 107.5t47.5 110.5t142.5 40.5h152v21q0 52 -26 72t-103 20q-84 0 -157 -25v81q73 29 177 29q213 0 213 -179
v-305h-93l-7 48q-60 -58 -178 -58zM240 68q94 0 145 61v83h-150q-48 0 -69.5 -18t-21.5 -57q0 -69 96 -69zM243 -173v88h94v-88h-94z" />
    <glyph glyph-name="uni1EB8" unicode="&#x1eb8;" horiz-adv-x="550" 
d="M63 0v644h449v-85h-340v-195h303v-84h-303v-196h340v-84h-449zM233 -173v88h94v-88h-94z" />
    <glyph glyph-name="uni1EB9" unicode="&#x1eb9;" horiz-adv-x="537" 
d="M303 -10q-126 0 -193 62t-67 186q0 117 59 181.5t175 64.5q105 0 161 -55t56 -147v-88h-347q8 -68 49 -94.5t129 -26.5q77 0 140 25v-80q-63 -28 -162 -28zM147 265h251v33q0 104 -118 104q-74 0 -103.5 -32t-29.5 -105zM228 -173v88h94v-88h-94z" />
    <glyph glyph-name="uni1EBA" unicode="&#x1eba;" horiz-adv-x="550" 
d="M237 687v82q55 3 73.5 13.5t18.5 36.5q0 42 -74 42q-35 0 -64 -12v59q36 13 93 13q61 0 93.5 -25t32.5 -68q0 -42 -20 -64.5t-68 -29.5v-47h-85zM63 0v644h449v-85h-340v-195h303v-84h-303v-196h340v-84h-449z" />
    <glyph glyph-name="uni1EBB" unicode="&#x1ebb;" horiz-adv-x="537" 
d="M233 521v82q55 3 73.5 13.5t18.5 36.5q0 42 -74 42q-35 0 -64 -12v59q36 13 93 13q61 0 93.5 -25t32.5 -68q0 -42 -20 -64.5t-68 -29.5v-47h-85zM303 -10q-126 0 -193 62t-67 186q0 117 59 181.5t175 64.5q105 0 161 -55t56 -147v-88h-347q8 -68 49 -94.5t129 -26.5
q77 0 140 25v-80q-63 -28 -162 -28zM147 265h251v33q0 104 -118 104q-74 0 -103.5 -32t-29.5 -105z" />
    <glyph glyph-name="uni1EBC" unicode="&#x1ebc;" horiz-adv-x="550" 
d="M362 703q-29 0 -79.5 19.5t-72.5 19.5q-55 0 -87 -36v80q28 30 85 30q30 0 78.5 -19.5t74.5 -19.5q52 0 80 37v-80q-22 -31 -79 -31zM63 0v644h449v-85h-340v-195h303v-84h-303v-196h340v-84h-449z" />
    <glyph glyph-name="uni1EBD" unicode="&#x1ebd;" horiz-adv-x="537" 
d="M355 537q-29 0 -79.5 19.5t-72.5 19.5q-55 0 -87 -36v80q28 30 85 30q30 0 78.5 -19.5t74.5 -19.5q52 0 80 37v-80q-22 -31 -79 -31zM303 -10q-126 0 -193 62t-67 186q0 117 59 181.5t175 64.5q105 0 161 -55t56 -147v-88h-347q8 -68 49 -94.5t129 -26.5q77 0 140 25v-80
q-63 -28 -162 -28zM147 265h251v33q0 104 -118 104q-74 0 -103.5 -32t-29.5 -105z" />
    <glyph glyph-name="uni1EBE" unicode="&#x1ebe;" horiz-adv-x="550" 
d="M373 799l64 133h83l-70 -133h-77zM121 686l119 127h84l119 -127h-89l-72 82l-70 -82h-91zM63 0v644h449v-85h-340v-195h303v-84h-303v-196h340v-84h-449z" />
    <glyph glyph-name="uni1EBF" unicode="&#x1ebf;" horiz-adv-x="537" 
d="M368 633l64 133h83l-70 -133h-77zM116 520l119 127h84l119 -127h-89l-72 82l-70 -82h-91zM303 -10q-126 0 -193 62t-67 186q0 117 59 181.5t175 64.5q105 0 161 -55t56 -147v-88h-347q8 -68 49 -94.5t129 -26.5q77 0 140 25v-80q-63 -28 -162 -28zM147 265h251v33
q0 104 -118 104q-74 0 -103.5 -32t-29.5 -105z" />
    <glyph glyph-name="uni1EC0" unicode="&#x1ec0;" horiz-adv-x="550" 
d="M124 799l-71 133h84l64 -133h-77zM131 686l118 127h85l118 -127h-90l-71 82l-71 -82h-89zM63 0v644h449v-85h-340v-195h303v-84h-303v-196h340v-84h-449z" />
    <glyph glyph-name="uni1EC1" unicode="&#x1ec1;" horiz-adv-x="537" 
d="M116 646l-71 133h84l64 -133h-77zM123 533l118 127h85l118 -127h-90l-71 82l-71 -82h-89zM303 -10q-126 0 -193 62t-67 186q0 117 59 181.5t175 64.5q105 0 161 -55t56 -147v-88h-347q8 -68 49 -94.5t129 -26.5q77 0 140 25v-80q-63 -28 -162 -28zM147 265h251v33
q0 104 -118 104q-74 0 -103.5 -32t-29.5 -105z" />
    <glyph glyph-name="uni1EC2" unicode="&#x1ec2;" horiz-adv-x="550" 
d="M384 778v66q46 2 61.5 11t15.5 28q0 31 -47 31q-29 0 -56 -12v53q34 12 77 12q48 0 75.5 -21t27.5 -57q0 -66 -77 -77v-34h-77zM124 686l118 127h85l118 -127h-89l-71 82l-71 -82h-90zM63 0v644h449v-85h-340v-195h303v-84h-303v-196h340v-84h-449z" />
    <glyph glyph-name="uni1EC3" unicode="&#x1ec3;" horiz-adv-x="537" 
d="M372 612v66q46 2 61.5 11t15.5 28q0 31 -47 31q-29 0 -56 -12v53q34 12 77 12q48 0 75.5 -21t27.5 -57q0 -66 -77 -77v-34h-77zM112 520l118 127h85l118 -127h-89l-71 82l-71 -82h-90zM303 -10q-126 0 -193 62t-67 186q0 117 59 181.5t175 64.5q105 0 161 -55t56 -147
v-88h-347q8 -68 49 -94.5t129 -26.5q77 0 140 25v-80q-63 -28 -162 -28zM147 265h251v33q0 104 -118 104q-74 0 -103.5 -32t-29.5 -105z" />
    <glyph glyph-name="uni1EC4" unicode="&#x1ec4;" horiz-adv-x="550" 
d="M368 822q-28 0 -77 19t-70 19q-52 0 -83 -35v71q29 29 82 29q29 0 75.5 -18.5t71.5 -18.5q51 0 77 35v-71q-23 -30 -76 -30zM125 687l118 127h85l118 -127h-89l-71 82l-71 -82h-90zM63 0v644h449v-85h-340v-195h303v-84h-303v-196h340v-84h-449z" />
    <glyph glyph-name="uni1EC5" unicode="&#x1ec5;" horiz-adv-x="537" 
d="M359 656q-27 0 -76 19t-71 19q-52 0 -83 -35v71q29 29 82 29q29 0 75.5 -18.5t71.5 -18.5q51 0 77 35v-71q-23 -30 -76 -30zM116 521l118 127h85l118 -127h-89l-71 82l-71 -82h-90zM303 -10q-126 0 -193 62t-67 186q0 117 59 181.5t175 64.5q105 0 161 -55t56 -147v-88
h-347q8 -68 49 -94.5t129 -26.5q77 0 140 25v-80q-63 -28 -162 -28zM147 265h251v33q0 104 -118 104q-74 0 -103.5 -32t-29.5 -105z" />
    <glyph glyph-name="uni1EC6" unicode="&#x1ec6;" horiz-adv-x="550" 
d="M113 687l125 161h76l125 -161h-87l-76 101l-74 -101h-89zM63 0v644h449v-85h-340v-195h303v-84h-303v-196h340v-84h-449zM229 -173v88h94v-88h-94z" />
    <glyph glyph-name="uni1EC7" unicode="&#x1ec7;" horiz-adv-x="537" 
d="M111 521l125 161h76l125 -161h-87l-76 101l-74 -101h-89zM303 -10q-126 0 -193 62t-67 186q0 117 59 181.5t175 64.5q105 0 161 -55t56 -147v-88h-347q8 -68 49 -94.5t129 -26.5q77 0 140 25v-80q-63 -28 -162 -28zM147 265h251v33q0 104 -118 104q-74 0 -103.5 -32
t-29.5 -105zM228 -173v88h94v-88h-94z" />
    <glyph glyph-name="uni1EC8" unicode="&#x1ec8;" horiz-adv-x="235" 
d="M74 687v82q55 3 73.5 13.5t18.5 36.5q0 42 -74 42q-35 0 -64 -12v59q36 13 93 13q61 0 93.5 -25t32.5 -68q0 -42 -20 -64.5t-68 -29.5v-47h-85zM63 0v644h109v-644h-109z" />
    <glyph glyph-name="uni1EC9" unicode="&#x1ec9;" horiz-adv-x="308" 
d="M118 521v82q55 3 73.5 13.5t18.5 36.5q0 42 -74 42q-35 0 -64 -12v59q36 13 93 13q61 0 93.5 -25t32.5 -68q0 -42 -20 -64.5t-68 -29.5v-47h-85zM135 0v391h-72l10 83h171v-474h-109z" />
    <glyph glyph-name="uni1ECA" unicode="&#x1eca;" horiz-adv-x="235" 
d="M63 0v644h109v-644h-109zM70 -173v88h94v-88h-94z" />
    <glyph glyph-name="uni1ECB" unicode="&#x1ecb;" horiz-adv-x="308" 
d="M126 573v90h119v-90h-119zM135 0v391h-72l10 83h171v-474h-109zM143 -173v88h94v-88h-94z" />
    <glyph glyph-name="uni1ECC" unicode="&#x1ecc;" horiz-adv-x="697" 
d="M348 -10q-154 0 -229.5 80.5t-75.5 249.5q0 174 75 254t230 80t230 -80t75 -254q0 -169 -75.5 -249.5t-229.5 -80.5zM348 82q102 0 149 56t47 182q0 131 -46.5 186t-149.5 55q-102 0 -148.5 -55t-46.5 -186q0 -125 47 -181.5t148 -56.5zM301 -173v88h94v-88h-94z" />
    <glyph glyph-name="uni1ECD" unicode="&#x1ecd;" horiz-adv-x="581" 
d="M290 -10q-247 0 -247 247t247 247q248 0 248 -247t-248 -247zM290 82q75 0 106.5 36t31.5 119q0 82 -31.5 118t-106.5 36q-74 0 -105.5 -36t-31.5 -118q0 -83 31.5 -119t105.5 -36zM243 -173v88h94v-88h-94z" />
    <glyph glyph-name="uni1ECE" unicode="&#x1ece;" horiz-adv-x="697" 
d="M307 687v82q55 3 73.5 13.5t18.5 36.5q0 42 -74 42q-35 0 -64 -12v59q36 13 93 13q61 0 93.5 -25t32.5 -68q0 -42 -20 -64.5t-68 -29.5v-47h-85zM348 -10q-154 0 -229.5 80.5t-75.5 249.5q0 174 75 254t230 80t230 -80t75 -254q0 -169 -75.5 -249.5t-229.5 -80.5zM348 82
q102 0 149 56t47 182q0 131 -46.5 186t-149.5 55q-102 0 -148.5 -55t-46.5 -186q0 -125 47 -181.5t148 -56.5z" />
    <glyph glyph-name="uni1ECF" unicode="&#x1ecf;" horiz-adv-x="581" 
d="M249 521v82q55 3 73.5 13.5t18.5 36.5q0 42 -74 42q-35 0 -64 -12v59q36 13 93 13q61 0 93.5 -25t32.5 -68q0 -42 -20 -64.5t-68 -29.5v-47h-85zM290 -10q-247 0 -247 247t247 247q248 0 248 -247t-248 -247zM290 82q75 0 106.5 36t31.5 119q0 82 -31.5 118t-106.5 36
q-74 0 -105.5 -36t-31.5 -118q0 -83 31.5 -119t105.5 -36z" />
    <glyph glyph-name="uni1ED0" unicode="&#x1ed0;" horiz-adv-x="697" 
d="M442 800l64 133h83l-70 -133h-77zM190 687l119 127h84l119 -127h-89l-72 82l-70 -82h-91zM348 -10q-154 0 -229.5 80.5t-75.5 249.5q0 174 75 254t230 80t230 -80t75 -254q0 -169 -75.5 -249.5t-229.5 -80.5zM348 82q102 0 149 56t47 182q0 131 -46.5 186t-149.5 55
q-102 0 -148.5 -55t-46.5 -186q0 -125 47 -181.5t148 -56.5z" />
    <glyph glyph-name="uni1ED1" unicode="&#x1ed1;" horiz-adv-x="581" 
d="M382 634l64 133h83l-70 -133h-77zM130 521l119 127h84l119 -127h-89l-72 82l-70 -82h-91zM290 -10q-247 0 -247 247t247 247q248 0 248 -247t-248 -247zM290 82q75 0 106.5 36t31.5 119q0 82 -31.5 118t-106.5 36q-74 0 -105.5 -36t-31.5 -118q0 -83 31.5 -119t105.5 -36
z" />
    <glyph glyph-name="uni1ED2" unicode="&#x1ed2;" horiz-adv-x="697" 
d="M180 800l-71 133h84l64 -133h-77zM187 687l118 127h85l118 -127h-90l-71 82l-71 -82h-89zM348 -10q-154 0 -229.5 80.5t-75.5 249.5q0 174 75 254t230 80t230 -80t75 -254q0 -169 -75.5 -249.5t-229.5 -80.5zM348 82q102 0 149 56t47 182q0 131 -46.5 186t-149.5 55
q-102 0 -148.5 -55t-46.5 -186q0 -125 47 -181.5t148 -56.5z" />
    <glyph glyph-name="uni1ED3" unicode="&#x1ed3;" horiz-adv-x="581" 
d="M118 634l-71 133h84l64 -133h-77zM125 521l118 127h85l118 -127h-90l-71 82l-71 -82h-89zM290 -10q-247 0 -247 247t247 247q248 0 248 -247t-248 -247zM290 82q75 0 106.5 36t31.5 119q0 82 -31.5 118t-106.5 36q-74 0 -105.5 -36t-31.5 -118q0 -83 31.5 -119t105.5 -36
z" />
    <glyph glyph-name="uni1ED4" unicode="&#x1ed4;" horiz-adv-x="697" 
d="M445 779v66q46 2 61.5 11t15.5 28q0 31 -47 31q-29 0 -56 -12v53q34 12 77 12q48 0 75.5 -21t27.5 -57q0 -66 -77 -77v-34h-77zM185 687l118 127h85l118 -127h-89l-71 82l-71 -82h-90zM348 -10q-154 0 -229.5 80.5t-75.5 249.5q0 174 75 254t230 80t230 -80t75 -254
q0 -169 -75.5 -249.5t-229.5 -80.5zM348 82q102 0 149 56t47 182q0 131 -46.5 186t-149.5 55q-102 0 -148.5 -55t-46.5 -186q0 -125 47 -181.5t148 -56.5z" />
    <glyph glyph-name="uni1ED5" unicode="&#x1ed5;" horiz-adv-x="581" 
d="M398 613v66q46 2 61.5 11t15.5 28q0 31 -47 31q-29 0 -56 -12v53q34 12 77 12q48 0 75.5 -21t27.5 -57q0 -66 -77 -77v-34h-77zM138 521l118 127h85l118 -127h-89l-71 82l-71 -82h-90zM290 -10q-247 0 -247 247t247 247q248 0 248 -247t-248 -247zM290 82q75 0 106.5 36
t31.5 119q0 82 -31.5 118t-106.5 36q-74 0 -105.5 -36t-31.5 -118q0 -83 31.5 -119t105.5 -36z" />
    <glyph glyph-name="uni1ED6" unicode="&#x1ed6;" horiz-adv-x="697" 
d="M426 857q-28 0 -77 18.5t-70 18.5q-52 0 -83 -34v71q29 29 82 29q29 0 75.5 -19t71.5 -19q51 0 77 36v-72q-22 -29 -76 -29zM348 688q-70 0 -113 36t-43 112h66q0 -43 24 -66t66 -23t66 23t24 66h66q0 -76 -43 -112t-113 -36zM348 -10q-154 0 -229.5 80.5t-75.5 249.5
q0 174 75 254t230 80t230 -80t75 -254q0 -169 -75.5 -249.5t-229.5 -80.5zM348 82q102 0 149 56t47 182q0 131 -46.5 186t-149.5 55q-102 0 -148.5 -55t-46.5 -186q0 -125 47 -181.5t148 -56.5z" />
    <glyph glyph-name="uni1ED7" unicode="&#x1ed7;" horiz-adv-x="581" 
d="M368 691q-28 0 -77 18.5t-70 18.5q-52 0 -83 -34v71q29 29 82 29q29 0 75.5 -19t71.5 -19q51 0 77 36v-72q-22 -29 -76 -29zM290 522q-70 0 -113 36t-43 112h66q0 -43 24 -66t66 -23t66 23t24 66h66q0 -76 -43 -112t-113 -36zM290 -10q-247 0 -247 247t247 247
q248 0 248 -247t-248 -247zM290 82q75 0 106.5 36t31.5 119q0 82 -31.5 118t-106.5 36q-74 0 -105.5 -36t-31.5 -118q0 -83 31.5 -119t105.5 -36z" />
    <glyph glyph-name="uni1ED8" unicode="&#x1ed8;" horiz-adv-x="697" 
d="M185 692l125 161h76l125 -161h-87l-76 101l-74 -101h-89zM348 -10q-154 0 -229.5 80.5t-75.5 249.5q0 174 75 254t230 80t230 -80t75 -254q0 -169 -75.5 -249.5t-229.5 -80.5zM348 82q102 0 149 56t47 182q0 131 -46.5 186t-149.5 55q-102 0 -148.5 -55t-46.5 -186
q0 -125 47 -181.5t148 -56.5zM301 -173v88h94v-88h-94z" />
    <glyph glyph-name="uni1ED9" unicode="&#x1ed9;" horiz-adv-x="581" 
d="M127 521l125 161h76l125 -161h-87l-76 101l-74 -101h-89zM290 -10q-247 0 -247 247t247 247q248 0 248 -247t-248 -247zM290 82q75 0 106.5 36t31.5 119q0 82 -31.5 118t-106.5 36q-74 0 -105.5 -36t-31.5 -118q0 -83 31.5 -119t105.5 -36zM243 -173v88h94v-88h-94z" />
    <glyph glyph-name="uni1EDA" unicode="&#x1eda;" horiz-adv-x="770" 
d="M315 688l75 177h96l-84 -177h-87zM348 -10q-154 0 -229.5 80.5t-75.5 249.5q0 174 75 254t230 80q151 0 225 -77q55 1 75.5 24.5t20.5 86.5h84q0 -90 -32 -132.5t-99 -52.5q31 -71 31 -183q0 -169 -75.5 -249.5t-229.5 -80.5zM348 82q102 0 149 56t47 182
q0 131 -46.5 186t-149.5 55q-102 0 -148.5 -55t-46.5 -186q0 -125 47 -181.5t148 -56.5z" />
    <glyph glyph-name="uni1EDB" unicode="&#x1edb;" horiz-adv-x="676" 
d="M253 522l75 177h96l-84 -177h-87zM290 -10q-247 0 -247 247t247 247q125 0 188 -65q56 1 76.5 26.5t20.5 90.5h84q0 -92 -33.5 -136t-104.5 -54q17 -48 17 -109q0 -247 -248 -247zM290 82q75 0 106.5 36t31.5 119q0 82 -31.5 118t-106.5 36q-74 0 -105.5 -36t-31.5 -118
q0 -83 31.5 -119t105.5 -36z" />
    <glyph glyph-name="uni1EDC" unicode="&#x1edc;" horiz-adv-x="770" 
d="M325 688l-83 177h95l76 -177h-88zM348 -10q-154 0 -229.5 80.5t-75.5 249.5q0 174 75 254t230 80q151 0 225 -77q55 1 75.5 24.5t20.5 86.5h84q0 -90 -32 -132.5t-99 -52.5q31 -71 31 -183q0 -169 -75.5 -249.5t-229.5 -80.5zM348 82q102 0 149 56t47 182
q0 131 -46.5 186t-149.5 55q-102 0 -148.5 -55t-46.5 -186q0 -125 47 -181.5t148 -56.5z" />
    <glyph glyph-name="uni1EDD" unicode="&#x1edd;" horiz-adv-x="676" 
d="M261 522l-83 177h95l76 -177h-88zM290 -10q-247 0 -247 247t247 247q125 0 188 -65q56 1 76.5 26.5t20.5 90.5h84q0 -92 -33.5 -136t-104.5 -54q17 -48 17 -109q0 -247 -248 -247zM290 82q75 0 106.5 36t31.5 119q0 82 -31.5 118t-106.5 36q-74 0 -105.5 -36t-31.5 -118
q0 -83 31.5 -119t105.5 -36z" />
    <glyph glyph-name="uni1EDE" unicode="&#x1ede;" horiz-adv-x="770" 
d="M312 687v82q55 3 73.5 13.5t18.5 36.5q0 42 -74 42q-35 0 -64 -12v59q36 13 93 13q61 0 93.5 -25t32.5 -68q0 -42 -20 -64.5t-68 -29.5v-47h-85zM348 -10q-154 0 -229.5 80.5t-75.5 249.5q0 174 75 254t230 80q151 0 225 -77q55 1 75.5 24.5t20.5 86.5h84
q0 -90 -32 -132.5t-99 -52.5q31 -71 31 -183q0 -169 -75.5 -249.5t-229.5 -80.5zM348 82q102 0 149 56t47 182q0 131 -46.5 186t-149.5 55q-102 0 -148.5 -55t-46.5 -186q0 -125 47 -181.5t148 -56.5z" />
    <glyph glyph-name="uni1EDF" unicode="&#x1edf;" horiz-adv-x="676" 
d="M246 521v82q55 3 73.5 13.5t18.5 36.5q0 42 -74 42q-35 0 -64 -12v59q36 13 93 13q61 0 93.5 -25t32.5 -68q0 -42 -20 -64.5t-68 -29.5v-47h-85zM290 -10q-247 0 -247 247t247 247q125 0 188 -65q56 1 76.5 26.5t20.5 90.5h84q0 -92 -33.5 -136t-104.5 -54
q17 -48 17 -109q0 -247 -248 -247zM290 82q75 0 106.5 36t31.5 119q0 82 -31.5 118t-106.5 36q-74 0 -105.5 -36t-31.5 -118q0 -83 31.5 -119t105.5 -36z" />
    <glyph glyph-name="uni1EE0" unicode="&#x1ee0;" horiz-adv-x="770" 
d="M442 701q-29 0 -79.5 19.5t-72.5 19.5q-55 0 -87 -36v80q28 30 85 30q30 0 78.5 -19.5t74.5 -19.5q52 0 80 37v-80q-22 -31 -79 -31zM348 -10q-154 0 -229.5 80.5t-75.5 249.5q0 174 75 254t230 80q151 0 225 -77q55 1 75.5 24.5t20.5 86.5h84q0 -90 -32 -132.5
t-99 -52.5q31 -71 31 -183q0 -169 -75.5 -249.5t-229.5 -80.5zM348 82q102 0 149 56t47 182q0 131 -46.5 186t-149.5 55q-102 0 -148.5 -55t-46.5 -186q0 -125 47 -181.5t148 -56.5z" />
    <glyph glyph-name="uni1EE1" unicode="&#x1ee1;" horiz-adv-x="676" 
d="M376 535q-29 0 -79.5 19.5t-72.5 19.5q-55 0 -87 -36v80q28 30 85 30q30 0 78.5 -19.5t74.5 -19.5q52 0 80 37v-80q-22 -31 -79 -31zM290 -10q-247 0 -247 247t247 247q125 0 188 -65q56 1 76.5 26.5t20.5 90.5h84q0 -92 -33.5 -136t-104.5 -54q17 -48 17 -109
q0 -247 -248 -247zM290 82q75 0 106.5 36t31.5 119q0 82 -31.5 118t-106.5 36q-74 0 -105.5 -36t-31.5 -118q0 -83 31.5 -119t105.5 -36z" />
    <glyph glyph-name="uni1EE2" unicode="&#x1ee2;" horiz-adv-x="770" 
d="M348 -10q-154 0 -229.5 80.5t-75.5 249.5q0 174 75 254t230 80q151 0 225 -77q55 1 75.5 24.5t20.5 86.5h84q0 -90 -32 -132.5t-99 -52.5q31 -71 31 -183q0 -169 -75.5 -249.5t-229.5 -80.5zM348 82q102 0 149 56t47 182q0 131 -46.5 186t-149.5 55q-102 0 -148.5 -55
t-46.5 -186q0 -125 47 -181.5t148 -56.5zM305 -173v88h94v-88h-94z" />
    <glyph glyph-name="uni1EE3" unicode="&#x1ee3;" horiz-adv-x="676" 
d="M290 -10q-247 0 -247 247t247 247q125 0 188 -65q56 1 76.5 26.5t20.5 90.5h84q0 -92 -33.5 -136t-104.5 -54q17 -48 17 -109q0 -247 -248 -247zM290 82q75 0 106.5 36t31.5 119q0 82 -31.5 118t-106.5 36q-74 0 -105.5 -36t-31.5 -118q0 -83 31.5 -119t105.5 -36z
M248 -173v88h94v-88h-94z" />
    <glyph glyph-name="uni1EE4" unicode="&#x1ee4;" horiz-adv-x="674" 
d="M338 -10q-134 0 -207 64t-73 185v405h109v-401q0 -80 44 -120.5t127 -40.5q82 0 126 40.5t44 120.5v401h108v-405q0 -121 -72.5 -185t-205.5 -64zM290 -173v88h94v-88h-94z" />
    <glyph glyph-name="uni1EE5" unicode="&#x1ee5;" horiz-adv-x="578" 
d="M234 -10q-85 0 -130.5 47.5t-45.5 137.5v299h109v-299q0 -53 26 -78t80 -25q78 0 133 55v347h108v-474h-99l-5 49q-75 -59 -176 -59zM233 -173v88h94v-88h-94z" />
    <glyph glyph-name="uni1EE6" unicode="&#x1ee6;" horiz-adv-x="674" 
d="M292 687v82q55 3 73.5 13.5t18.5 36.5q0 42 -74 42q-35 0 -64 -12v59q36 13 93 13q61 0 93.5 -25t32.5 -68q0 -42 -20 -64.5t-68 -29.5v-47h-85zM338 -10q-134 0 -207 64t-73 185v405h109v-401q0 -80 44 -120.5t127 -40.5q82 0 126 40.5t44 120.5v401h108v-405
q0 -121 -72.5 -185t-205.5 -64z" />
    <glyph glyph-name="uni1EE7" unicode="&#x1ee7;" horiz-adv-x="578" 
d="M242 521v82q55 3 73.5 13.5t18.5 36.5q0 42 -74 42q-35 0 -64 -12v59q36 13 93 13q61 0 93.5 -25t32.5 -68q0 -42 -20 -64.5t-68 -29.5v-47h-85zM234 -10q-85 0 -130.5 47.5t-45.5 137.5v299h109v-299q0 -53 26 -78t80 -25q78 0 133 55v347h108v-474h-99l-5 49
q-75 -59 -176 -59z" />
    <glyph glyph-name="uni1EE8" unicode="&#x1ee8;" horiz-adv-x="821" 
d="M301 688l75 177h96l-84 -177h-87zM338 -10q-134 0 -207 64t-73 185v405h109v-401q0 -80 44 -120.5t127 -40.5q82 0 126 40.5t44 120.5v401h108v-70q55 2 76 26t21 88h84q0 -105 -42.5 -147t-138.5 -44v-258q0 -121 -72.5 -185t-205.5 -64z" />
    <glyph glyph-name="uni1EE9" unicode="&#x1ee9;" horiz-adv-x="702" 
d="M247 522l75 177h96l-84 -177h-87zM234 -10q-85 0 -130.5 47.5t-45.5 137.5v299h109v-299q0 -53 26 -78t80 -25q78 0 133 55v347h108v-55q47 4 64.5 30t17.5 87h84q0 -98 -40.5 -143.5t-125.5 -48.5v-344h-99l-5 49q-75 -59 -176 -59z" />
    <glyph glyph-name="uni1EEA" unicode="&#x1eea;" horiz-adv-x="821" 
d="M303 688l-83 177h95l76 -177h-88zM338 -10q-134 0 -207 64t-73 185v405h109v-401q0 -80 44 -120.5t127 -40.5q82 0 126 40.5t44 120.5v401h108v-70q55 2 76 26t21 88h84q0 -105 -42.5 -147t-138.5 -44v-258q0 -121 -72.5 -185t-205.5 -64z" />
    <glyph glyph-name="uni1EEB" unicode="&#x1eeb;" horiz-adv-x="702" 
d="M254 522l-83 177h95l76 -177h-88zM234 -10q-85 0 -130.5 47.5t-45.5 137.5v299h109v-299q0 -53 26 -78t80 -25q78 0 133 55v347h108v-55q47 4 64.5 30t17.5 87h84q0 -98 -40.5 -143.5t-125.5 -48.5v-344h-99l-5 49q-75 -59 -176 -59z" />
    <glyph glyph-name="uni1EEC" unicode="&#x1eec;" horiz-adv-x="821" 
d="M300 687v82q55 3 73.5 13.5t18.5 36.5q0 42 -74 42q-35 0 -64 -12v59q36 13 93 13q61 0 93.5 -25t32.5 -68q0 -42 -20 -64.5t-68 -29.5v-47h-85zM338 -10q-134 0 -207 64t-73 185v405h109v-401q0 -80 44 -120.5t127 -40.5q82 0 126 40.5t44 120.5v401h108v-70q55 2 76 26
t21 88h84q0 -105 -42.5 -147t-138.5 -44v-258q0 -121 -72.5 -185t-205.5 -64z" />
    <glyph glyph-name="uni1EED" unicode="&#x1eed;" horiz-adv-x="702" 
d="M248 521v82q55 3 73.5 13.5t18.5 36.5q0 42 -74 42q-35 0 -64 -12v59q36 13 93 13q61 0 93.5 -25t32.5 -68q0 -42 -20 -64.5t-68 -29.5v-47h-85zM234 -10q-85 0 -130.5 47.5t-45.5 137.5v299h109v-299q0 -53 26 -78t80 -25q78 0 133 55v347h108v-55q47 4 64.5 30t17.5 87
h84q0 -98 -40.5 -143.5t-125.5 -48.5v-344h-99l-5 49q-75 -59 -176 -59z" />
    <glyph glyph-name="uni1EEE" unicode="&#x1eee;" horiz-adv-x="821" 
d="M417 701q-29 0 -79.5 19.5t-72.5 19.5q-55 0 -87 -36v80q28 30 85 30q30 0 78.5 -19.5t74.5 -19.5q52 0 80 37v-80q-22 -31 -79 -31zM338 -10q-134 0 -207 64t-73 185v405h109v-401q0 -80 44 -120.5t127 -40.5q82 0 126 40.5t44 120.5v401h108v-70q55 2 76 26t21 88h84
q0 -105 -42.5 -147t-138.5 -44v-258q0 -121 -72.5 -185t-205.5 -64z" />
    <glyph glyph-name="uni1EEF" unicode="&#x1eef;" horiz-adv-x="702" 
d="M374 535q-29 0 -79.5 19.5t-72.5 19.5q-55 0 -87 -36v80q28 30 85 30q30 0 78.5 -19.5t74.5 -19.5q52 0 80 37v-80q-22 -31 -79 -31zM234 -10q-85 0 -130.5 47.5t-45.5 137.5v299h109v-299q0 -53 26 -78t80 -25q78 0 133 55v347h108v-55q47 4 64.5 30t17.5 87h84
q0 -98 -40.5 -143.5t-125.5 -48.5v-344h-99l-5 49q-75 -59 -176 -59z" />
    <glyph glyph-name="uni1EF0" unicode="&#x1ef0;" horiz-adv-x="821" 
d="M338 -10q-134 0 -207 64t-73 185v405h109v-401q0 -80 44 -120.5t127 -40.5q82 0 126 40.5t44 120.5v401h108v-70q55 2 76 26t21 88h84q0 -105 -42.5 -147t-138.5 -44v-258q0 -121 -72.5 -185t-205.5 -64zM288 -173v88h94v-88h-94z" />
    <glyph glyph-name="uni1EF1" unicode="&#x1ef1;" horiz-adv-x="702" 
d="M234 -10q-85 0 -130.5 47.5t-45.5 137.5v299h109v-299q0 -53 26 -78t80 -25q78 0 133 55v347h108v-55q47 4 64.5 30t17.5 87h84q0 -98 -40.5 -143.5t-125.5 -48.5v-344h-99l-5 49q-75 -59 -176 -59zM238 -173v88h94v-88h-94z" />
    <glyph glyph-name="Ygrave" unicode="&#x1ef2;" horiz-adv-x="656" 
d="M295 688l-83 177h95l76 -177h-88zM274 0v239l-231 405h113l172 -313l172 313h113l-231 -405v-239h-108z" />
    <glyph glyph-name="ygrave" unicode="&#x1ef3;" horiz-adv-x="598" 
d="M269 522l-83 177h95l76 -177h-88zM170 -176q-54 0 -92 14v81q28 -10 61 -10q43 0 65 20.5t50 76.5l-211 468h113l152 -352l154 352h112l-193 -447q-43 -102 -89.5 -152.5t-121.5 -50.5z" />
    <glyph glyph-name="uni1EF4" unicode="&#x1ef4;" horiz-adv-x="656" 
d="M274 0v239l-231 405h113l172 -313l172 313h113l-231 -405v-239h-108zM281 -161v88h94v-88h-94z" />
    <glyph glyph-name="uni1EF5" unicode="&#x1ef5;" horiz-adv-x="598" 
d="M170 -176q-54 0 -92 14v81q28 -10 61 -10q43 0 65 20.5t50 76.5l-211 468h113l152 -352l154 352h112l-193 -447q-43 -102 -89.5 -152.5t-121.5 -50.5zM404 -161v88h94v-88h-94z" />
    <glyph glyph-name="uni1EF6" unicode="&#x1ef6;" horiz-adv-x="656" 
d="M278 687v82q55 3 73.5 13.5t18.5 36.5q0 42 -74 42q-35 0 -64 -12v59q36 13 93 13q61 0 93.5 -25t32.5 -68q0 -42 -20 -64.5t-68 -29.5v-47h-85zM274 0v239l-231 405h113l172 -313l172 313h113l-231 -405v-239h-108z" />
    <glyph glyph-name="uni1EF7" unicode="&#x1ef7;" horiz-adv-x="598" 
d="M267 521v82q55 3 73.5 13.5t18.5 36.5q0 42 -74 42q-35 0 -64 -12v59q36 13 93 13q61 0 93.5 -25t32.5 -68q0 -42 -20 -64.5t-68 -29.5v-47h-85zM170 -176q-54 0 -92 14v81q28 -10 61 -10q43 0 65 20.5t50 76.5l-211 468h113l152 -352l154 352h112l-193 -447
q-43 -102 -89.5 -152.5t-121.5 -50.5z" />
    <glyph glyph-name="uni1EF8" unicode="&#x1ef8;" horiz-adv-x="656" 
d="M408 703q-29 0 -79.5 19.5t-72.5 19.5q-55 0 -87 -36v80q28 30 85 30q30 0 78.5 -19.5t74.5 -19.5q52 0 80 37v-80q-22 -31 -79 -31zM274 0v239l-231 405h113l172 -313l172 313h113l-231 -405v-239h-108z" />
    <glyph glyph-name="uni1EF9" unicode="&#x1ef9;" horiz-adv-x="598" 
d="M387 537q-29 0 -79.5 19.5t-72.5 19.5q-55 0 -87 -36v80q28 30 85 30q30 0 78.5 -19.5t74.5 -19.5q52 0 80 37v-80q-22 -31 -79 -31zM170 -176q-54 0 -92 14v81q28 -10 61 -10q43 0 65 20.5t50 76.5l-211 468h113l152 -352l154 352h112l-193 -447q-43 -102 -89.5 -152.5
t-121.5 -50.5z" />
    <glyph glyph-name="uni2007" unicode="&#x2007;" 
 />
    <glyph glyph-name="uni2010" unicode="&#x2010;" horiz-adv-x="503" 
d="M43 227v85h416v-85h-416z" />
    <glyph glyph-name="figuredash" unicode="&#x2012;" horiz-adv-x="603" 
d="M43 227v85h516v-85h-516z" />
    <glyph glyph-name="endash" unicode="&#x2013;" horiz-adv-x="575" 
d="M43 227v85h489v-85h-489z" />
    <glyph glyph-name="emdash" unicode="&#x2014;" horiz-adv-x="858" 
d="M43 227v85h771v-85h-771z" />
    <glyph glyph-name="uni2015" unicode="&#x2015;" horiz-adv-x="903" 
d="M43 227v85h817v-85h-817z" />
    <glyph glyph-name="quoteleft" unicode="&#x2018;" horiz-adv-x="235" 
d="M43 459l66 195h82l-52 -195h-96z" />
    <glyph glyph-name="quoteright" unicode="&#x2019;" horiz-adv-x="235" 
d="M43 459l53 195h95l-66 -195h-82z" />
    <glyph glyph-name="quotesinglbase" unicode="&#x201a;" horiz-adv-x="235" 
d="M43 -162l53 195h95l-66 -195h-82z" />
    <glyph glyph-name="quotedblleft" unicode="&#x201c;" horiz-adv-x="374" 
d="M43 459l66 195h75l-53 -195h-88zM190 459l66 195h74l-52 -195h-88z" />
    <glyph glyph-name="quotedblright" unicode="&#x201d;" horiz-adv-x="374" 
d="M43 459l53 195h88l-66 -195h-75zM190 459l52 195h88l-66 -195h-74z" />
    <glyph glyph-name="quotedblbase" unicode="&#x201e;" horiz-adv-x="374" 
d="M43 -115l53 195h88l-66 -195h-75zM190 -115l52 195h88l-66 -195h-74z" />
    <glyph glyph-name="dagger" unicode="&#x2020;" horiz-adv-x="555" 
d="M224 0l4 420l-185 -3v84l185 -3l-5 202h110l-5 -202l183 3v-84l-183 3l4 -420h-108z" />
    <glyph glyph-name="daggerdbl" unicode="&#x2021;" horiz-adv-x="555" 
d="M224 0l4 185l-185 -1v82l185 -2l-5 86l5 85l-185 -1v81l185 -2l-5 187h110l-5 -187l183 2v-81l-183 1l5 -85l-5 -86l183 2v-82l-183 1l4 -185h-108z" />
    <glyph glyph-name="bullet" unicode="&#x2022;" horiz-adv-x="334" 
d="M166 164q-51 0 -87 35.5t-36 87.5q0 51 36 87.5t87 36.5q52 0 88 -36.5t36 -87.5q0 -52 -36 -87.5t-88 -35.5z" />
    <glyph glyph-name="ellipsis" unicode="&#x2026;" horiz-adv-x="572" 
d="M43 0v84h91v-84h-91zM241 0v84h90v-84h-90zM438 0v84h90v-84h-90z" />
    <glyph glyph-name="perthousand" unicode="&#x2030;" horiz-adv-x="1043" 
d="M185 360q-69 0 -105.5 38t-36.5 102q0 73 36 113.5t106 40.5q69 0 105 -40.5t36 -113.5q0 -64 -36.5 -102t-104.5 -38zM141 0l341 644h102l-341 -644h-102zM185 426q73 0 73 76q0 44 -17.5 64.5t-55.5 20.5t-55.5 -20.5t-17.5 -64.5q0 -76 73 -76zM543 -10
q-69 0 -105.5 38t-36.5 102q0 73 36 113.5t106 40.5q69 0 105 -40.5t36 -113.5q0 -64 -36.5 -102t-104.5 -38zM858 -10q-69 0 -105.5 38t-36.5 102q0 73 36 113.5t106 40.5q69 0 105 -40.5t36 -113.5q0 -64 -36.5 -102t-104.5 -38zM543 56q73 0 73 76q0 44 -17.5 64.5
t-55.5 20.5t-55.5 -20.5t-17.5 -64.5q0 -76 73 -76zM858 56q73 0 73 76q0 44 -17.5 64.5t-55.5 20.5t-55.5 -20.5t-17.5 -64.5q0 -76 73 -76z" />
    <glyph glyph-name="minute" unicode="&#x2032;" horiz-adv-x="181" 
d="M43 455v189h94l-13 -189h-81z" />
    <glyph glyph-name="second" unicode="&#x2033;" horiz-adv-x="341" 
d="M43 455v189h94l-13 -189h-81zM203 455v189h94l-13 -189h-81z" />
    <glyph glyph-name="guilsinglleft" unicode="&#x2039;" horiz-adv-x="388" 
d="M301 73l-258 190v46l258 190l43 -62l-204 -152l204 -151z" />
    <glyph glyph-name="guilsinglright" unicode="&#x203a;" horiz-adv-x="388" 
d="M86 73l-43 61l204 151l-204 152l43 62l258 -190v-46z" />
    <glyph glyph-name="fraction" unicode="&#x2044;" horiz-adv-x="153" 
d="M-137 0l317 662h109l-315 -662h-111z" />
    <glyph glyph-name="uni2070" unicode="&#x2070;" horiz-adv-x="360" 
d="M180 362q-69 0 -104 37t-35 104q0 151 139 151q138 0 138 -151q0 -67 -34.5 -104t-103.5 -37zM180 421q36 0 50.5 20t14.5 62q0 49 -13.5 70t-51.5 21q-37 0 -51.5 -21.5t-14.5 -69.5q0 -42 15 -62t51 -20z" />
    <glyph glyph-name="uni2074" unicode="&#x2074;" horiz-adv-x="297" 
d="M168 370v54h-145v52l140 178h79v-177h31v-53h-31v-54h-74zM96 478h88v114z" />
    <glyph glyph-name="uni2075" unicode="&#x2075;" horiz-adv-x="303" 
d="M130 362q-57 0 -87 12v57q30 -13 72 -13q37 0 53.5 8.5t16.5 29.5q0 22 -13 30t-47 8h-81v45l7 105h188l-4 -55h-119l-3 -46h44q102 0 102 -88q0 -43 -33 -68t-96 -25z" />
    <glyph glyph-name="uni2076" unicode="&#x2076;" horiz-adv-x="321" 
d="M163 362q-120 0 -120 110v62q0 56 35 88t96 32q48 0 76 -11v-55q-28 10 -72 10q-34 0 -52.5 -14.5t-18.5 -38.5v-12q30 23 71 23q53 0 76.5 -24t23.5 -73q0 -97 -115 -97zM161 414q28 0 39 11t11 34q0 24 -10 34t-38 10t-56 -21v-19q0 -49 54 -49z" />
    <glyph glyph-name="uni2077" unicode="&#x2077;" horiz-adv-x="289" 
d="M81 370l92 215h-140v59h222v-50l-96 -224h-78z" />
    <glyph glyph-name="uni2078" unicode="&#x2078;" horiz-adv-x="331" 
d="M166 362q-56 0 -89.5 21t-33.5 60q0 48 47 68q-39 19 -39 63q0 37 31 58.5t84 21.5t83.5 -21.5t30.5 -58.5q0 -45 -40 -66q48 -19 48 -65q0 -39 -33.5 -60t-88.5 -21zM176 530q22 7 29.5 15.5t7.5 26.5q0 35 -47 35q-48 0 -48 -35q0 -30 31 -36zM166 408q54 0 54 36
q0 16 -8.5 24t-31.5 13l-29 7q-21 -7 -30 -15.5t-9 -27.5q0 -37 54 -37z" />
    <glyph glyph-name="uni2079" unicode="&#x2079;" horiz-adv-x="321" 
d="M147 362q-46 0 -76 10v56q24 -10 72 -10q71 0 71 53v12q-30 -23 -69 -23q-54 0 -78 23.5t-24 73.5q0 97 115 97q120 0 120 -110v-63q0 -55 -35 -87t-96 -32zM158 513q29 0 56 20v19q0 49 -54 49q-28 0 -39 -11t-11 -34q0 -24 10 -33.5t38 -9.5z" />
    <glyph glyph-name="uni207D" unicode="&#x207d;" horiz-adv-x="220" 
d="M99 352q-56 58 -56 162q0 103 56 162h77q-62 -62 -62 -162q0 -101 62 -162h-77z" />
    <glyph glyph-name="uni207E" unicode="&#x207e;" horiz-adv-x="220" 
d="M43 352q63 60 63 162q0 100 -63 162h78q55 -58 55 -162q0 -106 -55 -162h-78z" />
    <glyph glyph-name="uni207F" unicode="&#x207f;" horiz-adv-x="358" 
d="M48 386v262h64l2 -27q45 32 104 32q45 0 70.5 -24t25.5 -71v-172h-67v159q0 31 -12 43t-43 12q-44 0 -76 -30v-184h-68z" />
    <glyph glyph-name="uni2080" unicode="&#x2080;" horiz-adv-x="360" 
d="M180 -128q-69 0 -104 37t-35 104q0 151 139 151q138 0 138 -151q0 -67 -34.5 -104t-103.5 -37zM180 -69q36 0 50.5 20t14.5 62q0 49 -13.5 70t-51.5 21q-37 0 -51.5 -21.5t-14.5 -69.5q0 -42 15 -62t51 -20z" />
    <glyph glyph-name="uni2081" unicode="&#x2081;" horiz-adv-x="214" 
d="M104 -120v211l-72 -15v59l147 29v-284h-75z" />
    <glyph glyph-name="uni2082" unicode="&#x2082;" horiz-adv-x="301" 
d="M43 -120v38q19 29 76 77q36 30 48 44t12 30q0 19 -12.5 27t-42.5 8q-35 0 -73 -15v59q48 16 97 16q50 0 78.5 -24t28.5 -61q0 -27 -11.5 -46t-40.5 -46q-8 -7 -18.5 -16t-18.5 -16t-16 -16h107v-59h-214z" />
    <glyph glyph-name="uni2083" unicode="&#x2083;" horiz-adv-x="304" 
d="M134 -128q-60 0 -91 13v54q34 -14 73 -14q36 0 51 8t15 27q0 35 -59 35h-39l4 48h32q56 0 56 37q0 29 -59 29q-37 0 -69 -13v55q39 13 88 13q119 0 119 -80q0 -49 -41 -65q47 -13 47 -62q0 -85 -127 -85z" />
    <glyph glyph-name="uni2084" unicode="&#x2084;" horiz-adv-x="297" 
d="M168 -120v54h-145v52l140 178h79v-177h31v-53h-31v-54h-74zM96 -12h88v114z" />
    <glyph glyph-name="uni2085" unicode="&#x2085;" horiz-adv-x="303" 
d="M130 -128q-57 0 -87 12v57q30 -13 72 -13q37 0 53.5 8.5t16.5 29.5q0 22 -13 30t-47 8h-81v45l7 105h188l-4 -55h-119l-3 -46h44q102 0 102 -88q0 -43 -33 -68t-96 -25z" />
    <glyph glyph-name="uni2086" unicode="&#x2086;" horiz-adv-x="321" 
d="M163 -128q-120 0 -120 110v62q0 56 35 88t96 32q48 0 76 -11v-55q-28 10 -72 10q-34 0 -52.5 -14.5t-18.5 -38.5v-12q30 23 71 23q53 0 76.5 -24t23.5 -73q0 -97 -115 -97zM161 -76q28 0 39 11t11 34q0 24 -10 34t-38 10t-56 -21v-19q0 -49 54 -49z" />
    <glyph glyph-name="uni2087" unicode="&#x2087;" horiz-adv-x="289" 
d="M81 -120l92 215h-140v59h222v-50l-96 -224h-78z" />
    <glyph glyph-name="uni2088" unicode="&#x2088;" horiz-adv-x="331" 
d="M166 -128q-56 0 -89.5 21t-33.5 60q0 48 47 68q-39 19 -39 63q0 37 31 58.5t84 21.5t83.5 -21.5t30.5 -58.5q0 -45 -40 -66q48 -19 48 -65q0 -39 -33.5 -60t-88.5 -21zM176 40q22 7 29.5 15.5t7.5 26.5q0 35 -47 35q-48 0 -48 -35q0 -30 31 -36zM166 -82q54 0 54 36
q0 16 -8.5 23.5t-31.5 13.5l-29 7q-21 -7 -30 -15.5t-9 -27.5q0 -37 54 -37z" />
    <glyph glyph-name="uni2089" unicode="&#x2089;" horiz-adv-x="321" 
d="M147 -128q-46 0 -76 10v56q24 -10 72 -10q71 0 71 53v12q-30 -23 -69 -23q-54 0 -78 23.5t-24 73.5q0 97 115 97q120 0 120 -110v-63q0 -55 -35 -87t-96 -32zM158 23q29 0 56 20v19q0 49 -54 49q-28 0 -39 -11t-11 -34q0 -24 10 -33.5t38 -9.5z" />
    <glyph glyph-name="uni208D" unicode="&#x208d;" horiz-adv-x="220" 
d="M99 -146q-56 58 -56 162q0 103 56 162h77q-62 -62 -62 -162q0 -101 62 -162h-77z" />
    <glyph glyph-name="uni208E" unicode="&#x208e;" horiz-adv-x="220" 
d="M43 -146q63 60 63 162q0 100 -63 162h78q55 -60 55 -162q0 -104 -55 -162h-78z" />
    <glyph glyph-name="colonmonetary" unicode="&#x20a1;" horiz-adv-x="573" 
d="M126 -31l27 107q-110 69 -110 233q0 275 246 302l15 60h75l-15 -57q21 -1 54 -5l16 62h74l-19 -76l39 -12v-95q-26 10 -62 19l-98 -385q86 2 161 31v-96q-86 -27 -183 -27h-2l-15 -61h-74l17 66q-34 5 -52 11l-20 -77h-74zM295 126l100 393q-28 2 -42 2h-12l-97 -381
q25 -10 51 -14zM182 190l81 318q-110 -34 -110 -199q0 -75 29 -119z" />
    <glyph glyph-name="lira" unicode="&#x20a4;" horiz-adv-x="498" 
d="M43 0v84h25q56 0 56 65v32h-68v80h68v55h-68v80h68v93q0 76 48.5 120.5t126.5 44.5q70 0 117 -21v-78q-28 15 -84 15q-51 0 -75.5 -20.5t-24.5 -66.5v-87h182l-3 -80h-179v-55h182l-3 -80h-179q0 -28 -1 -41.5t-6.5 -30t-17.5 -25.5h247v-84h-411z" />
    <glyph glyph-name="uni20A6" unicode="&#x20a6;" horiz-adv-x="662" 
d="M101 0v216h-58v77h58v59h-58v76h58v216h96l117 -216h138v216h109v-216h57v-76h-57v-59h57v-77h-57v-216h-97l-117 216h-137v-216h-109zM210 428h22l-22 41v-41zM210 293h95l-32 59h-63v-59zM387 293h65v59h-97zM452 173v43h-24z" />
    <glyph glyph-name="peseta" unicode="&#x20a7;" horiz-adv-x="1200" 
d="M63 0v644h195q106 0 160.5 -59t54.5 -156t-59 -155t-160 -58h-82v-216h-109zM172 303h65q63 0 97 33.5t34 92.5q0 128 -126 128h-70v-254zM958 -10q-103 0 -168 24v90q70 -26 153 -26q58 0 81 10.5t23 39.5q0 7 -1.5 13t-5 11t-7.5 8.5t-12 8t-13.5 7.5t-18 7t-20.5 7
t-24 8t-27 9q-72 24 -105 53.5t-33 87.5q0 136 197 136q79 0 142 -21v-89q-57 23 -124 23q-55 0 -80.5 -10.5t-25.5 -36.5q0 -24 19 -35t76 -29q14 -5 22 -7q85 -26 118 -57.5t33 -92.5q0 -139 -199 -139zM674 -10q-74 0 -112 39.5t-38 111.5v109h-60v82h60v117l108 25v-142
h126l-3 -82h-123v-105q0 -77 81 -77q27 0 57 10v-72q-39 -16 -96 -16z" />
    <glyph glyph-name="dong" unicode="&#x20ab;" horiz-adv-x="593" 
d="M259 -10q-101 0 -158.5 60.5t-57.5 184.5t59.5 186.5t161.5 62.5q86 0 146 -41v92h-156v78h156v61h109v-61h55v-78h-55v-535h-93l-7 47q-63 -57 -160 -57zM288 72q73 0 122 50v237q-47 42 -118 42q-70 0 -104.5 -40t-34.5 -127q0 -84 32.5 -123t102.5 -39zM94 -134v83
h432v-83h-432z" />
    <glyph glyph-name="Euro" unicode="&#x20ac;" horiz-adv-x="588" 
d="M383 -10q-235 0 -280 206h-70v67h61q-2 28 -2 45q0 30 1 45h-60v67h67q39 234 282 234q84 0 172 -31v-94q-77 32 -164 32q-84 0 -125.5 -35t-55.5 -106h218v-67h-225q-1 -15 -1 -45q0 -31 1 -45h225v-67h-214q16 -59 59 -86.5t121 -27.5q86 0 162 29v-94
q-87 -27 -172 -27z" />
    <glyph glyph-name="uni20B1" unicode="&#x20b1;" horiz-adv-x="616" 
d="M61 0v337h-35v72h35v42h-35v72h35v121h265q153 0 199 -121h56v-72h-41q1 -7 1 -22q0 -14 -1 -20h41v-72h-57q-23 -57 -75.5 -88.5t-126.5 -31.5h-152v-217h-109zM167 523h238q-32 37 -96 37h-142v-37zM167 409h266q2 12 2 20q0 3 -0.5 11t-0.5 11h-267v-42zM167 300h137
q65 0 99 37h-236v-37z" />
    <glyph glyph-name="uni20B2" unicode="&#x20b2;" horiz-adv-x="641" 
d="M306 -120v113q-129 15 -196 97.5t-67 218.5q0 147 66 236t197 105v85h82v-81q92 -3 169 -29v-94q-78 27 -169 30v-208h210v-310q-75 -48 -210 -52v-111h-82zM306 87v467q-81 -17 -117 -77.5t-36 -167.5q0 -193 153 -222zM388 82q64 3 117 23v177h-117v-200z" />
    <glyph glyph-name="uni20B5" unicode="&#x20b5;" horiz-adv-x="597" 
d="M306 -120v114q-129 16 -196 99t-67 219q0 147 65.5 235t197.5 103v85h82v-82q88 -3 165 -30v-95q-79 30 -165 33v-479q91 2 166 31v-96q-79 -24 -166 -27v-110h-82zM306 88v467q-81 -17 -117 -77.5t-36 -165.5q0 -192 153 -224z" />
    <glyph glyph-name="uni20B9" unicode="&#x20b9;" horiz-adv-x="451" 
d="M227 0l-77 180q-15 34 -36.5 47t-70.5 13v70h53q139 0 144 108h-196v70h194q-18 86 -128 86h-67v70h365v-70h-115q42 -28 53 -86h62v-70h-61q-7 -126 -148 -156q25 -15 36 -29t24 -44l80 -189h-112z" />
    <glyph glyph-name="uni20BA" unicode="&#x20ba;" horiz-adv-x="580" 
d="M129 0v297l-86 -28v65l86 28v70l-86 -28v66l86 28v146h104v-112l182 60v-65l-182 -60v-71l182 61v-65l-182 -60v-253q199 6 199 204v43h105v-39q0 -141 -82.5 -214t-239.5 -73h-86z" />
    <glyph glyph-name="uni20BD" unicode="&#x20bd;" horiz-adv-x="641" 
d="M102 0v90h-59v86h59v62h-59v86h59v320h279q108 0 162 -53.5t54 -150.5q0 -95 -60.5 -148.5t-162.5 -53.5h-164v-62h126v-86h-126v-90h-108zM210 324h147q131 0 131 112q0 122 -126 122h-152v-234z" />
    <glyph glyph-name="uni210A" unicode="&#x210a;" horiz-adv-x="583" 
d="M266 -176q-79 0 -124 10v87q42 -13 106 -13q162 0 162 96v36q-59 -40 -147 -40q-220 0 -220 227q0 120 60.5 188.5t156.5 68.5q94 0 159 -57l7 47h93v-453q0 -90 -65 -143.5t-188 -53.5zM291 82q71 0 119 42v227q-49 50 -121 50q-66 0 -101 -45t-35 -128q0 -84 32.5 -115
t105.5 -31z" />
    <glyph glyph-name="uni2113" unicode="&#x2113;" horiz-adv-x="406" 
d="M241 -10q-75 0 -111 42.5t-36 116.5v156q-43 -17 -75 -24v84q43 10 75 27v184q0 174 147 174q66 0 99.5 -43.5t33.5 -112.5q0 -90 -46 -149t-128 -105v-201q0 -72 48 -72q30 0 41.5 17.5t11.5 56.5h79q0 -71 -29 -111t-110 -40zM186 430q54 35 78 71t24 85q0 80 -50 80
q-29 0 -40.5 -20.5t-11.5 -64.5v-151z" />
    <glyph glyph-name="uni2117" unicode="&#x2117;" horiz-adv-x="751" 
d="M375 -10q-137 0 -234.5 97.5t-97.5 234.5t97.5 234.5t234.5 97.5t234.5 -97.5t97.5 -234.5t-97.5 -234.5t-234.5 -97.5zM375 57q113 0 187.5 75t74.5 190q0 114 -74.5 189t-187.5 75q-112 0 -186 -75t-74 -189q0 -115 74 -190t186 -75zM242 115v411h193q65 0 100.5 -36
t35.5 -95q0 -60 -37 -99t-100 -39h-123v-142h-69zM311 316h88q54 0 79 16t25 63q0 40 -19.5 56t-60.5 16h-112v-151z" />
    <glyph glyph-name="uni2120" unicode="&#x2120;" horiz-adv-x="653" 
d="M165 360q-63 0 -100 13v56q39 -16 90 -16q58 0 58 28q0 15 -11.5 22t-49.5 20q-52 19 -73 37.5t-21 51.5q0 82 118 82q50 0 88 -12v-55q-39 13 -73 13q-62 0 -62 -28q0 -13 13 -21t50 -20q29 -9 45.5 -17.5t31 -27t14.5 -45.5q0 -43 -33.5 -62t-84.5 -19zM308 362v282h66
l89 -167l88 167h66v-282h-70v170l-69 -148h-29l-72 148v-170h-69z" />
    <glyph glyph-name="trademark" unicode="&#x2122;" horiz-adv-x="679" 
d="M138 362v217h-95v65h259v-65h-93v-217h-71zM326 362v282h66l89 -167l88 167h66v-282h-70v170l-69 -148h-29l-72 148v-170h-69z" />
    <glyph glyph-name="uni2126" unicode="&#x2126;" horiz-adv-x="764" 
d="M50 0v82h144q-151 95 -151 282q0 148 90.5 239.5t248.5 91.5q157 0 247.5 -91.5t90.5 -239.5q0 -190 -150 -282h143v-82h-275v84q172 93 172 276q0 109 -62 175.5t-166 66.5t-166.5 -66.5t-62.5 -175.5q0 -182 172 -276v-84h-275z" />
    <glyph glyph-name="estimated" unicode="&#x212e;" horiz-adv-x="776" 
d="M397 -13q-149 0 -251.5 98.5t-102.5 242.5q0 81 28 147t76 107.5t110 64t131 22.5q140 0 242 -91.5t102 -232.5v-17h-547v-222q28 -37 86.5 -61t125.5 -24q92 0 148.5 26.5t107.5 94.5h40q-54 -86 -124 -120.5t-172 -34.5zM185 362h407v202q-31 32 -84.5 52t-119.5 20
q-127 0 -203 -71v-203z" />
    <glyph glyph-name="uni2153" unicode="&#x2153;" horiz-adv-x="661" 
d="M115 370v211l-72 -15v59l147 29v-284h-75zM94 0l341 644h102l-341 -644h-102zM477 -9q-56 0 -91 13v54q35 -13 73 -13q36 0 51 7.5t15 26.5q0 35 -59 35h-39l4 49h32q56 0 56 36q0 30 -59 30q-32 0 -69 -13v54q33 13 88 13q119 0 119 -79q0 -49 -41 -66q47 -11 47 -62
q0 -85 -127 -85z" />
    <glyph glyph-name="uni2154" unicode="&#x2154;" horiz-adv-x="684" 
d="M43 370v38q19 29 76 77q36 30 48 44t12 30q0 19 -12.5 27t-42.5 8q-35 0 -73 -15v59q48 16 97 16q50 0 78.5 -24t28.5 -61q0 -27 -11.5 -46t-40.5 -46q-8 -7 -18.5 -16t-18.5 -16t-16 -16h107v-59h-214zM98 0l341 644h103l-342 -644h-102zM481 -9q-56 0 -91 13v54
q35 -13 73 -13q36 0 51 7.5t15 26.5q0 35 -59 35h-39l4 49h32q56 0 56 36q0 30 -59 30q-32 0 -69 -13v54q33 13 88 13q119 0 119 -79q0 -49 -41 -66q47 -11 47 -62q0 -85 -127 -85z" />
    <glyph glyph-name="oneeighth" unicode="&#x215b;" horiz-adv-x="665" 
d="M115 370v211l-72 -15v59l147 29v-284h-75zM94 0l341 644h102l-341 -644h-102zM488 -10q-56 0 -89.5 21t-33.5 60q0 48 47 68q-39 19 -39 63q0 37 31 58.5t84 21.5t83.5 -21.5t30.5 -58.5q0 -45 -40 -66q48 -19 48 -65q0 -39 -33.5 -60t-88.5 -21zM498 158q22 7 29.5 15.5
t7.5 26.5q0 35 -47 35q-48 0 -48 -35q0 -30 31 -36zM488 36q54 0 54 36q0 16 -8.5 24t-31.5 13l-29 7q-21 -7 -30 -15.5t-9 -27.5q0 -37 54 -37z" />
    <glyph glyph-name="threeeighths" unicode="&#x215c;" horiz-adv-x="672" 
d="M134 362q-60 0 -91 13v54q34 -14 73 -14q36 0 51 8t15 27q0 35 -59 35h-39l4 48h32q56 0 56 37q0 29 -59 29q-37 0 -69 -13v55q39 13 88 13q119 0 119 -80q0 -49 -41 -65q47 -13 47 -62q0 -85 -127 -85zM95 0l340 644h103l-341 -644h-102zM488 -10q-56 0 -89.5 21
t-33.5 60q0 48 47 68q-39 19 -39 63q0 37 31 58.5t84 21.5t83.5 -21.5t30.5 -58.5q0 -45 -40 -66q48 -19 48 -65q0 -39 -33.5 -60t-88.5 -21zM498 158q22 7 29.5 15.5t7.5 26.5q0 35 -47 35q-48 0 -48 -35q0 -30 31 -36zM488 36q54 0 54 36q0 16 -8.5 24t-31.5 13l-29 7
q-21 -7 -30 -15.5t-9 -27.5q0 -37 54 -37z" />
    <glyph glyph-name="fiveeighths" unicode="&#x215d;" horiz-adv-x="657" 
d="M130 362q-57 0 -87 12v57q30 -13 72 -13q37 0 53.5 8.5t16.5 29.5q0 22 -13 30t-47 8h-81v45l7 105h188l-4 -55h-119l-3 -46h44q102 0 102 -88q0 -43 -33 -68t-96 -25zM89 0l341 644h103l-342 -644h-102zM483 -10q-56 0 -89.5 21t-33.5 60q0 48 47 68q-39 19 -39 63
q0 37 31 58.5t84 21.5t83.5 -21.5t30.5 -58.5q0 -45 -40 -66q48 -19 48 -65q0 -39 -33.5 -60t-88.5 -21zM493 158q22 7 29.5 15.5t7.5 26.5q0 35 -47 35q-48 0 -48 -35q0 -30 31 -36zM483 36q54 0 54 36q0 16 -8.5 24t-31.5 13l-29 7q-21 -7 -30 -15.5t-9 -27.5
q0 -37 54 -37z" />
    <glyph glyph-name="seveneighths" unicode="&#x215e;" horiz-adv-x="667" 
d="M91 370l92 215h-140v59h222v-50l-96 -224h-78zM95 0l341 644h103l-342 -644h-102zM489 -10q-56 0 -89.5 21t-33.5 60q0 48 47 68q-39 19 -39 63q0 37 31 58.5t84 21.5t83.5 -21.5t30.5 -58.5q0 -45 -40 -66q48 -19 48 -65q0 -39 -33.5 -60t-88.5 -21zM499 158
q22 7 29.5 15.5t7.5 26.5q0 35 -47 35q-48 0 -48 -35q0 -30 31 -36zM489 36q54 0 54 36q0 16 -8.5 24t-31.5 13l-29 7q-21 -7 -30 -15.5t-9 -27.5q0 -37 54 -37z" />
    <glyph glyph-name="arrowleft" unicode="&#x2190;" horiz-adv-x="764" 
d="M283 56l-240 192v37l240 192l34 -47l-158 -127h561v-73h-560l157 -127z" />
    <glyph glyph-name="arrowup" unicode="&#x2191;" horiz-adv-x="507" 
d="M217 -48v560l-127 -158l-47 34l192 240h37l192 -240l-47 -34l-127 158v-560h-73z" />
    <glyph glyph-name="arrowright" unicode="&#x2192;" horiz-adv-x="764" 
d="M481 56l-35 47l157 127h-560v73h561l-158 127l35 47l239 -192v-37z" />
    <glyph glyph-name="arrowdown" unicode="&#x2193;" horiz-adv-x="507" 
d="M235 -56l-192 239l47 34l127 -157v560h73v-560l127 157l47 -34l-192 -239h-37z" />
    <glyph glyph-name="partialdiff" unicode="&#x2202;" horiz-adv-x="623" 
d="M250 -10q-117 0 -169 59.5t-31 155.5q46 207 264 207q92 0 154 -51l4 22q17 93 -8.5 140t-116.5 47q-97 0 -166 -30l17 85q73 29 167 29q124 0 177.5 -80.5t26.5 -211.5l-25 -123q-28 -130 -97 -189.5t-197 -59.5zM263 69q143 0 174 147l14 70q-53 47 -134 47
q-76 0 -115 -32.5t-53 -99.5q-15 -67 11.5 -99.5t102.5 -32.5z" />
    <glyph glyph-name="product" unicode="&#x220f;" horiz-adv-x="631" 
d="M63 -129v835h504v-835h-109v751h-286v-751h-109z" />
    <glyph glyph-name="summation" unicode="&#x2211;" horiz-adv-x="535" 
d="M43 -120v65l240 317l-240 316v66h449v-85h-311l224 -297l-224 -298h311v-84h-449z" />
    <glyph glyph-name="minus" unicode="&#x2212;" horiz-adv-x="468" 
d="M43 227v85h382v-85h-382z" />
    <glyph glyph-name="uni2215" unicode="&#x2215;" horiz-adv-x="513" 
d="M43 0l317 662h109l-315 -662h-111z" />
    <glyph glyph-name="uni2219" unicode="&#x2219;" horiz-adv-x="180" 
d="M43 259v86h93v-86h-93z" />
    <glyph glyph-name="radical" unicode="&#x221a;" horiz-adv-x="690" 
d="M283 0l-133 364h-107v85h183l109 -322l204 587h107l-251 -714h-112z" />
    <glyph glyph-name="infinity" unicode="&#x221e;" horiz-adv-x="701" 
d="M203 131q-72 0 -116 39t-44 112t44 112t116 39q96 0 147 -86q52 86 148 86q72 0 115.5 -38.5t43.5 -112.5t-43.5 -112.5t-115.5 -38.5q-97 0 -148 86q-50 -86 -147 -86zM208 204q70 0 103 78q-36 78 -103 78q-85 0 -85 -78t85 -78zM494 204q84 0 84 78t-84 78
q-37 0 -61.5 -19.5t-43.5 -60.5q40 -76 105 -76z" />
    <glyph glyph-name="integral" unicode="&#x222b;" horiz-adv-x="440" 
d="M117 -123q-55 0 -97 17v77q31 -11 63 -11q46 0 64 17t18 58v497q0 72 40.5 115t116.5 43q51 0 97 -17v-78q-31 11 -63 11q-46 0 -64 -16.5t-18 -58.5v-497q0 -72 -40.5 -114.5t-116.5 -42.5z" />
    <glyph glyph-name="approxequal" unicode="&#x2248;" horiz-adv-x="473" 
d="M330 283q-37 0 -93 26.5t-94 26.5q-33 0 -55 -8.5t-45 -33.5v84q32 35 100 35q41 0 98.5 -26.5t92.5 -26.5q31 0 51.5 8.5t43.5 34.5v-86q-30 -34 -99 -34zM330 127q-37 0 -93 26.5t-94 26.5q-33 0 -55 -8.5t-45 -34.5v84q32 35 100 35q41 0 98.5 -26.5t92.5 -26.5
q31 0 51.5 8.5t43.5 34.5v-85q-29 -34 -99 -34z" />
    <glyph glyph-name="notequal" unicode="&#x2260;" horiz-adv-x="473" 
d="M114 71l29 83h-100v78h128l27 76h-155v77h183l28 78h92l-28 -78h111v-77h-139l-27 -76h166v-78h-194l-29 -83h-92z" />
    <glyph glyph-name="lessequal" unicode="&#x2264;" horiz-adv-x="544" 
d="M501 109l-458 203v75l458 202v-92l-343 -148l343 -148v-92zM43 0v78h458v-78h-458z" />
    <glyph glyph-name="greaterequal" unicode="&#x2265;" horiz-adv-x="544" 
d="M43 109v92l343 148l-343 148v92l458 -202v-75zM43 0v78h458v-78h-458z" />
    <glyph glyph-name="filledbox" unicode="&#x25a0;" horiz-adv-x="571" 
d="M43 120v484h484v-484h-484z" />
    <glyph glyph-name="triagup" unicode="&#x25b2;" horiz-adv-x="672" 
d="M43 0l293 585l292 -585h-585z" />
    <glyph glyph-name="uni25B3" unicode="&#x25b3;" horiz-adv-x="672" 
d="M50 0l293 585l292 -585h-585zM166 71h352l-175 353z" />
    <glyph glyph-name="uni25B6" unicode="&#x25b6;" horiz-adv-x="672" 
d="M43 0v585l585 -292z" />
    <glyph glyph-name="uni25B7" unicode="&#x25b7;" horiz-adv-x="672" 
d="M50 -1v585l585 -293zM121 116l353 175l-353 177v-352z" />
    <glyph glyph-name="triagdn" unicode="&#x25bc;" horiz-adv-x="672" 
d="M336 0l-293 585h585z" />
    <glyph glyph-name="uni25BD" unicode="&#x25bd;" horiz-adv-x="672" 
d="M343 0l-293 585h585zM343 161l175 353h-352z" />
    <glyph glyph-name="uni25C0" unicode="&#x25c0;" horiz-adv-x="672" 
d="M628 0l-585 293l585 292v-585z" />
    <glyph glyph-name="uni25C1" unicode="&#x25c1;" horiz-adv-x="672" 
d="M635 -1l-585 292l585 293v-585zM564 116v352l-353 -177z" />
    <glyph glyph-name="uni25C6" unicode="&#x25c6;" horiz-adv-x="620" 
d="M309 65l-266 266l266 267l267 -267z" />
    <glyph glyph-name="lozenge" unicode="&#x25ca;" horiz-adv-x="602" 
d="M264 0l-221 321l221 323h73l221 -323l-221 -321h-73zM301 100l148 221l-149 220l-147 -220z" />
    <glyph glyph-name="dieresisacute" unicode="&#xf6d7;" 
d="M-48 657l61 127h83l-67 -127h-77zM-151 559v84h90v-84h-90zM48 559v84h89v-84h-89z" />
    <glyph glyph-name="dieresisgrave" unicode="&#xf6d8;" 
d="M-43 657l-67 127h84l60 -127h-77zM-151 559v84h90v-84h-90zM48 559v84h89v-84h-89z" />
    <glyph glyph-name="uniF8FF" unicode="&#xf8ff;" horiz-adv-x="498" 
d="M43 0v714h411v-714h-411zM94 51h309v612h-309v-612z" />
    <glyph glyph-name="uni0E24.short" horiz-adv-x="613" 
d="M440 -110v448q0 69 -32 96.5t-110 27.5q-105 0 -161 -51v-18l114 -29v-72q-39 -10 -55 -32t-16 -66v-65q0 -23 10 -33t32 -10h55v-86h-108q-45 0 -71 28t-26 73v94q0 100 79 124l-108 27v112q104 92 259 92q123 0 185 -51t62 -164v-445h-109z" />
    <glyph glyph-name="uni0E26.short" horiz-adv-x="647" 
d="M475 -110v448q0 68 -31 96t-105 28q-107 0 -161 -51v-18l117 -29v-72q-37 -11 -49.5 -31.5t-12.5 -66.5v-72q0 -122 -118 -122h-67v86h37q21 0 29.5 9.5t8.5 32.5v67q0 48 15 78.5t56 45.5l-110 27v112q102 92 258 92q119 0 180 -52t61 -163v-445h-108z" />
    <glyph glyph-name="doChadathai.short" horiz-adv-x="647" 
d="M168 -127v87q77 36 170 36q85 0 137 -29v371q0 68 -31 96t-105 28q-107 0 -161 -51v-18l117 -29v-72q-37 -11 -49.5 -31.5t-12.5 -66.5v-72q0 -122 -118 -122h-67v86h37q21 0 29.5 9.5t8.5 32.5v67q0 48 15 78.5t56 45.5l-110 27v112q102 92 258 92q119 0 180 -52
t61 -163v-459h-108q-61 33 -148 33q-85 0 -159 -36z" />
    <glyph glyph-name="toPatakthai.short" horiz-adv-x="647" 
d="M436 -124q-76 0 -112 46q-25 -45 -91 -45h-97l6 87h71q29 0 45.5 9.5t27.5 33.5h71q18 -47 63 -47q29 0 42 15t13 46v317q0 68 -31 96t-105 28q-107 0 -161 -51v-18l117 -29v-72q-37 -11 -49.5 -31.5t-12.5 -66.5v-72q0 -122 -118 -122h-67v86h37q21 0 29.5 9.5t8.5 32.5
v67q0 48 15 78.5t56 45.5l-110 27v112q102 92 258 92q119 0 180 -52t61 -163v-320q0 -66 -39 -102.5t-108 -36.5z" />
    <glyph glyph-name="yoYingthai.less" horiz-adv-x="969" 
d="M666 -10q-237 0 -237 220v128q0 69 -30.5 96.5t-103.5 27.5q-102 0 -158 -51v-18l114 -29v-72q-39 -10 -55 -32t-16 -66v-65q0 -23 10 -33t32 -10h55v-86h-108q-45 0 -71 28t-26 73v94q0 100 79 124l-108 27v112q104 92 256 92q118 0 177 -51t59 -164v-129
q0 -67 31.5 -98t99.5 -31t99.5 31t31.5 98v334h108v-330q0 -109 -61 -164.5t-178 -55.5z" />
    <glyph glyph-name="thoThanthai.less" horiz-adv-x="604" 
d="M273 -10q-52 0 -86 13l-80 213h-69l5 82h133l83 -222q71 -3 114 45t43 154q0 105 -43 146t-152 41q-92 0 -171 -26v84q94 30 200 30q48 0 96 -10h223l-5 -85h-93q50 -63 50 -180q0 -134 -71.5 -209.5t-176.5 -75.5z" />
    <glyph glyph-name="loChulathai.short" horiz-adv-x="726" 
d="M160 0l-125 540h107l86 -422l92 184v77h77l108 -264l37 206q8 47 -3.5 66t-46.5 19h-40l13 82h44q38 0 55 13.5t27 47.5l14 47h97l-16 -61q-20 -79 -78 -91q52 -27 32 -117l-74 -327h-99l-100 228l-108 -228h-99z" />
    <glyph glyph-name="uni0E31.narrow" 
d="M-548 622v146h89v-70h208l-4 -76h-293z" />
    <glyph glyph-name="uni0E48.small" 
d="M-154 827v139h90v-139h-90z" />
    <glyph glyph-name="uni0E49.small" 
d="M-216 833v78h-62v70h133v-78h154l-4 -70h-221z" />
    <glyph glyph-name="uni0E49.narrow" 
d="M-476 622v92h-78v75h153v-91h164l-4 -76h-235z" />
    <glyph glyph-name="uni0E4A.small" 
d="M-252 824q-42 0 -69 22t-27 66t23.5 68.5t63.5 24.5q48 0 59 -36h1q14 36 62 36q80 0 80 -77v-44h10q15 0 20.5 6.5t5.5 23.5v87h61v-90q0 -37 -21 -58t-59 -21h-75v83q0 20 -6 28t-21 8q-31 0 -31 -37v-11h-49v11q0 37 -28 37q-31 0 -31 -40q0 -35 38 -35h24v-52h-31z
" />
    <glyph glyph-name="uni0E4A.narrow" 
d="M-488 613q-50 0 -78 26t-28 77t23 78t65 27q48 0 62 -39h1q17 39 65 39q44 0 62 -20.5t18 -58.5v-64h10q13 0 17.5 6t4.5 23v110h63v-116q0 -36 -21 -57.5t-59 -21.5h-76v100q0 24 -5 33t-23 9t-23.5 -11t-5.5 -33v-14h-52v14q0 22 -5.5 33t-23.5 11q-31 0 -31 -51
q0 -46 51 -46h22v-54h-33z" />
    <glyph glyph-name="uni0E4B.small" 
d="M-154 827v35h-55v71h55v40h90v-40h57v-71h-57v-35h-90z" />
    <glyph glyph-name="uni0E4C.small" 
d="M-242 827v135h271l-4 -71h-185v-64h-82z" />
    <glyph glyph-name="uni0E4C.narrow" 
d="M-513 622v146h278l-4 -76h-185v-70h-89z" />
    <glyph glyph-name="uni0E47.narrow" 
d="M-448 619q-59 0 -92 30t-33 85q0 56 35 88.5t99 32.5h220l-5 -64h-205q-68 0 -68 -57q0 -53 56 -53q52 0 52 42v21h67v-21q0 -39 46 -39h39v-63h-46q-57 0 -73 31q-10 -16 -36.5 -24.5t-55.5 -8.5z" />
    <glyph glyph-name="uni0E34.narrow" 
d="M-580 622l6 76h336v-76h-342z" />
    <glyph glyph-name="uni0E35.narrow" 
d="M-580 622l5 76h248v83h89v-159h-342z" />
    <glyph glyph-name="uni0E36.narrow" 
d="M-580 622l5 76h184q-2 10 -2 22q0 31 24 54t65 23q45 0 68 -25t23 -60q0 -39 -25 -64.5t-70 -25.5h-272zM-303 673q18 0 28.5 11t10.5 27q0 17 -11 28.5t-28 11.5q-16 0 -27.5 -11t-11.5 -29q0 -16 11 -27t28 -11z" />
    <glyph glyph-name="uni0E37.narrow" 
d="M-584 622l5 76h153v83h69v-83h50v83h69v-159h-346z" />
    <glyph glyph-name="uni0E4D0E48" 
d="M-154 887v139h90v-139h-90zM-119 598q-48 0 -80.5 31t-32.5 77q0 47 32.5 78t80.5 31q47 0 79.5 -31t32.5 -78q0 -46 -32.5 -77t-79.5 -31zM-119 660q19 0 32.5 14t13.5 32q0 20 -13.5 34t-32.5 14t-33.5 -14t-14.5 -34q0 -18 14.5 -32t33.5 -14z" />
    <glyph glyph-name="uni0E4D0E49" 
d="M-216 887v78h-62v70h133v-78h154l-4 -70h-221zM-119 598q-48 0 -80.5 31t-32.5 77q0 47 32.5 78t80.5 31q47 0 79.5 -31t32.5 -78q0 -46 -32.5 -77t-79.5 -31zM-119 660q19 0 32.5 14t13.5 32q0 20 -13.5 34t-32.5 14t-33.5 -14t-14.5 -34q0 -18 14.5 -32t33.5 -14z" />
    <glyph glyph-name="uni0E4D0E4A" 
d="M-194 880q-42 0 -69 22t-27 66t23.5 68.5t63.5 24.5q48 0 59 -36h1q14 36 62 36q80 0 80 -77v-44h10q15 0 20.5 6.5t5.5 23.5v87h61v-90q0 -37 -21 -58t-59 -21h-75v83q0 20 -6 28t-21 8q-31 0 -31 -37v-11h-49v11q0 37 -28 37q-31 0 -31 -40q0 -35 38 -35h24v-52h-31z
M-119 598q-48 0 -80.5 31t-32.5 77q0 47 32.5 78t80.5 31q47 0 79.5 -31t32.5 -78q0 -46 -32.5 -77t-79.5 -31zM-119 660q19 0 32.5 14t13.5 32q0 20 -13.5 34t-32.5 14t-33.5 -14t-14.5 -34q0 -18 14.5 -32t33.5 -14z" />
    <glyph glyph-name="uni0E4D0E4B" 
d="M-154 888v35h-55v71h55v40h90v-40h57v-71h-57v-35h-90zM-119 598q-48 0 -80.5 31t-32.5 77q0 47 32.5 78t80.5 31q47 0 79.5 -31t32.5 -78q0 -46 -32.5 -77t-79.5 -31zM-119 660q19 0 32.5 14t13.5 32q0 20 -13.5 34t-32.5 14t-33.5 -14t-14.5 -34q0 -18 14.5 -32
t33.5 -14z" />
    <glyph glyph-name="uni0E3A.small" 
d="M-116 -275q-24 0 -41.5 17t-17.5 41t17.5 41t41.5 17q25 0 42 -16.5t17 -41.5t-17 -41.5t-42 -16.5z" />
    <glyph glyph-name="uni0E38.small" 
d="M-157 -341v110h-63l5 71h151v-181h-93z" />
    <glyph glyph-name="uni0E39.small" 
d="M-184 -351q-54 0 -86 22t-32 57v45h-54l5 67h127v-89q0 -32 40 -32q41 0 41 32v89h79v-96q0 -41 -31 -68t-89 -27z" />
    <glyph glyph-name="uni0E48.narrow" 
d="M-381 622v164h109v-164h-109z" />
    <glyph glyph-name="uni0E4B.narrow" 
d="M-407 622v43h-64v80h64v49h101v-49h66v-80h-66v-43h-101z" />
    <glyph glyph-name="uni0E4D.narrow" 
d="M-347 598q-47 0 -80 31t-33 77q0 47 33 78t80 31q48 0 80 -31t32 -78q0 -46 -32.5 -77t-79.5 -31zM-347 660q19 0 33 14t14 32q0 20 -14 34t-33 14t-33 -14t-14 -34q0 -18 14 -32t33 -14z" />
    <glyph glyph-name="uni0E4D0E48.narrow" 
d="M-384 887v139h90v-139h-90zM-347 598q-47 0 -80 31t-33 77q0 47 33 78t80 31q48 0 80 -31t32 -78q0 -46 -32.5 -77t-79.5 -31zM-347 660q19 0 33 14t14 32q0 20 -14 34t-33 14t-33 -14t-14 -34q0 -18 14 -32t33 -14z" />
    <glyph glyph-name="uni0E4D0E49.narrow" 
d="M-426 887v78h-62v70h133v-78h154l-4 -70h-221zM-347 598q-47 0 -80 31t-33 77q0 47 33 78t80 31q48 0 80 -31t32 -78q0 -46 -32.5 -77t-79.5 -31zM-347 660q19 0 33 14t14 32q0 20 -14 34t-33 14t-33 -14t-14 -34q0 -18 14 -32t33 -14z" />
    <glyph glyph-name="uni0E4D0E4A.narrow" 
d="M-432 880q-42 0 -69 22t-27 66t23.5 68.5t63.5 24.5q48 0 59 -36h1q14 36 62 36q80 0 80 -77v-44h10q15 0 20.5 6.5t5.5 23.5v87h61v-90q0 -37 -21 -58t-59 -21h-75v83q0 20 -6 28t-21 8q-31 0 -31 -37v-11h-49v11q0 37 -28 37q-31 0 -31 -40q0 -35 38 -35h24v-52h-31z
M-347 598q-47 0 -80 31t-33 77q0 47 33 78t80 31q48 0 80 -31t32 -78q0 -46 -32.5 -77t-79.5 -31zM-347 660q19 0 33 14t14 32q0 20 -14 34t-33 14t-33 -14t-14 -34q0 -18 14 -32t33 -14z" />
    <glyph glyph-name="uni0E4D0E4B.narrow" 
d="M-383 887v35h-55v71h55v40h90v-40h57v-71h-57v-35h-90zM-347 598q-47 0 -80 31t-33 77q0 47 33 78t80 31q48 0 80 -31t32 -78q0 -46 -32.5 -77t-79.5 -31zM-347 660q19 0 33 14t14 32q0 20 -14 34t-33 14t-33 -14t-14 -34q0 -18 14 -32t33 -14z" />
    <glyph glyph-name="circumflexacute" 
d="M-214 644l64 133h83l-70 -133h-77zM-466 531l119 127h84l119 -127h-89l-72 82l-70 -82h-91z" />
    <glyph glyph-name="circumflexgrave" 
d="M-435 644l-71 133h84l64 -133h-77zM-428 531l118 127h85l118 -127h-90l-71 82l-71 -82h-89z" />
    <glyph glyph-name="circumflexhookabove" 
d="M-184 623v66q46 2 61.5 11t15.5 28q0 31 -47 31q-29 0 -56 -12v53q34 12 77 12q48 0 75.5 -21t27.5 -57q0 -66 -77 -77v-34h-77zM-444 531l118 127h85l118 -127h-89l-71 82l-71 -82h-90z" />
    <glyph glyph-name="circumflextilde" 
d="M-201 666q-27 0 -76 19t-71 19q-52 0 -83 -35v71q29 29 82 29q29 0 75.5 -18.5t71.5 -18.5q51 0 77 35v-71q-23 -30 -76 -30zM-444 531l118 127h85l118 -127h-89l-71 82l-71 -82h-90z" />
    <glyph glyph-name="breveacute" 
d="M-365 651l64 133h84l-71 -133h-77zM-318 534q-70 0 -113 36t-43 112h66q0 -43 24 -66t66 -23t66 23t24 66h66q0 -76 -43 -112t-113 -36z" />
    <glyph glyph-name="brevegrave" 
d="M-348 651l-71 133h84l64 -133h-77zM-318 534q-70 0 -113 36t-43 112h66q0 -43 24 -66t66 -23t66 23t24 66h66q0 -76 -43 -112t-113 -36z" />
    <glyph glyph-name="brevehookabove" 
d="M-362 656v59q46 2 63.5 12t17.5 31q0 19 -12.5 26t-39.5 7q-28 0 -55 -12v51q34 12 81 12t73 -20.5t26 -56.5q0 -33 -18 -51t-60 -25v-33h-76zM-318 534q-70 0 -113 36t-43 112h66q0 -43 24 -66t66 -23t66 23t24 66h66q0 -76 -43 -112t-113 -36z" />
    <glyph glyph-name="brevetilde" 
d="M-240 703q-28 0 -77 18.5t-70 18.5q-52 0 -83 -34v71q29 29 82 29q29 0 75.5 -19t71.5 -19q51 0 77 36v-72q-22 -29 -76 -29zM-318 534q-70 0 -113 36t-43 112h66q0 -43 24 -66t66 -23t66 23t24 66h66q0 -76 -43 -112t-113 -36z" />
    <glyph glyph-name="dieresiscaron" 
d="M-239 655l-112 120h85l67 -78l68 78h83l-112 -120h-79zM-346 559v84h90v-84h-90zM-147 559v84h89v-84h-89z" />
    </font>
</defs>
</svg>
